<svg width="213" height="41" viewBox="0 0 213 41" fill="none" xmlns="http://www.w3.org/2000/svg">
<path d="M24.6267 20.2338C26.1783 21.5043 26.633 23.3154 27.1145 25.1266C27.3018 25.8835 27.4355 26.6404 27.4623 27.4243C27.4623 27.5324 27.4355 27.6676 27.5425 27.7217C27.703 27.8028 27.7565 27.6406 27.8635 27.5595C28.6661 26.9377 28.8801 26.9918 29.6558 27.6406C30.8061 28.6137 31.1806 29.8302 30.9934 31.2899C30.9934 31.371 30.9399 31.4791 30.9934 31.5602C31.6354 32.9659 30.9399 34.2093 30.6188 35.5069C30.5118 35.9664 30.2978 36.3719 30.1641 36.8044C29.6826 38.3993 28.5323 39.2103 27.0075 39.5617C24.3057 40.1834 21.6307 40.1564 18.9824 39.3995C18.6079 39.2914 18.3939 39.2103 18.6614 38.7777C18.9289 38.3723 18.5276 38.3993 18.3404 38.3993C17.5379 38.2912 16.7354 38.4263 15.9328 38.5345C13.7393 38.8588 11.5725 39.3725 9.35224 39.2643C4.1359 39.021 0.899095 34.9662 0.203584 31.1007C-0.331425 28.3434 0.257084 25.6672 1.1666 23.0181C1.35385 22.4504 1.56786 21.8827 1.83536 21.3421C2.02261 20.9366 1.99586 20.5041 2.02261 20.0986C2.20987 17.2062 3.14613 14.53 4.51041 12.0161C5.04542 11.0159 5.52692 10.0157 5.92818 8.96144C6.57019 7.33952 7.53321 5.93386 9.03123 4.96071C9.64649 4.58226 10.3153 4.31194 11.0108 4.12271C11.1445 4.09568 11.3318 4.12271 11.3318 3.90646C11.3318 3.25769 11.84 3.14956 12.2948 3.12253C13.4183 3.04143 14.3813 2.55486 15.2641 1.93312C15.6653 1.6628 16.0666 1.39248 16.1201 0.797777C16.1469 0.446361 16.4679 0.257137 16.8156 0.149009C17.6449 -0.121311 18.4206 -0.0402151 19.0894 0.527457C19.3569 0.743713 19.5977 0.851841 19.9187 0.851841C21.4434 0.851841 22.8612 1.33842 24.2522 1.93312C24.6267 2.09531 24.8675 2.31157 24.8407 2.77111C24.814 3.12253 25.028 3.28472 25.2955 3.39285C25.563 3.50098 25.8573 3.60911 26.1248 3.63614C27.275 3.71723 28.1846 4.366 29.1743 4.85258C29.6826 5.09587 29.6826 5.52838 29.4953 5.98792C29.3348 6.33934 29.2546 6.66372 29.2011 7.04217C29.1476 7.42062 29.0941 7.79907 28.6393 7.90719C28.6126 7.90719 28.5858 7.90719 28.5858 7.93423C28.1578 9.01551 27.0075 8.93441 26.2318 9.42099C25.4293 9.9346 24.6 10.3941 23.6905 10.7456C23.2357 10.9348 22.7275 10.9888 22.246 10.9888C21.7912 10.9888 21.8179 11.3403 21.8179 11.6106C21.7912 11.962 22.1122 11.7998 22.2727 11.7998C24.4127 11.7728 26.312 10.9618 28.1043 9.88053C29.4151 9.06957 29.6291 9.12363 30.6456 10.286C30.7793 10.4212 30.8863 10.5293 31.0736 10.4482C31.5551 10.2319 31.9296 10.5023 32.2774 10.7456C33.0264 11.2592 33.7486 11.8539 34.5779 12.2323C34.7919 12.3404 35.0594 12.5567 35.2467 12.3945C35.4607 12.2323 35.2199 11.962 35.1664 11.7457C35.0059 11.0159 34.5244 10.5293 33.9359 10.1238C33.2404 9.63724 32.4914 9.25879 31.7691 8.79925C30.9666 8.25861 30.4048 7.60984 30.4048 6.4745C30.4048 5.85276 30.5118 5.60947 31.0469 5.25806C31.9831 4.69039 32.9996 4.55523 34.0162 4.31194C34.2569 4.25787 34.5512 4.25787 34.7384 4.06865C36.0224 2.71705 37.6007 2.85221 39.179 3.23066C39.6605 3.33879 40.1153 3.33879 40.57 3.25769C41.3458 3.12253 42.0413 3.50098 42.282 4.28491C42.389 4.58226 42.5763 4.74445 42.8171 4.87961C43.9941 5.63651 44.9838 6.63669 45.8399 7.77203C46.2411 8.31267 46.6959 8.85331 46.5889 9.61021C46.5621 9.71834 46.6424 9.7724 46.6959 9.8535C48.9162 12.0431 49.4512 14.6922 48.9964 17.6928C48.7824 19.2066 48.8894 20.7204 49.6652 22.126C50.1467 23.0181 50.2269 24.0453 50.1199 25.0455C50.0664 25.5861 50.0664 26.0997 50.1467 26.6404C50.2002 27.0729 50.2002 27.5324 50.0932 27.9649C49.9594 28.4515 49.7187 28.83 49.1569 28.8029C48.9162 28.8029 48.8092 28.9111 48.7289 29.1544C48.2741 30.6411 47.9799 32.1279 48.3009 33.6957C48.4881 34.5067 48.2206 35.1555 47.6054 35.5339C46.4551 36.2097 45.8399 37.291 45.1176 38.2912C43.8871 39.9942 41.64 40.2645 40.0618 38.8588C39.8745 38.6966 39.6872 38.6156 39.4197 38.5885C38.537 38.5074 37.9217 38.0749 37.574 37.2369C37.467 36.9396 37.4135 36.6152 37.574 36.3178C38.1357 35.3717 37.9752 34.4256 37.4937 33.5335C37.0122 32.5874 36.7982 31.5602 36.7715 30.533C36.7715 29.2084 36.3702 28.019 35.9154 26.8296C35.3269 25.3158 35.2467 23.748 35.3804 22.126C35.4072 21.8016 35.4874 21.5584 34.9792 21.4232C34.5244 21.3151 34.2837 20.7204 34.1499 20.2608C33.9359 19.585 33.4811 19.2877 32.8926 19.1795C31.6889 18.9363 30.5921 18.4497 29.7361 17.5306C29.6023 17.3954 29.5221 17.3684 29.3883 17.5306C28.5056 18.6119 27.2483 19.1255 25.991 19.6121C25.456 19.7202 25.0013 19.8824 24.6267 20.2338Z" fill="#0F428A"/>
<path d="M14.3546 13.6381C13.7661 13.9084 13.2311 14.2328 12.6693 14.7464C13.0438 14.7194 13.2578 14.5572 13.4718 14.4491C14.8896 13.5029 16.4946 13.2056 18.1531 13.0164C20.4269 12.746 22.674 12.4217 24.9478 12.0973C25.991 11.9351 26.9273 11.4485 27.8368 10.9349C28.2113 10.7186 28.5858 10.4753 28.9871 10.3132C29.6291 10.0428 30.0839 10.2591 30.1909 10.9619C30.3246 12.1243 30.2176 13.2596 29.6291 14.2869C29.2813 14.9086 28.8533 15.4492 28.2648 15.8547C25.8305 17.5577 23.7707 19.6933 21.8715 21.991C21.1492 22.856 20.3467 23.694 19.5174 24.4779C19.2499 24.7212 19.0359 24.7753 18.6614 24.6401C16.3876 23.9103 14.1406 23.9643 11.9738 25.0997C11.9203 25.1808 11.8133 25.2348 11.733 25.2889C11.6528 25.2889 11.733 25.2078 11.7063 25.2889C11.7063 25.3159 11.733 25.3159 11.7598 25.2889C11.84 25.2619 11.9203 25.2348 12.0005 25.2348C13.3648 24.7482 14.7558 24.559 16.2004 24.505C17.9124 24.4509 19.3837 25.0186 20.6677 26.1539C22.5135 27.7758 23.958 29.7492 25.349 31.8036C25.6433 32.2361 25.9108 32.6957 26.2585 33.1282C26.0178 32.4524 26.4993 32.182 26.8738 31.8577C27.3553 31.4522 27.8636 31.0197 28.4521 30.7493C29.0941 30.452 29.4686 30.5601 29.9768 31.0467C30.8061 31.8577 30.8596 32.8038 30.6189 33.858C30.3514 34.9393 29.9768 35.9665 29.5221 36.9937C29.0673 38.021 28.2381 38.5616 27.2216 38.913C24.7338 39.8051 22.246 39.778 19.7047 39.2374C19.4372 39.1833 19.2499 39.0752 19.4372 38.7779C19.7314 38.2913 19.4104 38.2372 19.0627 38.1561C17.6181 37.8858 16.1736 38.075 14.7558 38.2913C13.3916 38.5075 12.054 38.8049 10.6898 38.886C8.52299 38.9671 6.62371 38.2102 4.80467 37.0748C1.94238 35.2907 0.845607 32.5875 0.685105 29.3707C0.578103 27.1271 1.00611 24.9645 1.86212 22.883C2.07613 22.3424 2.42388 21.8829 2.66464 21.3692C2.90539 20.8827 2.53089 20.315 2.61114 19.7473C3.03914 17.0171 3.6009 14.368 5.39318 12.1513C5.55369 11.9621 5.68744 11.7729 5.84794 11.6107C6.06194 11.3404 6.54345 11.1511 6.0887 10.6916C5.95494 10.5564 6.03519 10.2591 6.1422 10.0428C6.97146 7.90731 8.14848 6.0421 10.342 5.06894C10.9305 4.79862 11.5458 4.6094 12.1878 4.6094C12.054 3.87954 12.1075 3.71734 12.8031 3.63625C14.1138 3.52812 15.1838 2.93342 16.0934 2.04136C16.3341 1.8251 16.4144 1.87917 16.5481 2.14949C16.6819 2.44684 16.8691 2.74419 17.1901 2.90638C17.0564 2.5009 16.8424 2.14949 16.7621 1.74401C16.6016 0.824919 17.1099 0.365375 17.9926 0.581631C18.4207 0.689759 18.7952 0.851951 19.0627 1.20337C19.2767 1.50072 19.5442 1.52775 19.8384 1.44666C21.3097 1.12227 22.5937 1.71698 23.9045 2.28465C24.172 2.39278 24.3325 2.63606 24.3325 2.93342C24.3058 3.44702 24.6268 3.71734 25.0548 3.82547C25.4293 3.9336 25.8305 4.04173 26.2318 4.09579C26.8738 4.17689 27.4623 4.42018 28.0508 4.6905C28.3718 4.85269 28.7731 4.98785 28.5323 5.50146C28.4788 5.58255 28.5056 5.69068 28.5858 5.74474C29.1208 6.15022 28.9603 6.69086 28.7998 7.17744C28.6928 7.50182 28.2916 7.42073 28.0508 7.58292C27.9438 7.66402 27.8101 7.74511 27.6763 7.79918C27.8101 7.79918 27.9438 7.63698 28.0508 7.79918C28.0776 8.0695 27.9438 8.23169 27.7298 8.31278C26.3923 8.79936 25.1885 9.52923 23.9045 10.1239C23.102 10.5024 22.246 10.5564 21.39 10.4213C21.2562 10.3942 21.0957 10.3402 20.9352 10.4483C21.0154 10.6646 21.5772 10.6375 21.283 11.043C20.9619 11.4755 21.2562 12.3135 20.2932 12.3946C18.9289 12.5027 17.5914 12.8001 16.2271 13.0434C15.8794 13.0975 15.7991 13.0164 15.7189 12.692C15.5316 11.7459 15.2641 10.8268 14.9431 9.90767C14.8896 9.85361 14.8361 9.79955 14.7826 9.77251C14.8361 9.88064 14.7558 10.0158 14.8361 10.1239C14.9966 10.9619 15.1571 11.7999 15.3444 12.6109C15.4514 13.0164 15.3444 13.1245 14.9431 13.1515C13.6056 13.2596 12.3216 13.584 11.1713 14.3139C12.2145 14.0436 13.2043 13.6111 14.2743 13.53C14.3546 13.4759 14.3813 13.53 14.3546 13.6381Z" fill="white"/>
<path d="M31.4218 7.52902C30.6193 6.98838 30.6995 5.9071 31.5823 5.42052C32.1441 5.12317 32.7326 4.98801 33.3478 4.85285C34.0701 4.69066 34.8459 4.66362 35.4076 4.15002C36.2636 3.36609 37.1999 3.36609 38.2432 3.55531C38.8584 3.66344 39.4737 3.77157 40.0889 3.8797C40.1959 3.90673 40.3029 3.93376 40.4099 3.90673C41.5602 3.74454 42.015 4.20408 41.7475 5.44755C41.9347 5.09614 42.0952 5.17723 42.2825 5.28536C43.5398 5.96116 44.583 6.85322 45.4123 8.01559C45.7333 8.47514 46.0275 8.93468 45.9473 9.52939C45.9205 9.71861 46.0008 9.85377 46.1613 9.98893C47.4988 11.2594 48.2746 12.8543 48.4886 14.6925C48.6758 16.2874 48.4351 17.8823 48.4618 19.4501C48.4618 20.3152 48.6491 21.0991 49.1306 21.8019C49.5319 22.3696 49.6389 23.0724 49.6656 23.7482C49.6924 24.7754 49.6924 25.7756 49.6656 26.8028C49.6656 27.1543 49.6389 27.5057 49.3714 27.776C49.2643 27.8841 49.1573 27.9652 49.0236 27.8841C48.8363 27.803 48.9968 27.6679 49.0236 27.5597C49.1841 26.8839 49.3446 26.2352 49.2108 25.3972C48.7561 27.9382 47.6593 30.2359 47.7396 32.7499C47.7396 33.0202 47.7931 33.2905 47.7931 33.5879C47.8198 34.2096 47.5791 34.6962 47.0976 35.0746C46.2683 35.7234 45.5193 36.4262 44.9308 37.3183C44.2888 38.3185 43.4327 39.0754 42.122 38.9132C41.9347 38.8861 41.7207 38.8591 41.5335 38.778C40.1157 38.3185 39.9017 37.7238 40.6775 36.4803C41.1055 35.8045 41.1055 35.8045 41.48 35.8315C39.9552 33.9393 39.1794 31.6956 38.6712 29.3438C38.5374 29.1817 38.5107 28.9924 38.5374 28.8032C38.4839 28.614 38.4037 28.4518 38.4037 28.2355C38.3502 28.1815 38.3234 28.2896 38.3769 28.2355C38.4572 28.4248 38.4304 28.614 38.5107 28.8032C38.5107 28.9384 38.5374 29.0735 38.5374 29.2357C38.4839 29.3168 38.5374 29.506 38.3502 29.452C37.4941 28.6951 36.9591 27.6949 36.5846 26.6406C35.8089 24.4511 35.7821 22.2344 36.4509 20.0178C36.5846 19.5853 36.7719 19.5042 37.1464 19.5853C37.8419 19.7205 38.5642 19.8015 39.2597 19.9097C39.5539 19.9637 39.6877 19.8826 39.7144 19.5583C39.7679 18.9365 40.0622 18.3689 40.3564 17.8012C40.3832 17.7471 40.4099 17.666 40.3832 17.639C40.3564 17.612 40.3029 17.666 40.2494 17.6931C39.8482 18.1256 39.6342 18.6392 39.4737 19.2068C39.3934 19.5042 39.2597 19.6123 38.9387 19.5853C36.1031 19.369 33.5083 18.5851 31.5288 16.3685C31.0473 16.0711 30.753 15.6386 30.5658 15.125C30.1378 14.5573 30.004 13.9626 30.2983 13.2598C30.4855 12.7732 30.5123 12.1785 30.539 11.6109C30.5658 11.2865 30.5925 11.0432 30.9135 10.908C31.2345 10.7729 31.5288 10.7458 31.8231 10.9891C32.9198 11.8271 34.1236 12.5029 35.4344 12.9354C35.6216 12.9895 35.8356 13.0165 36.0229 13.0435C36.9324 13.0976 37.8687 13.2598 38.7782 13.0435C39.0189 12.9895 39.2597 12.9084 39.5004 12.8273C38.4304 13.1787 37.3604 13.3139 36.2369 12.9354C35.9159 12.5299 35.9426 11.9893 35.8089 11.5298C35.7019 11.2054 35.6484 10.881 35.5146 10.5836C35.3541 10.2593 35.1134 10.07 34.7656 9.93487C33.6153 9.50235 32.6256 8.74546 31.5555 8.15075C31.3683 8.04263 31.4218 7.88043 31.4218 7.71824C32.0371 7.69121 32.6256 7.90747 33.2408 7.88043C33.3478 7.88043 33.4281 7.8534 33.5083 7.88043C32.8128 7.82637 32.0371 8.04263 31.4218 7.52902Z" fill="white"/>
<path d="M26.9009 29.8568C27.2487 29.3162 27.5429 28.7485 27.9442 28.2349C28.3722 27.6672 28.6932 27.6672 29.2549 28.0727C30.3785 28.8567 30.9135 29.9109 30.5657 31.3706C30.3517 31.1003 30.1912 30.83 29.9772 30.5867C29.5492 30.0731 29.2549 29.992 28.6397 30.2623C27.7569 30.6408 26.9812 31.2084 26.3392 31.9383C26.0984 32.2086 25.9646 32.2357 25.7506 31.8842C25.2691 31.1273 24.7609 30.3975 24.2259 29.7217C23.9049 29.2892 23.9316 28.7756 23.8514 28.289C23.5036 26.3967 22.8081 24.6667 21.4973 23.261C21.3368 23.0718 21.3368 22.9637 21.4973 22.8015C22.0591 22.1257 22.6476 21.4499 23.2094 20.7741C23.3966 20.5578 23.5839 20.5308 23.8246 20.6389C24.3596 20.8822 24.7876 21.2607 25.0819 21.7472C25.9379 23.0718 26.3124 24.5586 26.5532 26.1264C26.6334 26.613 26.6869 27.1266 26.8207 27.5861C27.0347 28.3701 27.0079 29.127 26.7672 29.8839C26.7939 29.9379 26.7404 29.992 26.7672 30.0461C26.8207 29.965 26.8474 29.9109 26.9009 29.8568Z" fill="#C9D4EB"/>
<path d="M37.333 29.2085C37.761 29.4518 38.1088 29.668 38.4565 29.8573C38.6438 29.9654 38.6438 30.1546 38.6705 30.3438C38.9113 31.6954 39.2323 33.047 39.8743 34.2905C40.0081 34.5608 40.1418 34.8312 40.3558 35.0204C40.8106 35.3988 40.7838 35.7232 40.4361 36.1828C40.1151 36.6153 39.7941 37.1019 39.8476 37.6966C39.8743 37.9128 39.7406 37.8858 39.6068 37.8588C39.1788 37.7777 38.7508 37.6425 38.3763 37.3992C38.0553 37.1829 37.8948 36.8856 38.082 36.5071C38.296 36.1287 38.189 35.534 38.7775 35.3718C38.938 35.3448 38.7775 35.1555 38.724 35.0474C38.0018 33.8039 37.654 32.4253 37.3865 31.0196C37.3063 30.452 37.3598 29.8843 37.333 29.2085Z" fill="#C9D4EB"/>
<path d="M19.4375 24.9103C19.919 24.3967 20.4005 23.9371 20.8553 23.4505C21.096 23.1802 21.2298 23.2073 21.4438 23.4505C22.6208 24.8562 23.3431 26.4511 23.6106 28.2893C23.6373 28.4785 23.6373 28.6677 23.6908 29.0191C22.4335 27.3702 21.0693 25.9916 19.4375 24.9103Z" fill="#FEFEFE"/>
<path d="M31.3944 16.53C32.4911 17.9086 33.8554 18.8277 35.5407 19.2602C35.9687 19.3683 36.1292 19.5035 35.942 19.936C35.8885 20.0441 35.9152 20.2063 35.8617 20.3145C35.7815 20.4767 35.8617 20.7199 35.5942 20.747C35.3534 20.774 35.1394 20.7199 35.0592 20.4767C34.5509 19.2602 33.5344 18.7736 32.3841 18.3952C31.3944 18.0708 30.4046 17.6924 29.7893 16.7462C29.7358 16.6651 29.6823 16.584 29.6288 16.5029C29.0403 15.3406 29.0671 15.5298 29.9231 14.5566C30.0836 14.7999 30.2441 15.0432 30.4046 15.2865C30.8326 15.6379 31.1536 16.0704 31.3944 16.53Z" fill="#C9D3EA"/>
<path d="M24.4658 19.5309C25.7498 18.0441 27.1944 16.7736 28.8529 15.7734C29.1204 16.3681 29.0669 16.8547 28.5854 17.3143C27.7829 18.0712 26.8734 18.6929 25.8301 19.0713C25.4021 19.2065 24.9473 19.3687 24.4658 19.5309Z" fill="#C9D3EA"/>
<path d="M36.2365 12.9893C37.4937 13.1515 38.751 13.1515 39.9815 12.5298C39.5 13.2867 37.36 13.557 36.0225 13.0975C36.1027 13.0434 36.1562 13.0164 36.2365 12.9893Z" fill="#0F428A"/>
<path d="M31.4219 7.52881C31.6091 7.58287 31.8231 7.63693 32.0639 7.66397C32.3046 7.691 32.5454 7.691 32.8129 7.71803C33.2677 7.85319 34.3912 7.52881 34.5784 7.55584C34.3912 7.63693 34.9262 7.74506 34.6854 7.77209C34.4447 7.79912 33.0804 8.09647 32.8129 7.96131C32.5454 7.96131 32.3046 7.93428 32.0639 7.90725C31.8231 7.88022 31.6091 7.82616 31.4219 7.77209C31.4219 7.74506 31.4219 7.74506 31.4219 7.71803C31.4219 7.691 31.4219 7.691 31.4219 7.66397C31.4219 7.63693 31.4219 7.63694 31.4219 7.6099C31.4219 7.58287 31.4219 7.55584 31.4219 7.52881Z" fill="#0F428A"/>
<path d="M31.3947 16.5303C30.9934 16.1789 30.7259 15.7194 30.4316 15.2868C30.4584 15.2598 30.5119 15.2057 30.5386 15.1787C30.8597 15.5842 31.1807 16.0167 31.5017 16.4222C31.4749 16.4763 31.4214 16.5033 31.3947 16.5303Z" fill="#0F428A"/>
<path d="M27.9974 7.74507C27.7567 7.71803 27.5427 7.98836 27.2217 7.88023C27.4624 7.66397 27.7299 7.58287 27.9974 7.52881C27.9974 7.60991 27.9974 7.691 27.9974 7.74507Z" fill="#0F428A"/>
<path d="M14.8091 10.0967C14.6486 9.90747 14.7021 9.69122 14.5684 9.4209C14.8626 9.52903 14.8359 9.74528 14.9161 9.88044C14.8626 9.9345 14.8359 10.0156 14.8091 10.0967Z" fill="#8AA7D5"/>
<path d="M26.9007 29.8569C26.8739 30.0462 26.7937 30.2354 26.6064 30.3976C26.6064 30.1543 26.6599 29.9921 26.7937 29.8569C26.8204 29.8569 26.8739 29.8569 26.9007 29.8569Z" fill="#0F428A"/>
<path d="M40.2227 17.7469C40.3029 17.5847 40.3832 17.4766 40.6774 17.3955C40.5437 17.5847 40.4367 17.7199 40.3564 17.8551C40.2762 17.828 40.2494 17.801 40.2227 17.7469Z" fill="#7B9CD0"/>
<path d="M14.3551 13.6376C14.3283 13.6106 14.2748 13.5565 14.248 13.5295C14.3818 13.3944 14.5423 13.4214 14.7563 13.4754C14.5958 13.5295 14.4888 13.5836 14.3551 13.6376Z" fill="#A3B7DE"/>
<path d="M38.4564 29.2897C38.4564 29.1545 38.4297 28.9924 38.4297 28.8572C38.4564 28.8302 38.5099 28.8302 38.5367 28.8572C38.5634 29.0464 38.5902 29.2356 38.6437 29.3978L38.6169 29.3978L38.5902 29.3978C38.4832 29.4249 38.4832 29.3438 38.4564 29.2897Z" fill="#0F428A"/>
<path d="M38.457 29.2896C38.4837 29.3436 38.5372 29.3706 38.564 29.4247C38.5372 29.5058 38.564 29.641 38.5105 29.668C38.4302 29.7221 38.35 29.641 38.3232 29.5328C38.4302 29.4788 38.4302 29.3706 38.457 29.2896Z" fill="#0F428A"/>
<path d="M11.9469 25.2074C11.8666 25.2344 11.8131 25.2885 11.7329 25.3155C11.6259 25.3696 11.5991 25.3155 11.6259 25.2074C11.7329 25.1534 11.8399 25.1263 11.9469 25.0723C11.9469 25.1263 11.9469 25.1534 11.9469 25.2074Z" fill="#0F428A"/>
<path d="M7.10553 19.4225C7.74754 20.1524 8.33605 20.9363 8.87106 21.7473C9.32582 22.4501 9.29907 23.0989 8.84431 23.8017C8.2558 24.6667 8.28255 24.6937 9.19206 25.2074C9.53982 25.3966 9.91433 25.5588 10.2888 25.721C10.4226 25.775 10.6098 25.8021 10.8238 25.8291C10.3958 26.2346 10.0481 26.6941 9.72707 27.1807C9.40607 27.6673 9.11181 28.1538 8.73731 28.6134C9.03156 27.6402 9.59332 26.8563 10.2888 26.1264C9.72707 25.9643 9.24557 25.8832 8.76406 25.6669C8.4163 25.5047 8.06855 25.3155 7.80104 25.0181C7.34628 24.5856 7.37303 24.4775 7.90804 24.1801C8.73731 23.7206 9.00481 22.9367 8.55005 22.0176C8.2558 21.4229 7.85454 20.8552 7.48004 20.2875C7.31953 20.0442 7.15903 19.801 6.99853 19.5577C6.94503 19.4225 6.99853 19.3955 7.10553 19.4225Z" fill="#0F428A"/>
<path d="M27.4088 7.90721C26.1783 8.39378 24.5465 8.31268 23.3695 7.77205C23.209 7.69095 23.2625 7.60986 23.2893 7.50173C23.316 7.3936 23.3963 7.25844 23.53 7.3936C24.4663 8.31268 26.3388 8.0694 27.4356 7.71798C27.5158 7.71798 27.3286 7.90721 27.4088 7.90721Z" fill="#0F428A"/>
<path d="M18.1803 1.31152C18.0198 1.66294 17.886 1.96029 17.886 2.33874C17.4045 1.77107 17.458 1.60888 18.1803 1.31152Z" fill="#0F428A"/>
<path d="M22.915 3.93362C23.129 3.71736 23.343 3.47407 23.6908 3.5822C23.7175 3.5822 23.7711 3.74439 23.7443 3.77143C23.5035 3.96065 23.2093 3.96065 22.915 3.93362Z" fill="#0F428A"/>
<path d="M36.7718 5.09588C36.5845 4.85259 36.424 4.58226 36.0495 4.6093C36.0228 4.6093 35.9425 4.77149 35.9693 4.79852C36.3438 4.87962 36.4775 5.06884 36.7718 5.09588Z" fill="#0F428A"/>
<path d="M7.10557 19.4227C7.07882 19.4497 7.02532 19.5038 6.99857 19.5308C6.86482 19.4227 6.75781 19.2875 6.75781 19.0713C6.97182 19.0983 7.02532 19.2605 7.10557 19.4227Z" fill="#0F428A"/>
<path d="M11.6256 25.208C11.6523 25.235 11.7058 25.2621 11.7326 25.3161C11.6256 25.4243 11.5186 25.4783 11.3581 25.5054C11.3313 25.2621 11.5186 25.2621 11.6256 25.208Z" fill="#0F428A"/>
<path d="M8.6569 29.2357C8.52315 28.9924 8.5499 28.9113 8.6034 28.8032C8.6034 28.8032 8.68365 28.8032 8.68365 28.8303C8.7639 28.9384 8.6569 28.9924 8.6569 29.2357Z" fill="#0F428A"/>
<path d="M44.6364 11.9619C44.3421 11.4213 44.0746 10.8806 43.4326 10.6374C44.1549 10.367 44.5829 10.7995 44.7434 11.8268C44.7702 11.9619 44.7167 11.989 44.6364 11.9619Z" fill="#0F428A"/>
<path d="M34.3379 7.42027C34.3646 7.23105 34.7124 7.33917 35.0066 7.96092C34.6856 7.85279 34.4984 7.66356 34.3379 7.42027Z" fill="#0F428A"/>
<path d="M23.5838 7.42027C23.5571 7.23105 23.2093 7.33917 22.915 7.96091C23.236 7.85278 23.4233 7.66356 23.5838 7.42027Z" fill="#0F428A"/>
<path d="M40.7842 5.14996C40.7842 4.90667 40.5969 4.77151 40.7039 4.58229C40.7039 4.55525 40.8109 4.55525 40.8377 4.58229C41.0249 4.71745 40.9982 4.87964 40.7842 5.14996Z" fill="#0F428A"/>
<path d="M38.5368 28.8569C38.51 28.8569 38.4565 28.8569 38.4298 28.8569C38.2693 28.6947 38.3495 28.4785 38.403 28.2622C38.4565 28.4785 38.51 28.6677 38.5368 28.8569Z" fill="#0F428A"/>
<path d="M41.7744 36.0746C41.9082 36.0476 42.0152 36.0746 42.1222 36.1557C41.9884 36.2097 41.8547 36.2368 41.7744 36.0746Z" fill="#0F428A"/>
<path d="M44.6357 11.9618C44.6625 11.9078 44.716 11.8807 44.7427 11.8267C44.823 11.9348 44.8765 12.07 44.7962 12.2321C44.6625 12.1781 44.6625 12.07 44.6357 11.9618Z" fill="#0F428A"/>
<path d="M26.3386 30.9653C26.3118 31.1275 26.2583 31.2897 26.0176 31.3708C26.0978 31.1546 26.1246 30.9924 26.3386 30.9653Z" fill="#0F428A"/>
<path d="M26.3654 30.9655C26.3654 30.8304 26.2851 30.6412 26.5259 30.5601C26.5527 30.7493 26.4724 30.8574 26.3654 30.9655C26.3654 30.9655 26.3386 30.9655 26.3654 30.9655Z" fill="#0F428A"/>
<path d="M117.43 11.6878C117.923 9.71313 118.498 7.82074 118.991 5.84607C119.238 4.85874 119.402 3.78913 120.882 4.03596C122.362 4.28279 121.951 5.35241 121.951 6.25746C121.786 10.1245 121.869 13.9916 122.115 17.9409C122.197 19.0105 122.526 20.6561 121.211 20.8207C119.731 20.9029 120.307 19.2574 120.142 18.27C119.978 17.0359 119.896 15.7194 119.731 14.403C118.498 15.0612 119.32 17.365 117.183 17.1181C115.374 16.9536 115.785 15.308 115.292 14.403C114.635 14.5675 114.881 15.0612 114.881 15.3903C114.799 16.5422 114.881 17.7764 114.799 18.9283C114.717 19.6688 114.717 20.6561 113.648 20.7384C112.497 20.7384 112.826 19.751 112.662 19.0928C112.251 17.4473 112.826 15.884 112.826 14.2384C112.826 11.5232 112.826 8.7258 112.826 6.01063C112.662 4.85874 112.908 4.11824 113.895 4.03596C114.881 3.95368 115.21 4.77646 115.292 5.59924C115.539 7.73846 116.279 9.71313 116.936 11.6878C117.183 11.7701 117.265 11.7701 117.43 11.6878Z" fill="#0F428A"/>
<path d="M184.426 12.0168C185.166 10.289 185.905 8.56111 186.645 6.751C186.892 6.25733 187.138 5.76366 187.385 5.26999C187.632 4.8586 188.043 4.61177 188.536 4.69405C189.194 4.77632 189.029 5.35227 189.029 5.76366C189.194 10.2067 189.276 14.6497 189.44 19.0927C189.44 19.9978 189.194 20.8205 188.289 20.8205C187.138 20.8205 187.303 19.8332 187.303 19.0104C187.303 17.0357 187.467 15.1434 186.81 12.8396C185.659 14.8142 185.494 16.8712 184.59 18.6813C184.508 18.9281 184.426 19.175 184.344 19.5041C184.179 20.2446 183.768 20.8205 183.028 20.7383C182.124 20.7383 181.713 19.9155 181.713 19.2573C182.206 14.8142 180.973 10.289 181.96 5.84594C182.124 5.26999 182.124 4.52949 183.028 4.61177C183.85 4.69405 183.933 5.35227 183.933 6.0105C183.933 7.98517 183.933 10.0421 183.933 12.0168C184.097 12.0168 184.261 12.0168 184.426 12.0168Z" fill="#0F428A"/>
<path d="M199.633 9.87761C199.798 12.2637 199.222 14.8966 199.798 17.5295C199.962 18.3522 199.716 19.0927 200.62 19.751C201.277 20.2446 200.949 21.232 200.784 21.9725C200.702 22.3839 199.962 22.4661 199.798 22.2193C198.071 19.8333 195.441 21.9725 193.386 20.9851C192.728 20.656 192.399 20.5738 192.399 19.8333C192.317 15.6371 192.153 11.3586 192.235 7.16244C192.235 6.25738 191.906 4.61182 193.468 4.69409C194.783 4.77637 194.454 6.1751 194.537 7.16244C194.537 10.7004 194.537 14.1561 194.537 17.694C194.537 18.5168 194.865 18.8459 195.687 18.6814C196.921 18.4345 197.989 18.5168 197.743 16.3776C197.249 12.9219 197.578 9.38394 197.496 5.92826C197.496 5.18776 197.743 4.61182 198.647 4.61182C199.551 4.61182 199.716 5.27004 199.716 6.01054C199.633 7.32699 199.633 8.47888 199.633 9.87761Z" fill="#0F428A"/>
<path d="M80.602 12.5104C79.6155 15.0611 79.2867 17.2003 78.8757 19.2572C78.7113 20.1623 78.6291 21.6433 77.3138 21.3142C75.9985 20.9851 76.4096 19.5041 76.6562 18.5167C77.6426 14.7319 78.1358 10.7826 78.8757 6.9978C79.0401 6.09274 78.8757 5.02312 80.2731 4.94084C81.6706 4.85857 81.835 5.8459 81.9994 6.83324C82.5749 11.0294 83.6435 15.1433 84.3011 19.4218C84.3833 20.1623 84.7122 21.1496 83.5613 21.3142C82.3282 21.4787 82.4105 20.4914 82.246 19.6686C81.7528 17.3648 81.1774 15.1433 80.602 12.5104Z" fill="#0F428A"/>
<path d="M158.532 13.6624C158.532 11.1118 158.532 8.64341 158.532 6.0928C158.532 4.77635 159.271 4.03585 160.587 4.36496C161.738 4.61179 162.971 3.87129 163.957 4.85863C164.204 5.10546 164.697 5.10546 164.45 5.59913C164.368 5.84596 164.039 5.92824 163.793 6.01052C163.628 6.0928 163.464 6.0928 163.299 6.0928C160.669 6.42191 160.669 6.42191 160.504 8.97252C160.422 11.194 160.587 11.3586 162.888 11.5231C163.628 11.5231 164.286 11.6877 164.286 12.5105C164.286 13.4155 163.71 13.6624 162.888 13.8269C162.149 13.9915 160.915 13.3333 160.669 14.4029C160.422 15.7193 160.587 17.2003 160.751 18.599C160.751 19.0104 161.327 18.9282 161.738 18.9282C162.56 18.9282 163.382 18.8459 164.286 18.8459C164.943 18.8459 165.354 19.175 165.354 19.9155C165.354 20.4914 165.026 20.9028 164.45 20.9028C162.806 20.9851 161.162 20.9851 159.6 20.9851C158.696 20.9851 158.532 20.2446 158.532 19.5864C158.449 18.599 158.367 17.6117 158.367 16.5421C158.367 15.5548 158.367 14.6497 158.367 13.6624C158.449 13.6624 158.532 13.6624 158.532 13.6624Z" fill="#0F428A"/>
<path d="M68.0246 12.9222C68.0246 10.783 68.0246 8.64375 68.0246 6.50452C68.0246 4.69441 68.6 4.11846 70.4085 4.36529C71.395 4.44757 72.5458 3.9539 73.4501 4.77668C73.6967 4.94124 74.1077 5.1058 74.0255 5.51719C73.9433 5.92858 73.6145 6.01085 73.2857 6.01085C73.039 6.01085 72.8746 6.09313 72.628 6.09313C70.1619 6.33997 70.1619 6.33997 70.1619 8.72603C70.1619 11.2766 70.1619 11.3589 72.7102 11.4412C73.4501 11.4412 73.9433 11.688 74.0255 12.4285C74.1077 13.169 73.6145 13.6627 72.7924 13.745C72.4636 13.745 72.1348 13.8273 71.806 13.8273C70.2441 13.6627 69.9153 14.5678 70.3263 15.8019C70.7373 16.7893 69.7509 18.188 70.7373 18.7639C71.4772 19.1753 72.7102 18.8462 73.6967 18.8462C74.4365 18.8462 75.0119 19.0931 75.0119 19.8336C75.0119 20.6563 74.4365 20.9855 73.6145 20.9855C72.8746 20.9855 72.1348 20.9855 71.395 20.9855C67.9424 21.0677 68.0246 21.4791 67.9424 17.6943C68.0246 16.131 68.0246 14.5678 68.0246 12.9222Z" fill="#0F428A"/>
<path d="M125.156 9.96018C125.156 8.47918 125.074 7.32729 125.156 6.25767C125.239 4.94122 125.814 4.03617 127.294 4.36528C128.362 4.52983 129.513 4.03617 130.417 4.69439C130.664 4.85895 131.239 5.0235 131.157 5.51717C131.075 6.01084 130.664 6.01084 130.253 6.09312C130.171 6.09312 130.006 6.09312 129.924 6.09312C127.211 6.42223 127.211 6.42223 127.211 9.21968C127.211 11.3589 127.294 11.4412 129.513 11.4412C130.335 11.4412 130.993 11.5235 130.993 12.5931C130.993 13.4159 130.417 13.6627 129.678 13.8272C127.294 14.1564 127.294 14.1564 127.54 16.5424C127.54 16.7893 127.54 17.1184 127.458 17.3652C127.129 18.6817 127.622 19.093 128.938 18.9285C129.678 18.8462 130.417 18.8462 131.157 18.9285C131.733 18.9285 132.144 19.3399 132.226 19.8335C132.226 20.4095 131.897 20.9032 131.239 20.9854C129.595 21.0677 127.951 21.0677 126.389 21.0677C125.239 20.9854 125.321 20.0804 125.321 19.2576C125.156 16.0488 124.828 12.8399 125.156 9.96018Z" fill="#0F428A"/>
<path fill-rule="evenodd" clip-rule="evenodd" d="M177.169 14.2852C177.084 12.4425 176.996 10.5542 177.274 8.56151C177.192 8.47923 177.192 8.06784 177.356 7.73873L177.353 7.70769C176.945 4.52936 176.935 4.44868 173.74 4.77672C171.849 4.94128 170.698 6.01089 170.451 8.06784C170.128 10.2775 169.876 12.5225 169.624 14.7565C169.492 15.9331 169.36 17.1066 169.218 18.2703C169.206 18.3968 169.199 18.5213 169.192 18.6429C169.156 19.3129 169.124 19.8968 168.15 20.245C167.41 20.4918 167.328 21.5614 167.656 22.3019C167.903 22.8779 168.889 22.7956 169.136 22.4665C169.909 21.4816 170.863 21.5794 171.842 21.6799C172.008 21.6969 172.175 21.7141 172.342 21.726C172.763 21.7471 173.196 21.7195 173.63 21.6918C174.892 21.6114 176.174 21.5296 177.274 22.6311C177.521 22.9602 178.425 22.8779 178.672 22.2197C178.918 21.5614 179.001 20.4918 178.179 20.3273C177.016 20.0171 177.096 19.3414 177.177 18.6447C177.182 18.6022 177.187 18.5597 177.192 18.5172C177.3 17.1156 177.235 15.7141 177.169 14.2852ZM174.79 15.7258C174.799 15.1773 174.808 14.6257 174.808 14.0741H174.89C174.89 13.5225 174.899 12.9802 174.909 12.4409C174.927 11.3713 174.945 10.3137 174.89 9.21973C174.877 9.08851 174.87 8.95101 174.863 8.81224C174.827 8.08089 174.789 7.31422 173.822 7.24506C172.953 7.17821 172.79 7.81747 172.628 8.45673C172.59 8.60425 172.553 8.75178 172.506 8.89062C171.921 10.6931 171.903 12.5696 171.885 14.4526C171.87 16.0077 171.854 17.5672 171.52 19.0931C171.346 20.0781 172.069 20.0022 172.771 19.9286C173.065 19.8977 173.356 19.8672 173.575 19.9159C174.233 20.0804 174.89 19.9981 174.808 18.9285C174.753 17.8893 174.771 16.8136 174.79 15.7258Z" fill="#0F428A"/>
<path fill-rule="evenodd" clip-rule="evenodd" d="M143.755 14.006C143.668 12.02 143.584 10.0877 143.817 8.31432C143.689 6.25612 143.627 5.27055 143.109 4.85684C142.633 4.4767 141.771 4.57937 140.118 4.77636C138.556 4.94092 137.323 6.09281 137.077 7.65609C136.583 11.2763 136.172 14.8965 135.761 18.5167L135.761 18.5168C135.756 18.5651 135.751 18.6126 135.746 18.6595C135.675 19.3313 135.62 19.8547 134.775 20.1623C134.035 20.4092 133.871 21.4788 134.282 22.2193C134.693 22.8775 135.35 22.713 135.926 22.3839C137.652 21.3142 141.927 21.3142 143.488 22.3839C144.146 22.7952 144.886 22.8775 145.297 22.2193C145.708 21.4788 145.708 20.4915 144.804 20.2446C143.735 19.9155 143.735 19.3396 143.817 18.5991C143.888 17.0679 143.821 15.5213 143.755 14.006ZM141.434 18.9282C141.434 16.2131 141.434 13.5802 141.68 10.865C141.728 10.3409 141.665 9.84448 141.604 9.35963C141.56 9.00712 141.516 8.66074 141.516 8.31437C141.434 7.73843 141.352 7.24476 140.612 7.16248C139.954 7.0802 139.625 7.49159 139.461 7.98526L139.461 7.98527C139.132 8.9726 138.803 9.95994 138.721 11.0295C138.669 11.8417 138.675 12.6455 138.681 13.4436C138.693 15.1521 138.706 16.8345 138.146 18.5168C137.899 19.5042 138.228 19.9979 139.214 19.8333C139.443 19.8104 139.717 19.8768 139.992 19.9437C140.706 20.117 141.434 20.2937 141.434 18.9282Z" fill="#0F428A"/>
<path fill-rule="evenodd" clip-rule="evenodd" d="M151.545 20.985C148.585 20.985 148.421 20.985 148.421 18.023C148.421 16.7096 148.375 15.3871 148.33 14.0615C148.238 11.4012 148.147 8.7286 148.421 6.09267C148.585 4.36484 148.996 3.95345 150.723 4.03572H150.887C155.49 4.36484 155.737 4.77623 155.408 9.38379C155.285 11.2993 155.3 13.2612 155.316 15.1998C155.321 15.8426 155.326 16.4828 155.326 17.1179C155.244 20.4913 154.833 20.9027 151.545 20.985ZM153.188 16.2952C153.12 16.4764 153.14 16.7322 153.161 17.008C153.215 17.7345 153.28 18.599 151.791 18.599C150.491 18.599 150.558 17.7448 150.617 16.9839C150.628 16.8302 150.64 16.6803 150.64 16.5421C150.64 16.3822 150.629 16.2093 150.618 16.0316C150.561 15.1117 150.495 14.0604 151.873 13.9914C153.353 13.8269 153.271 15.061 153.188 16.2952ZM153.245 9.53587C153.239 9.22125 153.232 8.8889 153.271 8.56107V7.57373C153.271 6.91551 152.86 6.75095 152.284 6.75095C152.178 6.76877 152.059 6.77501 151.938 6.78138C151.501 6.8044 151.033 6.82907 150.969 7.40917C150.887 8.56107 150.887 9.71296 150.969 10.8649C150.969 11.2762 151.38 11.2762 151.709 11.2762C153.282 11.4022 153.266 10.5636 153.245 9.53587Z" fill="#0F428A"/>
<path fill-rule="evenodd" clip-rule="evenodd" d="M203.126 18.5972C203.058 18.8738 202.989 19.1489 202.921 19.4217C202.839 20.1622 203.086 20.7382 203.826 20.8204C204.483 20.985 204.976 20.5736 205.223 20.0799C205.47 19.6685 205.552 19.1749 205.634 18.6812C205.716 17.3648 206.538 16.8711 207.771 16.7888C209.333 16.7888 210.237 17.3648 210.402 19.0926C210.484 19.8331 210.648 21.2318 212.046 20.8204C213.197 20.4913 213.115 19.5863 212.786 18.5167C212.21 16.4186 211.697 14.3205 211.183 12.2224C210.669 10.1243 210.155 8.02621 209.58 5.92812C209.561 5.8598 209.543 5.79054 209.525 5.72091C209.301 4.86814 209.063 3.95965 207.771 4.03572C206.456 4.118 206.127 4.94078 205.881 6.01039C205.601 7.20056 205.41 8.40563 205.22 9.60658C204.964 11.2284 204.709 12.8427 204.237 14.4028C203.825 15.7755 203.471 17.2055 203.126 18.5972ZM208.46 12.0271C208.264 11.4409 208.059 10.8238 207.853 10.1245C207.745 10.4502 207.642 10.753 207.545 11.0389C207.274 11.8364 207.048 12.5025 206.867 13.1687C206.702 13.6624 206.867 14.0738 207.278 14.3206C207.689 14.5675 208.182 14.5675 208.593 14.4852C209.086 14.4029 209.086 14.0738 209.004 13.7447C208.84 13.1687 208.655 12.6134 208.46 12.0271Z" fill="#0F428A"/>
<path fill-rule="evenodd" clip-rule="evenodd" d="M86.6594 17.1248C86.4569 17.8584 86.265 18.5533 86.1097 19.1749C85.9453 20.1622 86.2741 20.5736 86.8496 20.7382C87.5072 21.0673 87.9182 20.5736 88.247 20.1622C88.5758 19.7508 88.7402 19.2572 88.7402 18.7635C88.8224 17.2825 89.8089 16.7888 91.1242 16.7888C92.6038 16.7888 93.3437 17.2825 93.5081 18.928C93.5081 19.7508 93.7547 21.2318 95.2343 20.8204C96.3679 20.4963 96.1457 19.5335 95.9031 18.4825C95.8994 18.4665 95.8957 18.4504 95.892 18.4344C95.5358 17.0356 95.1887 15.6369 94.8416 14.2382C94.1474 11.4407 93.4533 8.64328 92.686 5.84584C92.6739 5.80536 92.6618 5.76428 92.6495 5.72277C92.4126 4.92059 92.1281 3.95749 90.8775 4.03572C89.4801 4.118 89.2335 5.02306 89.0691 6.0104C88.8914 6.89949 88.7216 7.78074 88.5523 8.65899C88.1734 10.6254 87.7974 12.5767 87.3428 14.5673C87.1258 15.4359 86.8859 16.3046 86.6594 17.1248ZM91.4256 11.4278C91.2767 11.0265 91.1183 10.5999 90.96 10.1245C90.835 10.4999 90.7175 10.8373 90.6077 11.1528C90.3565 11.8745 90.1451 12.4818 89.9735 13.1687C89.8091 13.6624 89.9735 14.1561 90.4668 14.4029C90.96 14.6497 91.5354 14.732 91.9465 14.4852C92.3817 14.2363 92.2526 13.8932 92.1283 13.5628C92.0882 13.4564 92.0487 13.3513 92.0287 13.251C91.877 12.644 91.6633 12.0681 91.4256 11.4278Z" fill="#0F428A"/>
<path fill-rule="evenodd" clip-rule="evenodd" d="M60.9435 20.9674C61.0893 20.9763 61.2322 20.9851 61.3663 20.9851C61.5307 20.9439 61.6951 20.9439 61.8698 20.9439C62.0444 20.9439 62.2294 20.9439 62.4349 20.9028C65.0654 20.8205 65.4765 20.4091 65.3942 17.6939C65.3548 16.9827 65.2963 16.2714 65.2371 15.5511C65.1731 14.7714 65.1082 13.9812 65.0654 13.1686C64.9832 11.5231 64.079 10.618 62.5171 10.7003C60.7086 10.8649 60.5442 10.0421 60.5442 8.56107C60.5442 6.91551 60.873 6.01045 62.7637 6.33956C62.931 6.39536 63.136 6.37548 63.3276 6.3569C63.4185 6.34808 63.5064 6.33956 63.5858 6.33956C64.4078 6.33956 64.4078 5.76361 64.4078 5.18767C64.49 4.44717 64.1612 4.11805 63.4214 4.20033C62.9281 4.23324 62.4349 4.23982 61.9417 4.24641C61.2019 4.25628 60.462 4.26615 59.7222 4.36489C58.4891 4.52944 57.7493 5.18767 58.0781 6.5864C58.1603 6.91551 58.2425 7.24462 58.2425 7.57373C58.2425 8.97994 58.1991 10.3861 58.1556 11.7924C58.0795 14.2532 58.0034 16.7141 58.1603 19.1749C58.2425 20.5737 58.6536 21.1496 60.051 20.9851C60.3279 20.9296 60.6422 20.9489 60.9435 20.9674ZM60.3622 15.5431C60.3712 15.6891 60.3799 15.832 60.3799 15.9662C60.3388 16.2542 60.3388 16.5422 60.3388 16.8302C60.3388 17.1181 60.3388 17.4061 60.2977 17.6941C60.2155 18.5991 60.6265 18.846 61.4486 18.846C62.6817 18.9282 63.2571 18.3523 63.1749 17.2004C63.168 17.1245 63.1611 17.0491 63.1542 16.9742C63.0795 16.1573 63.0105 15.4035 63.0105 14.6498C63.0105 13.4242 62.0842 13.3396 61.293 13.2674C61.2344 13.262 61.1765 13.2568 61.1198 13.2511C60.2159 13.1305 60.2838 13.6287 60.3521 14.1303C60.3769 14.3129 60.4019 14.496 60.3799 14.6498C60.3245 14.927 60.3438 15.2415 60.3622 15.5431Z" fill="#0F428A"/>
<path fill-rule="evenodd" clip-rule="evenodd" d="M105.345 19.5864V13.1687V13.1686C105.345 11.2763 105.345 9.3839 105.263 7.49154C105.263 5.0232 104.852 4.61181 102.304 4.69409C101.811 4.69409 101.235 4.69409 100.66 4.77637C99.8377 4.94093 99.0156 5.35232 98.9334 6.33965C98.883 6.84421 98.8051 7.3522 98.7271 7.86082C98.4236 9.84042 98.1186 11.8295 99.4266 13.6624C99.6387 14.0162 99.5468 14.4308 99.4647 14.8016C99.4513 14.862 99.4382 14.9212 99.4266 14.9788C99.3408 15.3655 99.2605 15.7578 99.1801 16.1513C98.9522 17.2649 98.7224 18.3883 98.358 19.4219C98.0292 20.4092 98.2758 21.0674 99.2622 21.3142C100.232 21.5569 100.407 20.7658 100.569 20.0355C100.572 20.0229 100.575 20.0103 100.577 19.9978L100.578 19.9978C100.906 18.3522 101.235 16.7067 101.646 15.0611C101.811 14.4852 102.139 13.7447 102.879 13.9092C103.505 14.0484 103.484 14.5409 103.462 15.0379C103.459 15.1285 103.455 15.2192 103.455 15.308C103.414 16.0073 103.393 16.7067 103.372 17.406C103.352 18.1054 103.331 18.8048 103.29 19.5041C103.208 20.3269 103.29 21.232 104.359 21.232C105.345 21.232 105.345 20.3269 105.345 19.5864ZM100.508 8.67138C100.509 8.90389 100.509 9.14389 100.495 9.38388V10.3712C100.659 11.4408 102.057 12.3459 102.714 11.6877C103.532 10.9238 103.338 10.0151 103.138 9.0817C103.036 8.60763 102.933 8.12717 102.961 7.65605C102.961 7.0801 102.797 6.75099 102.139 6.66871C100.505 6.60055 100.506 7.54877 100.508 8.67138Z" fill="#0F428A"/>
<path d="M148.96 33.0951C148.96 34.2212 148.96 35.2348 148.96 36.3609C148.96 36.8114 148.96 37.3745 148.288 37.3745C147.727 37.3745 147.615 36.924 147.615 36.3609C147.615 35.7978 147.615 35.1222 147.615 34.5591C147.727 33.5455 147.055 33.4329 146.271 33.5455C145.487 33.5455 144.814 33.3203 144.702 34.5591C144.59 35.46 145.374 37.2618 144.142 37.2618C142.797 37.1492 143.582 35.3474 143.47 34.3338C143.358 32.7572 143.47 31.2932 143.47 29.7166C143.47 29.1535 143.694 28.8157 144.254 28.9283C144.814 29.0409 144.702 29.3788 144.814 29.8292C144.926 30.6175 144.366 31.6311 145.262 32.1942C146.271 32.9825 147.503 32.0815 147.727 30.5049C147.727 29.9419 147.391 28.9283 148.512 28.9283C149.408 29.0409 148.96 29.9419 149.072 30.3923C148.96 31.2932 148.96 32.1942 148.96 33.0951Z" fill="#0F428A"/>
<path d="M98.6514 33.0951C98.6514 34.2212 98.6514 35.2348 98.6514 36.3609C98.6514 36.8114 98.6514 37.3745 97.9791 37.3745C97.4189 37.3745 97.3068 36.924 97.3068 36.3609C97.3068 35.7978 97.3068 35.1222 97.3068 34.5591C97.4189 33.5455 96.7466 33.4329 95.9623 33.5455C95.178 33.5455 94.5057 33.3203 94.3937 34.5591C94.2816 35.46 95.0659 37.2618 93.8334 37.2618C92.4889 37.1492 93.2732 35.3474 93.1612 34.3338C93.0491 32.7572 93.1612 31.2932 93.1612 29.7166C93.1612 29.1535 93.3852 28.8157 93.9455 28.9283C94.5057 29.0409 94.3937 29.3788 94.5057 29.8292C94.6177 30.6175 94.0575 31.6311 94.9539 32.1942C95.9623 32.9825 97.1948 32.0815 97.4189 30.5049C97.4189 29.9419 97.0828 28.9283 98.2032 28.9283C99.0996 29.0409 98.6514 29.9419 98.7634 30.3923C98.6514 31.2932 98.6514 32.1942 98.6514 33.0951Z" fill="#0F428A"/>
<path d="M72.9927 33.0947C72.9927 34.2208 72.9927 35.2343 72.9927 36.3605C72.9927 36.8109 72.8807 37.374 72.3205 37.374C71.6482 37.374 71.6482 36.8109 71.7603 36.3605C72.0964 34.3334 71.6482 33.2073 69.1832 33.4325C67.9507 33.4325 66.9423 29.7162 67.8387 28.9279C68.2869 28.5901 68.8471 28.4774 68.9591 29.3784C69.0712 29.9414 69.0712 30.5045 69.0712 31.1802C69.1832 32.1937 69.8555 32.419 70.6398 32.419C71.6482 32.419 71.7603 31.8559 71.6482 31.0676C71.6482 30.6171 71.6482 30.1667 71.6482 29.7162C71.6482 29.3784 71.6482 28.9279 72.0964 28.8153C72.6566 28.7027 72.8807 29.1531 72.8807 29.7162C72.9927 30.7297 72.9927 31.8559 72.9927 33.0947Z" fill="#0F428A"/>
<path d="M153.778 33.5451C153.33 32.419 155.01 30.0541 151.985 30.0541C151.649 30.0541 151.537 29.7162 151.537 29.3784C151.649 28.9279 151.873 28.9279 152.209 28.9279C153.218 28.9279 154.226 28.8153 155.235 28.9279C155.907 28.9279 156.803 28.4775 157.027 29.2658C157.363 30.3919 156.131 29.9415 155.683 30.1667C155.01 30.3919 155.123 31.0676 155.123 31.5181C155.123 33.0947 155.123 34.5587 155.123 36.1353C155.123 36.6983 155.123 37.374 154.45 37.374C153.666 37.4866 153.778 36.6983 153.778 36.2479C153.778 35.347 153.778 34.5587 153.778 33.5451Z" fill="#0F428A"/>
<path d="M109.072 33.095C109.072 34.2211 109.072 35.2347 109.072 36.3608C109.072 36.8113 109.072 37.3743 108.399 37.3743C107.839 37.3743 107.727 36.9239 107.727 36.3608C107.727 35.7977 107.727 35.122 107.727 34.559C107.839 33.5454 107.615 31.9688 107.727 30.5048C107.727 29.9418 107.391 28.9282 108.511 28.9282C109.408 29.0408 108.959 29.9418 109.072 30.3922C109.072 31.2931 109.072 32.1941 109.072 33.095Z" fill="#0F428A"/>
<path d="M101.564 36.0229C101.564 36.3608 101.676 37.0365 101.789 37.0365C103.133 37.2617 104.702 37.8248 105.822 36.8112C106.494 36.1355 107.055 34.6716 106.494 33.5454C105.71 31.9688 104.702 32.194 103.469 31.9688C102.237 31.7436 103.133 30.2796 102.909 29.3787C102.797 28.9282 102.573 28.5904 102.125 28.703C101.676 28.703 101.564 29.1534 101.564 29.4913C101.564 30.6174 101.564 31.631 101.564 32.7571C101.564 33.7706 101.564 34.8968 101.564 36.0229ZM103.917 33.4328C104.814 33.3202 105.374 33.658 105.374 34.6716C105.374 35.5725 104.814 35.7977 104.029 35.9103C103.133 36.0229 102.797 35.5725 102.797 34.6716C102.909 33.9959 102.909 33.3202 103.917 33.4328Z" fill="#0F428A"/>
<path d="M139.884 34.4464C139.324 34.2212 138.987 34.559 138.875 35.0095C138.651 36.023 138.091 36.5861 137.083 36.1356C136.186 35.7978 136.298 34.8969 136.298 34.2212C136.41 32.8698 137.419 33.6581 138.091 33.5455C138.763 33.3203 139.884 33.996 140.108 33.095C140.444 31.9689 140.108 30.6175 139.436 29.604C138.875 28.703 137.979 28.5904 136.971 28.8157C135.85 28.9283 135.29 29.8292 134.954 30.8427C134.73 31.5184 134.73 32.3067 134.73 32.8698C134.73 34.2212 134.618 35.4599 135.29 36.4735C135.85 37.5996 136.859 37.9375 137.979 37.7122C139.099 37.5996 139.772 36.9239 139.996 35.7978C140.108 35.2347 140.444 34.7843 139.884 34.4464ZM137.643 29.8292C138.427 29.8292 138.651 30.6175 138.763 31.068C138.875 32.1941 138.315 32.1941 137.643 32.1941C137.083 32.1941 136.298 32.3067 136.41 31.2932C136.41 30.5049 136.634 29.8292 137.643 29.8292Z" fill="#0F428A"/>
<path d="M80.4995 34.3334C79.9393 34.1082 79.6032 34.446 79.4911 34.8965C79.267 35.7974 78.8188 36.3604 77.8104 35.91C76.9141 35.6848 76.9141 34.7839 77.0261 34.1082C77.1381 32.8694 78.1466 33.5451 78.7068 33.4325C79.3791 33.2073 80.4995 33.8829 80.7236 32.982C80.9477 31.8559 80.7236 30.6171 80.0513 29.6036C79.4911 28.8153 78.5947 28.7027 77.6984 28.8153C76.5779 28.9279 76.0177 29.8288 75.7936 30.7297C75.5695 31.4054 75.6815 32.1937 75.5695 32.6442C75.5695 33.9956 75.4575 35.1217 76.1297 36.1352C76.69 37.1487 77.5863 37.4866 78.7068 37.374C79.7152 37.2614 80.3875 36.5857 80.6116 35.5721C80.7236 35.1217 80.9477 34.6712 80.4995 34.3334ZM78.2586 29.8288C79.0429 29.8288 79.267 30.6171 79.267 31.0676C79.3791 32.1937 78.8188 32.1937 78.1466 32.1937C77.5863 32.1937 76.9141 32.3063 76.9141 31.4054C77.0261 30.6171 77.3622 29.8288 78.2586 29.8288Z" fill="#0F428A"/>
<path d="M159.94 37.1488C159.94 36.5857 159.94 35.4595 159.94 34.8965C159.94 33.8829 160.165 33.6577 160.501 33.6577C160.837 33.6577 161.285 33.8829 161.285 34.8965C161.285 36.3605 161.173 37.7118 161.285 39.2884C161.285 39.7389 161.285 40.1894 160.613 40.1894C159.94 40.1894 159.94 39.7389 159.94 39.2884C159.94 38.3875 160.052 38.0497 159.94 37.1488Z" fill="#0F428A"/>
<path d="M161.285 33.32C161.173 32.757 160.389 32.3065 160.164 33.0948C159.828 34.2209 160.164 35.4597 160.837 36.4732C161.397 37.2615 162.293 37.3742 163.302 37.2615C164.422 37.1489 164.982 36.248 165.319 35.3471C165.431 34.6714 165.431 33.9957 165.431 33.4326C165.431 32.0813 165.543 30.9551 164.87 29.9416C164.31 28.9281 163.302 28.5902 162.181 28.7028C161.061 28.8154 160.389 29.4911 160.164 30.5047C160.052 30.9551 159.828 31.4056 160.389 31.6308C160.949 31.856 161.285 31.5182 161.397 31.0677C161.621 30.1668 162.181 29.6037 163.19 30.0542C164.086 30.392 164.086 31.7434 164.086 32.0813C164.086 32.4191 164.086 33.6579 163.974 34.5588C163.974 35.3471 163.638 36.1354 162.629 36.1354C161.845 36.1354 161.509 35.6849 161.397 35.0092C161.285 34.3336 161.285 33.32 161.285 33.32Z" fill="#0F428A"/>
<path d="M159.94 31.9683C159.828 32.1936 159.94 32.5314 159.94 32.8693C159.94 33.7702 159.94 34.5585 159.94 35.4594C160.052 36.473 159.94 36.9234 160.612 37.036C161.173 37.1487 161.285 35.6847 161.285 35.2342C161.285 34.5585 161.285 31.2927 161.285 30.3917C161.285 29.2656 160.612 28.1394 160.052 28.7025C159.38 29.6034 160.388 30.7296 159.94 31.9683Z" fill="#0F428A"/>
<path d="M89.7993 31.1803C89.5752 29.6037 88.6789 28.5901 87.1103 28.5901C85.5417 28.4775 84.5333 29.2658 84.0851 30.9551C83.6369 32.5317 83.749 34.1083 84.1972 35.6849C84.6453 36.9236 85.6537 37.5993 86.9982 37.4867C88.4548 37.4867 89.3511 36.6984 89.6873 35.4596C89.9114 34.6713 89.9114 33.7704 90.0234 32.9821C90.0234 32.419 89.9114 31.7434 89.7993 31.1803ZM88.4548 35.347C88.1187 35.9101 87.6705 36.2479 86.9982 36.2479C86.326 36.2479 85.8778 35.9101 85.6537 35.347C85.2055 33.9956 85.0935 32.6443 85.5417 31.2929C85.7658 30.392 86.1019 29.6037 87.2223 29.7163C88.1187 29.8289 88.6789 30.5046 88.7909 31.2929C88.7909 31.856 89.1271 32.3064 89.1271 32.8695C89.1271 33.0947 89.1271 33.4326 89.1271 33.5452C88.903 34.2209 88.6789 34.7839 88.4548 35.347Z" fill="#0F428A"/>
<path d="M90.024 32.8696C90.136 35.2345 88.3433 38.8381 85.43 37.0363C82.853 35.4597 83.5252 30.392 84.1975 27.9145C84.6457 26.3379 85.5421 25.7748 87.2228 25.3244C87.8951 25.2118 90.9204 24.3108 89.6878 26.1127C89.0155 27.0136 87.1107 26.5631 86.2144 27.2388C85.2059 27.9145 85.2059 28.928 85.0939 30.0542C85.9903 28.8154 87.3348 28.0271 88.6794 29.0407C89.6878 29.9416 90.024 31.5182 90.024 32.8696ZM88.9035 32.9822C88.9035 31.856 88.6794 29.9416 87.2228 29.9416C85.2059 29.9416 84.9819 32.0812 85.0939 33.5452C85.2059 34.6714 85.43 36.3606 86.9987 36.248C88.4553 36.1354 88.9035 34.2209 88.9035 32.9822Z" fill="#0F428A"/>
<path d="M131.817 31.5183C131.929 32.757 131.481 34.1084 131.929 35.4598C132.041 35.9102 131.929 36.2481 132.489 36.5859C132.938 36.8112 132.713 37.3742 132.601 37.7121C132.601 37.9373 132.041 37.9373 131.929 37.8247C130.809 36.5859 128.456 37.5995 127.111 37.149C126.663 37.0364 126.439 36.3607 126.439 36.0228C126.439 33.8832 126.327 32.3066 126.327 30.1669C126.327 29.7164 126.103 28.8155 127.111 28.9281C128.008 28.9281 127.783 29.7164 127.783 30.1669C127.671 32.1939 127.783 33.7705 127.783 35.5724C127.783 36.0228 128.008 36.1355 128.456 36.1355C129.24 36.0228 130.697 36.1355 130.473 35.0093C130.136 33.2075 130.361 31.4056 130.361 29.6038C130.361 29.1533 130.473 28.9281 131.033 28.9281C131.593 28.9281 131.705 29.266 131.705 29.6038C131.817 30.1669 131.817 30.8426 131.817 31.5183Z" fill="#0F428A"/>
<path d="M113.554 34.4466C114.226 32.87 114.898 31.406 115.571 29.8294C115.795 29.2664 116.131 28.8159 116.915 28.9285C117.924 29.0411 117.587 29.8294 117.587 30.3925C117.587 32.4196 117.587 34.4466 117.587 36.3611C117.587 36.9242 117.587 37.5999 116.803 37.4872C116.131 37.3746 116.355 36.8116 116.355 36.3611C116.355 35.0097 116.355 33.5457 116.355 31.8565C115.122 33.2079 114.786 34.7845 114.114 36.1359C113.778 36.8116 113.554 37.7125 112.545 37.4872C111.537 37.262 111.873 36.3611 111.873 35.798C111.873 33.8836 111.873 31.9691 111.873 30.0547C111.873 29.4916 111.873 28.9285 112.657 29.0411C113.33 29.1537 113.218 29.6042 113.218 30.0547C113.218 31.5186 113.218 32.9826 113.218 34.4466C113.33 34.334 113.442 34.334 113.554 34.4466Z" fill="#0F428A"/>
<path d="M115.458 27.1266C115.57 27.014 115.682 26.9014 115.794 26.9014C116.018 26.9014 116.242 27.014 116.018 27.4644C115.906 28.1401 115.458 28.3654 114.898 28.3654C114.449 28.3654 113.889 28.2527 113.665 27.6897C113.553 27.2392 113.665 26.9014 113.889 26.9014C114.113 26.9014 114.337 27.014 114.337 27.1266C114.449 27.3518 114.561 27.5771 114.898 27.5771C115.122 27.5771 115.346 27.3518 115.458 27.1266Z" fill="#0F428A"/>
<path d="M62.4604 36.924C62.1242 37.9375 61.6761 38.9511 61.3399 39.9646C61.2279 40.415 61.0038 40.9781 60.4436 40.6403C59.9954 40.415 59.9954 39.9646 60.2195 39.5141C60.4436 38.9511 60.6676 38.388 60.8917 37.8249C61.2279 36.8114 61.564 35.3474 62.2363 33.8834C62.4604 33.3203 62.9086 32.532 63.4688 32.7572C63.917 32.9824 63.5808 33.7707 63.4688 34.3338C63.2447 35.2347 62.7965 36.0231 62.4604 36.924Z" fill="#0F428A"/>
<path d="M64.4774 31.7438C63.9172 33.3204 63.2449 34.7844 62.6847 36.361C62.4606 37.0367 62.2365 37.4872 61.6763 37.4872C60.892 37.3746 61.2281 37.0367 61.2281 36.4736C61.004 34.5592 59.6595 32.1943 59.2113 30.1672C58.9872 29.6041 58.7631 28.7032 59.5474 28.7032C60.2197 28.7032 60.3317 29.3789 60.4438 29.8294C60.7799 31.0681 61.3402 32.87 61.9004 34.5592C63.0208 33.0952 63.1329 31.5186 63.6931 30.0546C63.9172 29.3789 64.0293 28.5906 65.1497 28.7032C66.1581 28.7032 64.5895 31.406 64.4774 31.7438Z" fill="#0F428A"/>
<path d="M62.3486 33.8838C62.5727 33.3207 63.0209 32.3072 63.469 32.645C63.8052 32.8703 63.5811 33.6586 63.469 34.2216" fill="#0F428A"/>
</svg>
