<svg width="60" height="68" viewBox="0 0 60 68" xmlns="http://www.w3.org/2000/svg" xmlns:xlink="http://www.w3.org/1999/xlink">
<defs><path d="M23.51 51.523a.5.5 0 0 1-.5.477c-.29 0-.51-.21-.52-.477-.145-3.168-1.756-5.217-4.832-6.147C7.53 42.968 0 33.863 0 23 0 10.297 10.297 0 23 0s23 10.297 23 23c0 10.863-7.53 19.968-17.658 22.376-3.076.93-4.687 2.98-4.83 6.147z"
id="ae96eeecd750ec2a83543f00c9bc789d__b">
</path><filter x="-21.7%" y="-15.4%" width="143.5%" height="138.5%" filterUnits="objectBoundingBox" id="ae96eeecd750ec2a83543f00c9bc789d__a">
<feGaussianBlur in="SourceGraphic" stdDeviation="3"></feGaussianBlur><feOffset dy="2"></feOffset><feComponentTransfer><feFuncA type="linear" slope=".3"></feFuncA></feComponentTransfer></filter></defs>
<g fill="none" fill-rule="evenodd"><g fill-rule="nonzero" transform="translate(7 5)" fill="#f33">
<use filter="url(#ae96eeecd750ec2a83543f00c9bc789d__a)" xlink:href="#ae96eeecd750ec2a83543f00c9bc789d__b"></use>
<use xlink:href="#ae96eeecd750ec2a83543f00c9bc789d__b"></use></g><path d="M30 68c-2.21 0-4-1.79-4-4s1.79-4 4-4 4 1.79 4 4-1.79 4-4 4z" fill="#fff" fill-rule="nonzero"></path>
<path d="M30 66a2 2 0 1 0 .001-3.999A2 2 0 0 0 30 66z" fill="#f33"></path></g>
<svg x="18" y="17" width="24" height="24" viewBox="0 0 24 24" xmlns="http://www.w3.org/2000/svg">
<path d="M13.773 2.223c.077-.073.152-.148.227-.223.5-.5 1-1 2-1 3 0 6 4 6 7-1.888 8.306-4.346 12.621-5.436 14.236l-.01.016.062-.094c-.318.447-1.036.828-1.583.841-.024.001.042.001.016.001h-.104a.985.985 0 0 1-.96-.933 4.322 4.322 0 0 1-.004-.113C13.91 19.584 13.575 14 12 14c-1.575 0-1.91 5.583-1.98 7.954a4.348 4.348 0 0 1-.005.113.985.985 0 0 1-.96.932L8.952 23h.016c-.548-.014-1.266-.395-1.584-.842l.063.094-.01-.016C6.345 20.621 3.886 16.306 2 8c0-4 3-7 6-7 1 0 1.5.5 2 1 .21.21.42.42.666.592A8.606 8.606 0 0 1 9.274 4.26c-.075.07-.015.196.085.176.876-.178 3.144-.762 4.414-2.212z" fill="#fff">
</path></svg>
</svg>
