<svg width="291" height="58" viewBox="0 0 291 58" fill="none" xmlns="http://www.w3.org/2000/svg">
<path d="M33.8618 27.8215C35.9951 29.5684 36.6204 32.0587 37.2825 34.549C37.54 35.5898 37.7239 36.6305 37.7607 37.7084C37.7607 37.8571 37.7239 38.0429 37.871 38.1173C38.0917 38.2288 38.1652 38.0058 38.3124 37.8943C39.4158 37.0394 39.7101 37.1137 40.7768 38.0058C42.3584 39.3439 42.8733 41.0165 42.6159 43.0236C42.6159 43.1351 42.5423 43.2838 42.6159 43.3953C43.4986 45.3281 42.5423 47.0378 42.1009 48.8219C41.9538 49.4538 41.6595 50.0114 41.4756 50.6061C40.8135 52.799 39.2319 53.9141 37.1354 54.3973C33.4204 55.2522 29.7422 55.215 26.1008 54.1743C25.5859 54.0256 25.2916 53.9141 25.6594 53.3194C26.0272 52.7619 25.4755 52.799 25.218 52.799C24.1146 52.6504 23.0111 52.8362 21.9077 52.9849C18.8916 53.4309 15.9122 54.1371 12.8593 53.9884C5.68686 53.6539 1.23626 48.0786 0.279927 42.7634C-0.455711 38.9722 0.353491 35.2924 1.60407 31.6499C1.86155 30.8693 2.1558 30.0888 2.52362 29.3454C2.78109 28.7879 2.74431 28.1931 2.78109 27.6356C3.03857 23.6585 4.32593 19.9788 6.20181 16.5221C6.93745 15.1468 7.59952 13.7716 8.15125 12.322C9.03401 10.0918 10.3582 8.15905 12.4179 6.82097C13.2639 6.3006 14.1835 5.92891 15.1398 5.66873C15.3237 5.63156 15.5812 5.66873 15.5812 5.37138C15.5812 4.47932 16.28 4.33065 16.9053 4.29348C18.4502 4.18197 19.7743 3.51293 20.9881 2.65804C21.5398 2.28635 22.0916 1.91466 22.1651 1.09694C22.2019 0.613747 22.6433 0.353564 23.1215 0.204888C24.2617 -0.166803 25.3284 -0.0552954 26.2479 0.725254C26.6157 1.02261 26.9468 1.17128 27.3882 1.17128C29.4847 1.17128 31.4342 1.84032 33.3468 2.65804C33.8618 2.88106 34.1928 3.17841 34.156 3.81028C34.1192 4.29348 34.4135 4.51649 34.7813 4.66517C35.1491 4.81384 35.5537 4.96252 35.9216 4.99969C37.5032 5.1112 38.7538 6.00325 40.1147 6.6723C40.8135 7.00682 40.8135 7.60152 40.5561 8.23339C40.3354 8.71659 40.225 9.16262 40.1515 9.68298C40.0779 10.2034 40.0043 10.7237 39.3791 10.8724C39.3423 10.8724 39.3055 10.8724 39.3055 10.9096C38.717 12.3963 37.1354 12.2848 36.0687 12.9539C34.9652 13.6601 33.825 14.2919 32.5744 14.7751C31.9491 15.0353 31.2503 15.1097 30.5882 15.1097C29.9629 15.1097 29.9997 15.5929 29.9997 15.9645C29.9629 16.4477 30.4043 16.2247 30.625 16.2247C33.5675 16.1876 36.179 15.0725 38.6434 13.5857C40.4457 12.4707 40.74 12.545 42.1377 14.1433C42.3216 14.3291 42.4687 14.4778 42.7262 14.3663C43.3883 14.0689 43.9032 14.4406 44.3814 14.7751C45.4113 15.4813 46.4044 16.2991 47.5446 16.8194C47.8389 16.9681 48.2067 17.2655 48.4642 17.0424C48.7584 16.8194 48.4274 16.4477 48.3538 16.1504C48.1331 15.1468 47.4711 14.4778 46.6619 13.9203C45.7055 13.2512 44.6756 12.7308 43.6825 12.099C42.5791 11.3556 41.8067 10.4635 41.8067 8.90244C41.8067 8.04755 41.9538 7.71303 42.6894 7.22983C43.9768 6.44928 45.3745 6.26344 46.7722 5.92891C47.1032 5.85458 47.5078 5.85458 47.7653 5.59439C49.5308 3.73594 51.701 3.92179 53.8711 4.44215C54.5332 4.59083 55.1585 4.59083 55.7838 4.47932C56.8504 4.29348 57.8068 4.81384 58.1378 5.89175C58.2849 6.3006 58.5424 6.52362 58.8734 6.70946C60.4918 7.7502 61.8528 9.12545 63.0298 10.6865C63.5815 11.4299 64.2068 12.1733 64.0597 13.214C64.0229 13.3627 64.1333 13.4371 64.2068 13.5486C67.2597 16.5592 67.9953 20.2018 67.3701 24.3276C67.0758 26.409 67.2229 28.4905 68.2896 30.4233C68.9517 31.6499 69.062 33.0623 68.9149 34.4375C68.8413 35.1809 68.8413 35.8871 68.9517 36.6305C69.0252 37.2252 69.0252 37.8571 68.8781 38.4518C68.6942 39.1208 68.3632 39.6412 67.5907 39.604C67.2597 39.604 67.1126 39.7527 67.0022 40.0872C66.3769 42.1315 65.9723 44.1758 66.4137 46.3316C66.6712 47.4467 66.3034 48.3388 65.4574 48.8591C63.8758 49.7883 63.0298 51.2751 62.0367 52.6504C60.3447 54.992 57.255 55.3637 55.0849 53.4309C54.8274 53.2079 54.57 53.0964 54.2021 53.0592C52.9883 52.9477 52.1424 52.353 51.6642 51.2008C51.5171 50.7919 51.4435 50.3459 51.6642 49.937C52.4366 48.6361 52.2159 47.3352 51.5538 46.1086C50.8918 44.8077 50.5975 43.3953 50.5607 41.9829C50.5607 40.1616 50.009 38.5261 49.3837 36.8907C48.5745 34.8092 48.4642 32.6534 48.6481 30.4233C48.6849 29.9773 48.7952 29.6427 48.0964 29.4569C47.4711 29.3082 47.14 28.4905 46.9561 27.8586C46.6619 26.9294 46.0366 26.5205 45.2274 26.3719C43.5722 26.0373 42.0641 25.3683 40.8871 24.1046C40.7032 23.9187 40.5929 23.8815 40.4089 24.1046C39.1951 25.5913 37.4664 26.2975 35.7376 26.9666C35.002 27.1152 34.3767 27.3383 33.8618 27.8215Z" fill="#0F428A"/>
<path d="M19.7377 18.7523C18.9285 19.124 18.1928 19.57 17.4204 20.2762C17.9354 20.2391 18.2296 20.0161 18.5239 19.8674C20.4733 18.5665 22.6802 18.1576 24.9607 17.8974C28.0872 17.5257 31.1768 17.0797 34.3033 16.6337C35.7378 16.4107 37.0252 15.7416 38.2757 15.0354C38.7907 14.7381 39.3056 14.4035 39.8574 14.1805C40.7401 13.8088 41.3654 14.1062 41.5125 15.0726C41.6965 16.6708 41.5493 18.2319 40.7401 19.6444C40.262 20.4993 39.6735 21.2426 38.8642 21.8002C35.5171 24.1418 32.6849 27.0782 30.0734 30.2375C29.0803 31.4269 27.9768 32.5792 26.8366 33.6571C26.4688 33.9916 26.1745 34.0659 25.6596 33.8801C22.5331 32.8765 19.4434 32.9509 16.4641 34.512C16.3905 34.6235 16.2434 34.6978 16.1331 34.7722C16.0227 34.7722 16.1331 34.6606 16.0963 34.7722C16.0963 34.8093 16.1331 34.8093 16.1698 34.7722C16.2802 34.735 16.3905 34.6978 16.5009 34.6978C18.3767 34.0288 20.2894 33.7686 22.2756 33.6943C24.6297 33.6199 26.6527 34.4005 28.4182 35.9616C30.9561 38.1917 32.9424 40.905 34.855 43.7299C35.2596 44.3246 35.6274 44.9565 36.1056 45.5512C35.7746 44.6219 36.4366 44.2503 36.9516 43.8042C37.6137 43.2467 38.3125 42.652 39.1217 42.2803C40.0045 41.8714 40.5194 42.0201 41.2183 42.6892C42.3585 43.8042 42.4321 45.1051 42.1011 46.5547C41.7332 48.0415 41.2183 49.4539 40.593 50.8663C39.9677 52.2788 38.8275 53.0221 37.4298 53.5053C34.009 54.7319 30.5883 54.6947 27.094 53.9514C26.7262 53.877 26.4688 53.7283 26.7262 53.3195C27.1308 52.6504 26.6895 52.5761 26.2113 52.4646C24.2251 52.0929 22.2388 52.3531 20.2894 52.6504C18.4135 52.9478 16.5744 53.3567 14.6986 53.4682C11.7192 53.5797 9.10772 52.5389 6.60655 50.9778C2.67089 48.5247 1.16283 44.8078 0.94214 40.3847C0.795013 37.2996 1.38352 34.3261 2.56054 31.4641C2.8548 30.7207 3.33296 30.0889 3.664 29.3826C3.99504 28.7136 3.48009 27.9331 3.59044 27.1525C4.17895 23.3984 4.95136 19.7559 7.41575 16.708C7.63644 16.4478 7.82035 16.1877 8.04104 15.9646C8.3353 15.5929 8.99737 15.3328 8.37208 14.7009C8.18817 14.515 8.29851 14.1062 8.44564 13.8088C9.58588 10.8725 11.2043 8.30782 14.2204 6.96974C15.0296 6.59805 15.8756 6.33786 16.7583 6.33786C16.5744 5.3343 16.648 5.11129 17.6043 4.99978C19.4066 4.8511 20.8779 4.03339 22.1285 2.80681C22.4595 2.50946 22.5699 2.58379 22.7538 2.95548C22.9377 3.36434 23.1952 3.7732 23.6366 3.99622C23.4526 3.43868 23.1584 2.95548 23.048 2.39795C22.8274 1.1342 23.5262 0.50233 24.74 0.799683C25.3285 0.948359 25.8435 1.17137 26.2113 1.65457C26.5055 2.06343 26.8734 2.1006 27.278 1.98909C29.301 1.54306 31.0665 2.36078 32.8688 3.14133C33.2366 3.29001 33.4573 3.62453 33.4573 4.03339C33.4205 4.7396 33.8619 5.11129 34.4504 5.25996C34.9654 5.40864 35.5171 5.55732 36.0688 5.63165C36.9516 5.74316 37.7608 6.07768 38.57 6.44937C39.0114 6.67239 39.5631 6.85823 39.2321 7.56444C39.1585 7.67595 39.1953 7.82462 39.3056 7.89896C40.0413 8.4565 39.8206 9.19988 39.5999 9.86892C39.4528 10.3149 38.901 10.2034 38.57 10.4265C38.4229 10.538 38.239 10.6495 38.055 10.7238C38.239 10.7238 38.4229 10.5008 38.57 10.7238C38.6068 11.0955 38.4229 11.3185 38.1286 11.43C36.2895 12.0991 34.6343 13.1026 32.8688 13.9203C31.7653 14.4407 30.5883 14.515 29.4113 14.3292C29.2274 14.292 29.0067 14.2177 28.786 14.3664C28.8964 14.6637 29.6688 14.6266 29.2642 15.1841C28.8228 15.7788 29.2274 16.931 27.9033 17.0425C26.0274 17.1912 24.1883 17.6001 22.3124 17.9346C21.8342 18.0089 21.7239 17.8974 21.6136 17.4514C21.3561 16.1505 20.9883 14.8867 20.5469 13.623C20.4733 13.5487 20.3997 13.4743 20.3262 13.4371C20.3997 13.5858 20.2894 13.7717 20.3998 13.9203C20.6204 15.0726 20.8411 16.2248 21.0986 17.3399C21.2457 17.8974 21.0986 18.0461 20.5469 18.0833C18.7078 18.2319 16.9423 18.678 15.3606 19.6815C16.7951 19.3098 18.1561 18.7151 19.6273 18.6036C19.7377 18.5293 19.7745 18.6036 19.7377 18.7523Z" fill="white"/>
<path d="M43.204 10.3522C42.1005 9.60878 42.2109 8.12201 43.4247 7.45297C44.1971 7.04411 45.0063 6.85827 45.8523 6.67242C46.8454 6.44941 47.9121 6.41224 48.6845 5.70603C49.8615 4.62813 51.1489 4.62813 52.5834 4.88831C53.4294 5.03699 54.2753 5.18566 55.1213 5.33434C55.2684 5.37151 55.4156 5.40868 55.5627 5.37151C57.1443 5.14849 57.7696 5.78037 57.4018 7.49014C57.6593 7.00694 57.88 7.11845 58.1374 7.26713C59.8662 8.19635 61.3007 9.42293 62.4409 11.0212C62.8823 11.6531 63.2869 12.2849 63.1765 13.1027C63.1398 13.3628 63.2501 13.5487 63.4708 13.7345C65.3099 15.4815 66.3766 17.6744 66.6708 20.2019C66.9283 22.3949 66.5973 24.5879 66.634 26.7437C66.634 27.9331 66.8915 29.011 67.5536 29.9774C68.1053 30.7579 68.2524 31.7243 68.2892 32.6536C68.326 34.066 68.326 35.4412 68.2892 36.8537C68.2892 37.3369 68.2524 37.8201 67.8846 38.1917C67.7375 38.3404 67.5904 38.4519 67.4065 38.3404C67.149 38.2289 67.3697 38.0431 67.4065 37.8944C67.6272 36.9652 67.8478 36.0731 67.6639 34.9209C67.0386 38.4148 65.5306 41.5741 65.6409 45.0308C65.6409 45.4025 65.7145 45.7742 65.7145 46.1831C65.7513 47.038 65.4202 47.707 64.7582 48.2274C63.6179 49.1194 62.588 50.0858 61.7788 51.3124C60.8961 52.6877 59.7191 53.7284 57.9167 53.5054C57.6593 53.4682 57.365 53.431 57.1075 53.3195C55.1581 52.6877 54.8638 51.8699 55.9305 50.1602C56.519 49.2309 56.519 49.2309 57.034 49.2681C54.9374 46.6663 53.8707 43.5812 53.1719 40.3475C52.988 40.1245 52.9512 39.8643 52.988 39.6042C52.9144 39.344 52.8041 39.121 52.8041 38.8236C52.7305 38.7493 52.6937 38.898 52.7673 38.8236C52.8776 39.0838 52.8408 39.344 52.9512 39.6042C52.9512 39.79 52.988 39.9759 52.988 40.1989C52.9144 40.3104 52.988 40.5706 52.7305 40.4962C51.5535 39.4555 50.8178 38.0802 50.3029 36.6306C49.2362 33.62 49.1994 30.5721 50.119 27.5242C50.3029 26.9295 50.5604 26.818 51.0753 26.9295C52.0316 27.1154 53.0248 27.2269 53.9811 27.3756C54.3857 27.4499 54.5696 27.3384 54.6064 26.8924C54.6799 26.0375 55.0845 25.2569 55.4891 24.4764C55.5259 24.402 55.5627 24.2905 55.5259 24.2534C55.4891 24.2162 55.4156 24.2905 55.342 24.3277C54.7903 24.9224 54.496 25.6286 54.2753 26.4092C54.165 26.818 53.9811 26.9667 53.5397 26.9295C49.6408 26.6322 46.073 25.5543 43.3511 22.5064C42.689 22.0976 42.2844 21.5029 42.027 20.7966C41.4385 20.0161 41.2546 19.1984 41.6592 18.232C41.9166 17.5629 41.9534 16.7452 41.9902 15.9647C42.027 15.5186 42.0638 15.1841 42.5051 14.9983C42.9465 14.8124 43.3511 14.7753 43.7557 15.1098C45.2638 16.262 46.919 17.1913 48.7213 17.786C48.9787 17.8603 49.273 17.8975 49.5305 17.9346C50.7811 18.009 52.0684 18.232 53.319 17.9346C53.65 17.8603 53.9811 17.7488 54.3121 17.6373C52.8408 18.1205 51.3696 18.3063 49.8247 17.786C49.3833 17.2284 49.4201 16.485 49.2362 15.8532C49.0891 15.4071 49.0155 14.9611 48.8316 14.5523C48.6109 14.1062 48.2799 13.846 47.8017 13.6602C46.2201 13.0655 44.8592 12.0248 43.3879 11.207C43.1304 11.0584 43.204 10.8354 43.204 10.6123C44.05 10.5752 44.8592 10.8725 45.7052 10.8354C45.8523 10.8354 45.9626 10.7982 46.073 10.8354C45.1166 10.761 44.05 11.0584 43.204 10.3522Z" fill="white"/>
<path d="M36.989 41.0535C37.4672 40.3101 37.8718 39.5296 38.4235 38.8234C39.012 38.0428 39.4534 38.0428 40.2258 38.6004C41.7706 39.6783 42.5063 41.1279 42.0281 43.135C41.7338 42.7633 41.5132 42.3916 41.2189 42.0571C40.6304 41.3509 40.2258 41.2394 39.3798 41.6111C38.166 42.1314 37.0993 42.912 36.2166 43.9155C35.8855 44.2872 35.7016 44.3244 35.4074 43.8412C34.7453 42.8005 34.0464 41.7969 33.3108 40.8677C32.8694 40.273 32.9062 39.5668 32.7959 38.8977C32.3177 36.2959 31.3614 33.9171 29.5591 31.9843C29.3384 31.7241 29.3384 31.5754 29.5591 31.3524C30.3315 30.4232 31.1407 29.494 31.9131 28.5647C32.1706 28.2674 32.4281 28.2302 32.7591 28.3789C33.4947 28.7134 34.0832 29.2338 34.4878 29.9028C35.6648 31.7241 36.1798 33.7684 36.5108 35.9242C36.6212 36.5932 36.6947 37.2994 36.8786 37.9313C37.1729 39.0092 37.1361 40.05 36.8051 41.0907C36.8419 41.165 36.7683 41.2394 36.8051 41.3137C36.8786 41.2022 36.9154 41.1279 36.989 41.0535Z" fill="#C9D4EB"/>
<path d="M51.333 40.1616C51.9215 40.4961 52.3997 40.7935 52.8778 41.0537C53.1353 41.2024 53.1353 41.4625 53.1721 41.7227C53.5031 43.5812 53.9445 45.4396 54.8273 47.1494C55.0112 47.5211 55.1951 47.8928 55.4894 48.153C56.1147 48.6733 56.0779 49.1194 55.5997 49.7512C55.1583 50.3459 54.7169 51.015 54.7905 51.8327C54.8273 52.1301 54.6434 52.0929 54.4595 52.0557C53.871 51.9442 53.2824 51.7584 52.7675 51.4238C52.3261 51.1265 52.1054 50.7176 52.3629 50.1973C52.6572 49.6769 52.51 48.8592 53.3192 48.6362C53.5399 48.599 53.3192 48.3388 53.2457 48.1901C52.2526 46.4804 51.7744 44.5847 51.4066 42.6519C51.2962 41.8714 51.3698 41.0908 51.333 40.1616Z" fill="#C9D4EB"/>
<path d="M26.7266 34.2516C27.3886 33.5454 28.0507 32.9135 28.676 32.2445C29.007 31.8728 29.1909 31.91 29.4852 32.2445C31.1036 34.1773 32.0967 36.3703 32.4645 38.8977C32.5013 39.1579 32.5013 39.4181 32.5749 39.9013C30.8461 37.634 28.9703 35.7384 26.7266 34.2516Z" fill="#FEFEFE"/>
<path d="M43.1679 22.729C44.6759 24.6246 46.5518 25.8883 48.8691 26.483C49.4576 26.6317 49.6783 26.8176 49.4208 27.4123C49.3472 27.5609 49.384 27.784 49.3105 27.9326C49.2001 28.1557 49.3105 28.4902 48.9426 28.5273C48.6116 28.5645 48.3173 28.4902 48.207 28.1557C47.5081 26.483 46.1104 25.814 44.5288 25.2936C43.1679 24.8476 41.8069 24.3272 40.9609 23.0263C40.8874 22.9148 40.8138 22.8033 40.7403 22.6918C39.9311 21.0935 39.9678 21.3537 41.1449 20.0156C41.3656 20.3501 41.5862 20.6847 41.8069 21.0192C42.3954 21.5024 42.8368 22.0971 43.1679 22.729Z" fill="#C9D3EA"/>
<path d="M33.6406 26.855C35.4062 24.8107 37.3924 23.0637 39.6729 21.6885C40.0407 22.5062 39.9671 23.1752 39.3051 23.8071C38.2016 24.8478 36.951 25.7027 35.5165 26.2231C34.928 26.4089 34.3027 26.6319 33.6406 26.855Z" fill="#C9D3EA"/>
<path d="M49.8245 17.8604C51.5533 18.0834 53.282 18.0834 54.974 17.2285C54.3119 18.2692 51.3694 18.6409 49.5303 18.0091C49.6406 17.9347 49.7142 17.8976 49.8245 17.8604Z" fill="#0F428A"/>
<path d="M43.2041 10.3521C43.4616 10.4264 43.7558 10.5007 44.0869 10.5379C44.4179 10.5751 44.7489 10.5751 45.1168 10.6122C45.7421 10.7981 47.2869 10.3521 47.5444 10.3892C47.2869 10.5007 48.0226 10.6494 47.6915 10.6866C47.3605 10.7237 45.4846 11.1326 45.1168 10.9467C44.7489 10.9467 44.4179 10.9096 44.0869 10.8724C43.7558 10.8352 43.4616 10.7609 43.2041 10.6866C43.2041 10.6494 43.2041 10.6494 43.2041 10.6122C43.2041 10.5751 43.2041 10.5751 43.2041 10.5379C43.2041 10.5007 43.2041 10.5007 43.2041 10.4636C43.2041 10.4264 43.2041 10.3892 43.2041 10.3521Z" fill="#0F428A"/>
<path d="M43.1679 22.7291C42.6162 22.2459 42.2484 21.614 41.8438 21.0193C41.8805 20.9821 41.9541 20.9078 41.9909 20.8706C42.4323 21.4281 42.8737 22.0229 43.3151 22.5804C43.2783 22.6547 43.2047 22.6919 43.1679 22.7291Z" fill="#0F428A"/>
<path d="M38.4963 10.6494C38.1653 10.6122 37.8711 10.9839 37.4297 10.8353C37.7607 10.5379 38.1285 10.4264 38.4963 10.3521C38.4963 10.4636 38.4963 10.5751 38.4963 10.6494Z" fill="#0F428A"/>
<path d="M20.3623 13.8833C20.1416 13.6231 20.2152 13.3258 20.0312 12.9541C20.4358 13.1028 20.3991 13.4001 20.5094 13.586C20.4358 13.6603 20.3991 13.7718 20.3623 13.8833Z" fill="#8AA7D5"/>
<path d="M36.9886 41.0537C36.9518 41.3139 36.8414 41.5741 36.584 41.7971C36.584 41.4626 36.6575 41.2396 36.8414 41.0537C36.8782 41.0537 36.9518 41.0537 36.9886 41.0537Z" fill="#0F428A"/>
<path d="M55.3057 24.4017C55.416 24.1786 55.5264 24.03 55.9309 23.9185C55.747 24.1786 55.5999 24.3645 55.4896 24.5503C55.3792 24.5132 55.3424 24.476 55.3057 24.4017Z" fill="#7B9CD0"/>
<path d="M19.738 18.7522C19.7012 18.715 19.6276 18.6407 19.5908 18.6035C19.7747 18.4177 19.9954 18.4548 20.2897 18.5292C20.069 18.6035 19.9219 18.6778 19.738 18.7522Z" fill="#A3B7DE"/>
<path d="M52.8786 40.2735C52.8786 40.0876 52.8418 39.8646 52.8418 39.6788C52.8786 39.6416 52.9521 39.6416 52.9889 39.6788C53.0257 39.9389 53.0625 40.1991 53.1361 40.4222H53.0993H53.0625C52.9154 40.4593 52.9154 40.3478 52.8786 40.2735Z" fill="#0F428A"/>
<path d="M52.8782 40.2734C52.915 40.3478 52.9886 40.3849 53.0254 40.4593C52.9886 40.5708 53.0254 40.7566 52.9518 40.7938C52.8415 40.8681 52.7311 40.7566 52.6943 40.608C52.8415 40.5336 52.8415 40.3849 52.8782 40.2734Z" fill="#0F428A"/>
<path d="M16.4273 34.6604C16.317 34.6976 16.2434 34.7719 16.1331 34.8091C15.9859 34.8834 15.9491 34.8091 15.9859 34.6604C16.1331 34.5861 16.2802 34.5489 16.4273 34.4746C16.4273 34.5489 16.4273 34.5861 16.4273 34.6604Z" fill="#0F428A"/>
<path d="M9.76974 26.7058C10.6525 27.7094 11.4617 28.7873 12.1973 29.9024C12.8226 30.8688 12.7858 31.7608 12.1606 32.7272C11.3514 33.9166 11.3881 33.9538 12.6387 34.66C13.1169 34.9202 13.6318 35.1432 14.1468 35.3662C14.3307 35.4405 14.5882 35.4777 14.8824 35.5149C14.2939 36.0724 13.8157 36.7043 13.3744 37.3733C12.933 38.0424 12.5284 38.7114 12.0134 39.3433C12.418 38.0052 13.1905 36.9273 14.1468 35.9237C13.3744 35.7007 12.7123 35.5892 12.0502 35.2919C11.572 35.0689 11.0939 34.8087 10.7261 34.3998C10.1008 33.8051 10.1376 33.6564 10.8732 33.2476C12.0134 32.6157 12.3812 31.5378 11.756 30.274C11.3514 29.4563 10.7996 28.6758 10.2847 27.8952C10.064 27.5607 9.8433 27.2262 9.62261 26.8917C9.54905 26.7058 9.62261 26.6687 9.76974 26.7058Z" fill="#0F428A"/>
<path d="M37.6868 10.8725C35.9948 11.5416 33.7511 11.4301 32.1327 10.6867C31.912 10.5752 31.9856 10.4637 32.0224 10.315C32.0591 10.1663 32.1695 9.98048 32.3534 10.1663C33.6408 11.4301 36.2155 11.0955 37.7236 10.6123C37.8339 10.6123 37.5764 10.8725 37.6868 10.8725Z" fill="#0F428A"/>
<path d="M24.9971 1.80322C24.7764 2.28642 24.5925 2.69528 24.5925 3.21564C23.9305 2.43509 24.004 2.21208 24.9971 1.80322Z" fill="#0F428A"/>
<path d="M31.5078 5.40885C31.8021 5.11149 32.0963 4.77697 32.5745 4.92565C32.6113 4.92565 32.6848 5.14866 32.648 5.18583C32.317 5.44602 31.9124 5.44602 31.5078 5.40885Z" fill="#0F428A"/>
<path d="M50.5611 7.00659C50.3036 6.67206 50.0829 6.30037 49.5679 6.33754C49.5312 6.33754 49.4208 6.56055 49.4576 6.59772C49.9726 6.70923 50.1565 6.96942 50.5611 7.00659Z" fill="#0F428A"/>
<path d="M9.77016 26.7063C9.73338 26.7435 9.65981 26.8178 9.62303 26.855C9.43912 26.7063 9.29199 26.5205 9.29199 26.2231C9.58625 26.2603 9.65981 26.4833 9.77016 26.7063Z" fill="#0F428A"/>
<path d="M15.9856 34.6606C16.0224 34.6978 16.096 34.735 16.1328 34.8093C15.9856 34.958 15.8385 35.0323 15.6178 35.0695C15.581 34.735 15.8385 34.735 15.9856 34.6606Z" fill="#0F428A"/>
<path d="M11.9034 40.1992C11.7195 39.8647 11.7562 39.7532 11.8298 39.6045C11.8298 39.6045 11.9401 39.6045 11.9401 39.6417C12.0505 39.7903 11.9034 39.8647 11.9034 40.1992Z" fill="#0F428A"/>
<path d="M61.3749 16.4476C60.9703 15.7043 60.6025 14.9609 59.7197 14.6264C60.7129 14.2547 61.3014 14.8494 61.5221 16.2618C61.5589 16.4476 61.4853 16.4848 61.3749 16.4476Z" fill="#0F428A"/>
<path d="M47.2139 10.2034C47.2506 9.94318 47.7288 10.0919 48.1334 10.9467C47.692 10.7981 47.4346 10.5379 47.2139 10.2034Z" fill="#0F428A"/>
<path d="M32.4274 10.2034C32.3906 9.94318 31.9124 10.0919 31.5078 10.9467C31.9492 10.7981 32.2067 10.5379 32.4274 10.2034Z" fill="#0F428A"/>
<path d="M56.0786 7.08137C56.0786 6.74685 55.8211 6.56101 55.9683 6.30083C55.9683 6.26366 56.1154 6.26366 56.1522 6.30083C56.4097 6.48667 56.3729 6.70968 56.0786 7.08137Z" fill="#0F428A"/>
<path d="M52.9884 39.6786C52.9516 39.6786 52.8781 39.6786 52.8413 39.6786C52.6206 39.4555 52.731 39.1582 52.8045 38.8608C52.8781 39.1582 52.9516 39.4184 52.9884 39.6786Z" fill="#0F428A"/>
<path d="M57.4395 49.6023C57.6234 49.5652 57.7705 49.6023 57.9176 49.7138C57.7337 49.7881 57.5498 49.8253 57.4395 49.6023Z" fill="#0F428A"/>
<path d="M61.375 16.4476C61.4118 16.3732 61.4853 16.3361 61.5221 16.2617C61.6325 16.4104 61.706 16.5962 61.5957 16.8193C61.4118 16.7449 61.4118 16.5962 61.375 16.4476Z" fill="#0F428A"/>
<path d="M36.2158 42.5771C36.179 42.8002 36.1054 43.0232 35.7744 43.1347C35.8848 42.8373 35.9215 42.6143 36.2158 42.5771Z" fill="#0F428A"/>
<path d="M36.253 42.5775C36.253 42.3917 36.1426 42.1315 36.4737 42.02C36.5105 42.2802 36.4002 42.4289 36.253 42.5775C36.2162 42.5775 36.253 42.5775 36.253 42.5775Z" fill="#0F428A"/>
<path d="M149.799 19.8887C150.388 17.5318 151.074 15.2731 151.663 12.9163C151.957 11.7378 152.154 10.4612 153.92 10.7558C155.686 11.0504 155.195 12.3271 155.195 13.4073C154.999 18.0228 155.097 22.6383 155.392 27.352C155.49 28.6287 155.882 30.5927 154.312 30.7891C152.546 30.8873 153.233 28.9233 153.037 27.7449C152.841 26.2718 152.742 24.7006 152.546 23.1293C151.074 23.915 152.056 26.6646 149.505 26.37C147.346 26.1736 147.837 24.2096 147.248 23.1293C146.463 23.3257 146.757 23.915 146.757 24.3078C146.659 25.6826 146.757 27.1556 146.659 28.5305C146.561 29.4143 146.561 30.5927 145.286 30.6909C143.912 30.6909 144.305 29.5125 144.108 28.7269C143.618 26.7628 144.305 24.897 144.305 22.9329C144.305 19.6922 144.305 16.3534 144.305 13.1127C144.108 11.7378 144.403 10.854 145.58 10.7558C146.757 10.6576 147.15 11.6396 147.248 12.6217C147.542 15.1749 148.425 17.5318 149.21 19.8887C149.505 19.9869 149.603 19.9869 149.799 19.8887Z" fill="#0F428A"/>
<path d="M229.763 20.2813C230.646 18.2191 231.529 16.1568 232.412 13.9963C232.706 13.4071 233.001 12.8179 233.295 12.2287C233.589 11.7377 234.08 11.4431 234.668 11.5413C235.453 11.6395 235.257 12.3269 235.257 12.8179C235.453 18.1209 235.552 23.4238 235.748 28.7267C235.748 29.807 235.453 30.789 234.374 30.789C233.001 30.789 233.197 29.6106 233.197 28.6285C233.197 26.2717 233.393 24.013 232.608 21.2633C231.234 23.6202 231.038 26.0753 229.959 28.2357C229.861 28.5303 229.763 28.8249 229.665 29.2178C229.468 30.1016 228.978 30.789 228.095 30.6908C227.016 30.6908 226.525 29.7088 226.525 28.9231C227.114 23.6202 225.642 18.2191 226.819 12.9161C227.016 12.2287 227.016 11.3449 228.095 11.4431C229.076 11.5413 229.174 12.3269 229.174 13.1125C229.174 15.4694 229.174 17.9244 229.174 20.2813C229.37 20.2813 229.567 20.2813 229.763 20.2813Z" fill="#0F428A"/>
<path d="M247.914 17.7283C248.11 20.5762 247.423 23.7187 248.11 26.8612C248.306 27.8432 248.012 28.727 249.091 29.5127C249.876 30.1019 249.483 31.2803 249.287 32.1641C249.189 32.6551 248.306 32.7533 248.11 32.4587C246.049 29.6109 242.91 32.1641 240.457 30.9857C239.672 30.5929 239.28 30.4947 239.28 29.6109C239.181 24.6025 238.985 19.496 239.083 14.4876C239.083 13.4074 238.691 11.4434 240.555 11.5416C242.125 11.6398 241.732 13.3092 241.83 14.4876C241.83 18.7104 241.83 22.8349 241.83 27.0576C241.83 28.0396 242.223 28.4324 243.204 28.236C244.676 27.9414 245.951 28.0396 245.657 25.4863C245.068 21.3618 245.461 17.1391 245.363 13.0146C245.363 12.1308 245.657 11.4434 246.736 11.4434C247.815 11.4434 248.012 12.229 248.012 13.1128C247.914 14.684 247.914 16.0589 247.914 17.7283Z" fill="#0F428A"/>
<path d="M105.844 20.8705C104.666 23.9148 104.274 26.468 103.783 28.9231C103.587 30.0033 103.489 31.771 101.919 31.3782C100.349 30.9854 100.84 29.2177 101.134 28.0393C102.312 23.522 102.9 18.8082 103.783 14.2909C103.98 13.2107 103.783 11.934 105.451 11.8358C107.119 11.7376 107.316 12.916 107.512 14.0945C108.199 19.1028 109.474 24.013 110.259 29.1195C110.357 30.0033 110.75 31.1818 109.376 31.3782C107.904 31.5746 108.002 30.3962 107.806 29.4141C107.217 26.6644 106.531 24.013 105.844 20.8705Z" fill="#0F428A"/>
<path d="M198.856 22.2455C198.856 19.2012 198.856 16.2551 198.856 13.2108C198.856 11.6396 199.739 10.7558 201.309 11.1486C202.683 11.4432 204.155 10.5594 205.332 11.7378C205.626 12.0324 206.215 12.0324 205.921 12.6216C205.822 12.9162 205.43 13.0144 205.136 13.1126C204.939 13.2108 204.743 13.2108 204.547 13.2108C201.407 13.6036 201.407 13.6036 201.211 16.6479C201.113 19.2994 201.309 19.4958 204.056 19.6922C204.939 19.6922 205.724 19.8886 205.724 20.8706C205.724 21.9509 205.038 22.2455 204.056 22.4419C203.173 22.6383 201.702 21.8527 201.407 23.1293C201.113 24.7005 201.309 26.4682 201.505 28.1376C201.505 28.6287 202.192 28.5304 202.683 28.5304C203.664 28.5304 204.645 28.4322 205.724 28.4322C206.509 28.4322 207 28.8251 207 29.7089C207 30.3963 206.607 30.8873 205.921 30.8873C203.958 30.9855 201.996 30.9855 200.132 30.9855C199.053 30.9855 198.856 30.1017 198.856 29.3161C198.758 28.1376 198.66 26.9592 198.66 25.6826C198.66 24.5041 198.66 23.4239 198.66 22.2455C198.758 22.2455 198.856 22.2455 198.856 22.2455Z" fill="#0F428A"/>
<path d="M90.8325 21.362C90.8325 18.8087 90.8325 16.2555 90.8325 13.7022C90.8325 11.5417 91.5193 10.8543 93.6778 11.1489C94.8552 11.2471 96.2288 10.6579 97.308 11.6399C97.6024 11.8363 98.093 12.0327 97.9949 12.5238C97.8967 13.0148 97.5043 13.113 97.1118 13.113C96.8175 13.113 96.6212 13.2112 96.3269 13.2112C93.3835 13.5058 93.3835 13.5058 93.3835 16.3537C93.3835 19.3979 93.3835 19.4961 96.425 19.5944C97.308 19.5944 97.8967 19.889 97.9949 20.7728C98.093 21.6566 97.5043 22.2458 96.5231 22.344C96.1307 22.344 95.7382 22.4422 95.3458 22.4422C93.4816 22.2458 93.0891 23.3261 93.5797 24.7991C94.0703 25.9775 92.8929 27.647 94.0703 28.3344C94.9533 28.8254 96.425 28.4326 97.6024 28.4326C98.4854 28.4326 99.1722 28.7272 99.1722 29.611C99.1722 30.5931 98.4854 30.9859 97.5043 30.9859C96.6212 30.9859 95.7382 30.9859 94.8552 30.9859C90.7344 31.0841 90.8325 31.5751 90.7344 27.0578C90.8325 25.1919 90.8325 23.3261 90.8325 21.362Z" fill="#0F428A"/>
<path d="M159.021 17.8262C159.021 16.0586 158.923 14.6837 159.021 13.4071C159.12 11.8359 159.806 10.7556 161.572 11.1484C162.848 11.3448 164.221 10.7556 165.301 11.5413C165.595 11.7377 166.282 11.9341 166.184 12.5233C166.086 13.1125 165.595 13.1125 165.105 13.2107C165.006 13.2107 164.81 13.2107 164.712 13.2107C161.474 13.6035 161.474 13.6035 161.474 16.9424C161.474 19.4957 161.572 19.5939 164.221 19.5939C165.203 19.5939 165.988 19.6921 165.988 20.9687C165.988 21.9507 165.301 22.2453 164.418 22.4418C161.572 22.8346 161.572 22.8346 161.867 25.6824C161.867 25.9771 161.867 26.3699 161.769 26.6645C161.376 28.2357 161.965 28.7267 163.535 28.5303C164.418 28.4321 165.301 28.4321 166.184 28.5303C166.871 28.5303 167.361 29.0213 167.459 29.6106C167.459 30.298 167.067 30.8872 166.282 30.9854C164.32 31.0836 162.357 31.0836 160.493 31.0836C159.12 30.9854 159.218 29.9052 159.218 28.9231C159.021 25.0932 158.629 21.2633 159.021 17.8262Z" fill="#0F428A"/>
<path fill-rule="evenodd" clip-rule="evenodd" d="M221.1 22.9883C220.999 20.789 220.895 18.5352 221.226 16.1569C221.128 16.0587 221.128 15.5676 221.324 15.1748L221.319 15.1378C220.834 11.3443 220.821 11.248 217.007 11.6395C214.751 11.8359 213.377 13.1126 213.083 15.5676C212.697 18.205 212.396 20.8845 212.096 23.5509C211.938 24.9552 211.78 26.3558 211.611 27.7448C211.596 27.8957 211.588 28.0443 211.58 28.1895C211.536 28.9892 211.498 29.6861 210.335 30.1017C209.452 30.3963 209.354 31.6729 209.747 32.5567C210.041 33.2441 211.218 33.1459 211.513 32.7531C212.436 31.5776 213.574 31.6944 214.743 31.8143C214.941 31.8346 215.14 31.8551 215.339 31.8693C215.842 31.8945 216.358 31.8616 216.877 31.8285C218.382 31.7325 219.913 31.6349 221.226 32.9495C221.52 33.3423 222.6 33.2441 222.894 32.4585C223.188 31.6729 223.286 30.3963 222.305 30.1999C220.918 29.8296 221.013 29.0231 221.11 28.1916C221.116 28.1409 221.122 28.0902 221.128 28.0394C221.257 26.3666 221.179 24.6938 221.1 22.9883ZM218.261 24.7078C218.271 24.0532 218.282 23.3948 218.282 22.7364H218.381C218.381 22.0781 218.392 21.4307 218.403 20.787C218.424 19.5105 218.446 18.2482 218.381 16.9425C218.365 16.7859 218.357 16.6217 218.349 16.4561C218.305 15.5832 218.26 14.6682 217.105 14.5856C216.069 14.5058 215.874 15.2688 215.68 16.0318C215.635 16.2079 215.59 16.3839 215.535 16.5497C214.837 18.701 214.815 20.9407 214.793 23.1881C214.775 25.0442 214.757 26.9056 214.358 28.7268C214.151 29.9024 215.014 29.8119 215.851 29.724C216.203 29.6871 216.55 29.6507 216.811 29.7088C217.596 29.9052 218.381 29.807 218.282 28.5304C218.217 27.29 218.239 26.0062 218.261 24.7078Z" fill="#0F428A"/>
<path fill-rule="evenodd" clip-rule="evenodd" d="M181.219 22.6556C181.116 20.2852 181.015 17.979 181.293 15.8623C181.14 13.4057 181.066 12.2294 180.448 11.7356C179.88 11.2819 178.851 11.4045 176.878 11.6396C175.014 11.836 173.542 13.2108 173.248 15.0767C172.659 19.3975 172.169 23.7184 171.678 28.0392L171.678 28.0394C171.672 28.0971 171.666 28.1538 171.66 28.2098C171.576 29.0116 171.51 29.6363 170.501 30.0035C169.618 30.2981 169.422 31.5747 169.912 32.4586C170.403 33.2442 171.188 33.0478 171.874 32.655C173.935 31.3783 179.037 31.3783 180.901 32.655C181.686 33.146 182.569 33.2442 183.059 32.4586C183.55 31.5747 183.55 30.3963 182.471 30.1017C181.195 29.7089 181.195 29.0215 181.293 28.1376C181.378 26.3101 181.298 24.4642 181.219 22.6556ZM178.448 28.5304C178.448 25.2897 178.448 22.1472 178.743 18.9066C178.799 18.2811 178.725 17.6885 178.652 17.1098C178.599 16.6891 178.546 16.2757 178.546 15.8623C178.448 15.1748 178.35 14.5856 177.467 14.4874C176.682 14.3892 176.29 14.8802 176.094 15.4695L176.094 15.4695C175.701 16.6479 175.309 17.8263 175.211 19.103C175.148 20.0723 175.155 21.0317 175.162 21.9843C175.178 24.0234 175.193 26.0314 174.524 28.0394C174.23 29.2178 174.622 29.8071 175.799 29.6107C176.073 29.5833 176.399 29.6626 176.728 29.7424C177.58 29.9493 178.448 30.1601 178.448 28.5304Z" fill="#0F428A"/>
<path fill-rule="evenodd" clip-rule="evenodd" d="M190.517 30.9852C186.985 30.9852 186.788 30.9852 186.788 27.4499C186.788 25.8822 186.734 24.3038 186.68 22.7216C186.571 19.5464 186.461 16.3566 186.788 13.2105C186.985 11.1482 187.475 10.6572 189.536 10.7554H189.732C195.226 11.1482 195.521 11.6392 195.128 17.1386C194.981 19.4248 194.999 21.7665 195.018 24.0803L195.018 24.0805C195.024 24.8476 195.03 25.6117 195.03 26.3696C194.932 30.396 194.441 30.887 190.517 30.9852ZM192.479 25.3877C192.398 25.6039 192.421 25.9093 192.445 26.2385C192.511 27.1056 192.588 28.1374 190.811 28.1374C189.26 28.1374 189.339 27.1178 189.409 26.2096C189.423 26.0262 189.437 25.8473 189.437 25.6823C189.437 25.4915 189.424 25.2852 189.411 25.0731C189.342 23.9752 189.264 22.7203 190.909 22.638C192.675 22.4416 192.577 23.9147 192.479 25.3877ZM192.546 17.3201C192.539 16.9446 192.531 16.5479 192.577 16.1567V14.9782C192.577 14.1926 192.086 13.9962 191.4 13.9962C191.272 14.0175 191.131 14.0249 190.987 14.0325C190.465 14.06 189.907 14.0894 189.83 14.7818C189.732 16.1567 189.732 17.5315 189.83 18.9063C189.83 19.3973 190.32 19.3973 190.713 19.3973C192.591 19.5477 192.571 18.5468 192.546 17.3201Z" fill="#0F428A"/>
<path fill-rule="evenodd" clip-rule="evenodd" d="M252.083 28.1357C252.001 28.4658 251.92 28.7941 251.838 29.1197C251.74 30.0036 252.035 30.691 252.918 30.7892C253.702 30.9856 254.291 30.4946 254.586 29.9054C254.88 29.4143 254.978 28.8251 255.076 28.2359C255.174 26.6647 256.155 26.0754 257.627 25.9772C259.491 25.9772 260.57 26.6647 260.767 28.7269C260.865 29.6107 261.061 31.2802 262.729 30.7892C264.103 30.3964 264.004 29.3161 263.612 28.0395C262.925 25.5353 262.312 23.0312 261.699 20.527C261.086 18.0228 260.472 15.5187 259.786 13.0145C259.763 12.9329 259.742 12.8503 259.72 12.7672C259.453 11.7494 259.169 10.665 257.627 10.7558C256.057 10.854 255.665 11.8361 255.37 13.1127C255.036 14.5332 254.809 15.9715 254.582 17.4049C254.276 19.3406 253.972 21.2674 253.408 23.1294C252.917 24.7678 252.494 26.4746 252.083 28.1357ZM258.448 20.2939C258.215 19.5942 257.97 18.8577 257.725 18.0229C257.595 18.4117 257.473 18.7731 257.357 19.1144C257.034 20.0662 256.764 20.8613 256.547 21.6564C256.351 22.2457 256.547 22.7367 257.038 23.0313C257.529 23.3259 258.117 23.3259 258.608 23.2277C259.197 23.1295 259.197 22.7367 259.098 22.3439C258.902 21.6564 258.681 20.9936 258.448 20.2939Z" fill="#0F428A"/>
<path fill-rule="evenodd" clip-rule="evenodd" d="M113.074 26.3783C112.832 27.2539 112.603 28.0833 112.418 28.8251C112.221 30.0036 112.614 30.4946 113.301 30.691C114.086 31.0838 114.576 30.4946 114.969 30.0036C115.361 29.5125 115.557 28.9233 115.557 28.3341C115.655 26.5665 116.833 25.9772 118.403 25.9772C120.169 25.9772 121.052 26.5665 121.248 28.5305C121.248 29.5125 121.542 31.2802 123.308 30.7892C124.661 30.4023 124.396 29.2532 124.107 27.9988C124.102 27.9796 124.098 27.9605 124.093 27.9413C123.668 26.2718 123.254 24.6024 122.84 22.9329C122.011 19.594 121.183 16.2552 120.267 12.9163C120.252 12.868 120.238 12.8189 120.223 12.7694C119.94 11.812 119.601 10.6625 118.108 10.7558C116.44 10.854 116.146 11.9343 115.95 13.1127C115.738 14.1739 115.535 15.2257 115.333 16.2739C114.881 18.6209 114.432 20.9499 113.889 23.3258C113.63 24.3625 113.344 25.3993 113.074 26.3783ZM118.763 19.5785C118.585 19.0996 118.396 18.5904 118.207 18.0229C118.058 18.4711 117.917 18.8738 117.786 19.2504C117.486 20.1117 117.234 20.8365 117.029 21.6564C116.833 22.2457 117.029 22.8349 117.618 23.1295C118.207 23.4241 118.894 23.5223 119.384 23.2277C119.904 22.9306 119.75 22.5211 119.601 22.1268C119.553 21.9998 119.506 21.8743 119.482 21.7546C119.301 21.0302 119.046 20.3428 118.763 19.5785Z" fill="#0F428A"/>
<path fill-rule="evenodd" clip-rule="evenodd" d="M82.3803 30.9645C82.5545 30.9752 82.7249 30.9856 82.885 30.9856C83.0812 30.9365 83.2774 30.9365 83.4859 30.9365C83.6944 30.9365 83.9152 30.9365 84.1605 30.8874C87.3001 30.7892 87.7907 30.2982 87.6926 27.0575C87.6454 26.2086 87.5757 25.3597 87.5051 24.4999C87.4286 23.5694 87.3511 22.6261 87.3001 21.6563C87.202 19.6923 86.1227 18.6121 84.2586 18.7103C82.1001 18.9067 81.9038 17.9246 81.9038 16.157C81.9038 14.1929 82.2963 13.1127 84.5529 13.5055C84.7525 13.5721 84.9973 13.5484 85.2259 13.5262C85.3344 13.5157 85.4393 13.5055 85.5341 13.5055C86.5152 13.5055 86.5152 12.8181 86.5152 12.1307C86.6133 11.2468 86.2209 10.854 85.3378 10.9522C84.7491 10.9915 84.1605 10.9994 83.5718 11.0072C82.6888 11.019 81.8057 11.0308 80.9227 11.1486C79.451 11.345 78.568 12.1307 78.9604 13.8001C79.0585 14.1929 79.1567 14.5857 79.1567 14.9785C79.1567 16.6569 79.1048 18.3353 79.0529 20.0137C78.962 22.9508 78.8712 25.888 79.0585 28.8251C79.1567 30.4946 79.6472 31.182 81.3152 30.9856C81.6457 30.9194 82.0208 30.9424 82.3803 30.9645ZM81.6866 24.4903C81.6973 24.6645 81.7077 24.8352 81.7077 24.9954C81.6587 25.3391 81.6587 25.6828 81.6587 26.0265C81.6587 26.3702 81.6587 26.7139 81.6096 27.0576C81.5115 28.1378 82.0021 28.4324 82.9832 28.4324C84.455 28.5307 85.1418 27.8432 85.0437 26.4684C85.0354 26.3777 85.0272 26.2878 85.019 26.1984C84.9298 25.2233 84.8474 24.3237 84.8474 23.4241C84.8474 21.9613 83.7419 21.8604 82.7976 21.7742C82.7276 21.7678 82.6585 21.7615 82.5908 21.7547C81.512 21.6107 81.593 22.2054 81.6745 22.804C81.7042 23.0221 81.7339 23.2406 81.7077 23.4241C81.6416 23.755 81.6646 24.1304 81.6866 24.4903Z" fill="#0F428A"/>
<path fill-rule="evenodd" clip-rule="evenodd" d="M135.377 29.3163V21.6565V21.6564C135.377 19.3978 135.377 17.1391 135.279 14.8805C135.279 11.9344 134.788 11.4434 131.746 11.5416C131.158 11.5416 130.471 11.5416 129.784 11.6398C128.803 11.8362 127.822 12.3273 127.724 13.5057C127.664 14.1079 127.571 14.7142 127.478 15.3213C127.115 17.684 126.751 20.0581 128.312 22.2457C128.566 22.668 128.456 23.1628 128.358 23.6054C128.342 23.6775 128.326 23.7482 128.312 23.817C128.21 24.2785 128.114 24.7467 128.018 25.2164C127.746 26.5455 127.472 27.8864 127.037 29.1199C126.644 30.2984 126.939 31.084 128.116 31.3786C129.274 31.6682 129.483 30.724 129.676 29.8523C129.679 29.8373 129.683 29.8223 129.686 29.8073L129.686 29.8073C130.078 27.8433 130.471 25.8792 130.962 23.9152C131.158 23.2278 131.55 22.3439 132.433 22.5403C133.18 22.7065 133.155 23.2942 133.129 23.8875C133.125 23.9956 133.12 24.1039 133.12 24.2098C133.071 25.0445 133.046 25.8792 133.022 26.714C132.997 27.5487 132.973 28.3834 132.924 29.2181C132.826 30.2002 132.924 31.2804 134.199 31.2804C135.377 31.2804 135.377 30.2002 135.377 29.3163ZM129.603 16.2888C129.604 16.5663 129.604 16.8528 129.587 17.1392V18.3177C129.784 19.5943 131.452 20.6745 132.237 19.8889C133.213 18.9771 132.98 17.8926 132.742 16.7786C132.621 16.2127 132.498 15.6393 132.531 15.077C132.531 14.3896 132.335 13.9967 131.55 13.8985C129.599 13.8172 129.601 14.9489 129.603 16.2888Z" fill="#0F428A"/>
<path d="M169.617 46.432C169.617 47.5581 169.617 48.5717 169.617 49.6978C169.617 50.1483 169.617 50.7114 168.945 50.7114C168.385 50.7114 168.273 50.2609 168.273 49.6978C168.273 49.1348 168.273 48.4591 168.273 47.896C168.385 46.8825 167.712 46.7698 166.928 46.8825C166.144 46.8825 165.472 46.6572 165.359 47.896C165.247 48.7969 166.032 50.5988 164.799 50.5988C163.455 50.4861 164.239 48.6843 164.127 47.6708C164.015 46.0941 164.127 44.6301 164.127 43.0535C164.127 42.4905 164.351 42.1526 164.911 42.2652C165.472 42.3778 165.359 42.7157 165.472 43.1662C165.584 43.9545 165.023 44.968 165.92 45.5311C166.928 46.3194 168.161 45.4185 168.385 43.8418C168.385 43.2788 168.049 42.2652 169.169 42.2652C170.065 42.3778 169.617 43.2788 169.729 43.7292C169.617 44.6301 169.617 45.5311 169.617 46.432Z" fill="#0F428A"/>
<path d="M119.309 46.432C119.309 47.5581 119.309 48.5717 119.309 49.6978C119.309 50.1483 119.309 50.7114 118.636 50.7114C118.076 50.7114 117.964 50.2609 117.964 49.6978C117.964 49.1348 117.964 48.4591 117.964 47.896C118.076 46.8825 117.404 46.7698 116.62 46.8825C115.835 46.8825 115.163 46.6572 115.051 47.896C114.939 48.7969 115.723 50.5988 114.491 50.5988C113.146 50.4861 113.93 48.6843 113.818 47.6708C113.706 46.0941 113.818 44.6301 113.818 43.0535C113.818 42.4905 114.042 42.1526 114.603 42.2652C115.163 42.3778 115.051 42.7157 115.163 43.1662C115.275 43.9545 114.715 44.968 115.611 45.5311C116.62 46.3194 117.852 45.4185 118.076 43.8418C118.076 43.2788 117.74 42.2652 118.86 42.2652C119.757 42.3778 119.309 43.2788 119.421 43.7292C119.309 44.6301 119.309 45.5311 119.309 46.432Z" fill="#0F428A"/>
<path d="M93.65 46.4316C93.65 47.5577 93.65 48.5713 93.65 49.6974C93.65 50.1479 93.5379 50.7109 92.9777 50.7109C92.3054 50.7109 92.3054 50.1479 92.4175 49.6974C92.7536 47.6703 92.3054 46.5442 89.8405 46.7694C88.608 46.7694 87.5996 43.0531 88.4959 42.2648C88.9441 41.927 89.5043 41.8144 89.6164 42.7153C89.7284 43.2783 89.7284 43.8414 89.7284 44.5171C89.8405 45.5306 90.5127 45.7559 91.297 45.7559C92.3054 45.7559 92.4175 45.1928 92.3054 44.4045C92.3054 43.954 92.3054 43.5036 92.3054 43.0531C92.3054 42.7153 92.3054 42.2648 92.7536 42.1522C93.3138 42.0396 93.5379 42.49 93.5379 43.0531C93.65 44.0667 93.65 45.1928 93.65 46.4316Z" fill="#0F428A"/>
<path d="M174.435 46.882C173.987 45.7559 175.668 43.391 172.643 43.391C172.306 43.391 172.194 43.0532 172.194 42.7153C172.306 42.2648 172.53 42.2648 172.867 42.2648C173.875 42.2648 174.883 42.1522 175.892 42.2648C176.564 42.2648 177.46 41.8144 177.684 42.6027C178.021 43.7288 176.788 43.2784 176.34 43.5036C175.668 43.7288 175.78 44.4045 175.78 44.855C175.78 46.4316 175.78 47.8956 175.78 49.4722C175.78 50.0353 175.78 50.7109 175.107 50.7109C174.323 50.8236 174.435 50.0353 174.435 49.5848C174.435 48.6839 174.435 47.8956 174.435 46.882Z" fill="#0F428A"/>
<path d="M129.729 46.4319C129.729 47.558 129.729 48.5716 129.729 49.6977C129.729 50.1482 129.729 50.7113 129.056 50.7113C128.496 50.7113 128.384 50.2608 128.384 49.6977C128.384 49.1346 128.384 48.459 128.384 47.8959C128.496 46.8823 128.272 45.3057 128.384 43.8417C128.384 43.2787 128.048 42.2651 129.169 42.2651C130.065 42.3778 129.617 43.2787 129.729 43.7291C129.729 44.63 129.729 45.531 129.729 46.4319Z" fill="#0F428A"/>
<path d="M122.222 49.3598C122.222 49.6977 122.334 50.3734 122.446 50.3734C123.79 50.5986 125.359 51.1617 126.479 50.1481C127.152 49.4725 127.712 48.0085 127.152 46.8823C126.367 45.3057 125.359 45.5309 124.126 45.3057C122.894 45.0805 123.79 43.6165 123.566 42.7156C123.454 42.2651 123.23 41.9273 122.782 42.0399C122.334 42.0399 122.222 42.4904 122.222 42.8282C122.222 43.9543 122.222 44.9679 122.222 46.094C122.222 47.1076 122.222 48.2337 122.222 49.3598ZM124.575 46.7697C125.471 46.6571 126.031 46.9949 126.031 48.0085C126.031 48.9094 125.471 49.1346 124.687 49.2472C123.79 49.3598 123.454 48.9094 123.454 48.0085C123.566 47.3328 123.566 46.6571 124.575 46.7697Z" fill="#0F428A"/>
<path d="M160.541 47.7833C159.981 47.5581 159.645 47.8959 159.533 48.3464C159.309 49.3599 158.748 49.923 157.74 49.4725C156.843 49.1347 156.956 48.2338 156.956 47.5581C157.068 46.2067 158.076 46.995 158.748 46.8824C159.421 46.6572 160.541 47.3329 160.765 46.4319C161.101 45.3058 160.765 43.9544 160.093 42.9409C159.533 42.04 158.636 41.9273 157.628 42.1526C156.507 42.2652 155.947 43.1661 155.611 44.1796C155.387 44.8553 155.387 45.6436 155.387 46.2067C155.387 47.5581 155.275 48.7969 155.947 49.8104C156.507 50.9365 157.516 51.2744 158.636 51.0492C159.757 50.9365 160.429 50.2609 160.653 49.1347C160.765 48.5716 161.101 48.1212 160.541 47.7833ZM158.3 43.1661C159.084 43.1661 159.309 43.9544 159.421 44.4049C159.533 45.531 158.972 45.531 158.3 45.531C157.74 45.531 156.956 45.6436 157.068 44.6301C157.068 43.8418 157.292 43.1661 158.3 43.1661Z" fill="#0F428A"/>
<path d="M101.158 47.6703C100.598 47.4451 100.261 47.7829 100.149 48.2334C99.9252 49.1343 99.477 49.6974 98.4686 49.2469C97.5723 49.0217 97.5723 48.1208 97.6843 47.4451C97.7964 46.2063 98.8048 46.882 99.365 46.7694C100.037 46.5442 101.158 47.2199 101.382 46.3189C101.606 45.1928 101.382 43.954 100.71 42.9405C100.149 42.1522 99.253 42.0396 98.3566 42.1522C97.2361 42.2648 96.6759 43.1657 96.4518 44.0667C96.2277 44.7423 96.3398 45.5306 96.2277 45.9811C96.2277 47.3325 96.1157 48.4586 96.7879 49.4721C97.3482 50.4857 98.2445 50.8235 99.365 50.7109C100.373 50.5983 101.046 49.9226 101.27 48.9091C101.382 48.4586 101.606 48.0082 101.158 47.6703ZM98.9168 43.1657C99.7011 43.1657 99.9252 43.954 99.9252 44.4045C100.037 45.5306 99.477 45.5306 98.8048 45.5306C98.2445 45.5306 97.5723 45.6433 97.5723 44.7423C97.6843 43.954 98.0204 43.1657 98.9168 43.1657Z" fill="#0F428A"/>
<path d="M180.598 50.4857C180.598 49.9226 180.598 48.7965 180.598 48.2334C180.598 47.2199 180.822 46.9946 181.158 46.9946C181.494 46.9946 181.942 47.2199 181.942 48.2334C181.942 49.6974 181.83 51.0488 181.942 52.6254C181.942 53.0758 181.942 53.5263 181.27 53.5263C180.598 53.5263 180.598 53.0758 180.598 52.6254C180.598 51.7244 180.71 51.3866 180.598 50.4857Z" fill="#0F428A"/>
<path d="M181.942 46.6569C181.83 46.0939 181.046 45.6434 180.822 46.4317C180.486 47.5579 180.822 48.7966 181.494 49.8101C182.054 50.5985 182.951 50.7111 183.959 50.5985C185.079 50.4858 185.64 49.5849 185.976 48.684C186.088 48.0083 186.088 47.3326 186.088 46.7696C186.088 45.4182 186.2 44.292 185.528 43.2785C184.967 42.265 183.959 41.9271 182.838 42.0397C181.718 42.1524 181.046 42.828 180.822 43.8416C180.71 44.292 180.486 44.7425 181.046 44.9677C181.606 45.1929 181.942 44.8551 182.054 44.4046C182.278 43.5037 182.838 42.9407 183.847 43.3911C184.743 43.729 184.743 45.0803 184.743 45.4182C184.743 45.756 184.743 46.9948 184.631 47.8957C184.631 48.684 184.295 49.4723 183.287 49.4723C182.502 49.4723 182.166 49.0218 182.054 48.3462C181.942 47.6705 181.942 46.6569 181.942 46.6569Z" fill="#0F428A"/>
<path d="M180.597 45.3053C180.485 45.5305 180.597 45.8683 180.597 46.2062C180.597 47.1071 180.597 47.8954 180.597 48.7963C180.709 49.8099 180.597 50.2603 181.27 50.373C181.83 50.4856 181.942 49.0216 181.942 48.5711C181.942 47.8954 181.942 44.6296 181.942 43.7286C181.942 42.6025 181.27 41.4763 180.709 42.0394C180.037 42.9403 181.046 44.0665 180.597 45.3053Z" fill="#0F428A"/>
<path d="M110.457 44.5172C110.232 42.9406 109.336 41.9271 107.768 41.9271C106.199 41.8144 105.191 42.6027 104.742 44.292C104.294 45.8686 104.406 47.4452 104.854 49.0218C105.303 50.2605 106.311 50.9362 107.655 50.8236C109.112 50.8236 110.008 50.0353 110.345 48.7966C110.569 48.0082 110.569 47.1073 110.681 46.319C110.681 45.756 110.569 45.0803 110.457 44.5172ZM109.112 48.6839C108.776 49.247 108.328 49.5849 107.655 49.5849C106.983 49.5849 106.535 49.247 106.311 48.6839C105.863 47.3326 105.751 45.9812 106.199 44.6298C106.423 43.7289 106.759 42.9406 107.88 43.0532C108.776 43.1658 109.336 43.8415 109.448 44.6298C109.448 45.1929 109.784 45.6433 109.784 46.2064C109.784 46.4316 109.784 46.7695 109.784 46.8821C109.56 47.5578 109.336 48.1209 109.112 48.6839Z" fill="#0F428A"/>
<path d="M110.681 46.2065C110.793 48.5714 109 52.175 106.087 50.3732C103.51 48.7966 104.182 43.7289 104.855 41.2514C105.303 39.6748 106.199 39.1117 107.88 38.6613C108.552 38.5487 111.578 37.6478 110.345 39.4496C109.673 40.3505 107.768 39.9001 106.872 40.5757C105.863 41.2514 105.863 42.265 105.751 43.3911C106.648 42.1523 107.992 41.364 109.337 42.3776C110.345 43.2785 110.681 44.8551 110.681 46.2065ZM109.561 46.3191C109.561 45.1929 109.337 43.2785 107.88 43.2785C105.863 43.2785 105.639 45.4182 105.751 46.8822C105.863 48.0083 106.087 49.6975 107.656 49.5849C109.113 49.4723 109.561 47.5578 109.561 46.3191Z" fill="#0F428A"/>
<path d="M152.474 44.8552C152.586 46.0939 152.138 47.4453 152.586 48.7967C152.698 49.2471 152.586 49.585 153.147 49.9228C153.595 50.1481 153.371 50.7111 153.259 51.049C153.259 51.2742 152.698 51.2742 152.586 51.1616C151.466 49.9228 149.113 50.9364 147.768 50.4859C147.32 50.3733 147.096 49.6976 147.096 49.3598C147.096 47.2201 146.984 45.6435 146.984 43.5038C146.984 43.0533 146.76 42.1524 147.768 42.265C148.665 42.265 148.441 43.0533 148.441 43.5038C148.329 45.5309 148.441 47.1075 148.441 48.9093C148.441 49.3598 148.665 49.4724 149.113 49.4724C149.897 49.3598 151.354 49.4724 151.13 48.3462C150.794 46.5444 151.018 44.7426 151.018 42.9407C151.018 42.4903 151.13 42.265 151.69 42.265C152.25 42.265 152.362 42.6029 152.362 42.9407C152.474 43.5038 152.474 44.1795 152.474 44.8552Z" fill="#0F428A"/>
<path d="M134.211 47.7836C134.883 46.2069 135.556 44.7429 136.228 43.1663C136.452 42.6033 136.788 42.1528 137.572 42.2654C138.581 42.378 138.245 43.1663 138.245 43.7294C138.245 45.7565 138.245 47.7836 138.245 49.698C138.245 50.2611 138.245 50.9368 137.46 50.8242C136.788 50.7115 137.012 50.1485 137.012 49.698C137.012 48.3466 137.012 46.8826 137.012 45.1934C135.78 46.5448 135.444 48.1214 134.771 49.4728C134.435 50.1485 134.211 51.0494 133.203 50.8242C132.194 50.5989 132.53 49.698 132.53 49.1349C132.53 47.2205 132.53 45.306 132.53 43.3916C132.53 42.8285 132.53 42.2654 133.315 42.378C133.987 42.4906 133.875 42.9411 133.875 43.3916C133.875 44.8556 133.875 46.3196 133.875 47.7836C133.987 47.6709 134.099 47.6709 134.211 47.7836Z" fill="#0F428A"/>
<path d="M136.116 40.4635C136.228 40.3509 136.34 40.2383 136.452 40.2383C136.676 40.2383 136.9 40.3509 136.676 40.8014C136.564 41.477 136.116 41.7023 135.556 41.7023C135.108 41.7023 134.547 41.5897 134.323 41.0266C134.211 40.5761 134.323 40.2383 134.547 40.2383C134.771 40.2383 134.996 40.3509 134.996 40.4635C135.108 40.6887 135.22 40.914 135.556 40.914C135.78 40.914 136.004 40.6887 136.116 40.4635Z" fill="#0F428A"/>
<path d="M83.1176 50.2609C82.7815 51.2744 82.3333 52.288 81.9971 53.3015C81.8851 53.752 81.661 54.315 81.1008 53.9772C80.6526 53.752 80.6526 53.3015 80.8767 52.851C81.1008 52.288 81.3249 51.7249 81.549 51.1618C81.8851 50.1483 82.2212 48.6843 82.8935 47.2203C83.1176 46.6572 83.5658 45.8689 84.126 46.0941C84.5742 46.3194 84.2381 47.1077 84.126 47.6707C83.9019 48.5717 83.4537 49.36 83.1176 50.2609Z" fill="#0F428A"/>
<path d="M85.1347 45.0807C84.5744 46.6573 83.9022 48.1213 83.3419 49.6979C83.1178 50.3736 82.8938 50.8241 82.3335 50.8241C81.5492 50.7115 81.8853 50.3736 81.8853 49.8106C81.6612 47.8961 80.3167 45.5312 79.8685 43.5041C79.6444 42.941 79.4203 42.0401 80.2046 42.0401C80.8769 42.0401 80.989 42.7158 81.101 43.1663C81.4371 44.405 81.9974 46.2069 82.5576 47.8961C83.6781 46.4321 83.7901 44.8555 84.3504 43.3915C84.5744 42.7158 84.6865 41.9275 85.807 42.0401C86.8154 42.0401 85.2467 44.7429 85.1347 45.0807Z" fill="#0F428A"/>
<path d="M83.0059 47.2207C83.2299 46.6576 83.6781 45.6441 84.1263 45.9819C84.4624 46.2072 84.2383 46.9955 84.1263 47.5585" fill="#0F428A"/>
</svg>
