<svg width="1246" height="973" viewBox="0 0 1246 973" fill="none" xmlns="http://www.w3.org/2000/svg">
<g opacity="0.12">
<path d="M1443.08 263.351L1251.14 183.2L1119.95 196.412L955.301 206.981M955.301 206.981L648.9 128.593M955.301 206.981L866.374 344.382M648.9 128.593L315.206 23.7808M648.9 128.593L636.574 302.985M315.206 23.7808L53.7087 9.68848L347.783 187.604M315.206 23.7808L347.783 187.604M347.783 187.604L636.574 302.985M347.783 187.604L216.594 369.043M636.574 302.985L866.374 344.382M866.374 344.382L898.071 563.694M898.071 563.694L721.098 965.325M898.071 563.694L680.597 644.725C579.851 676.369 523.367 694.111 422.622 725.756M216.594 369.043L69.5569 472.974M216.594 369.043L9.68559 382.255" stroke="#11B4D4" stroke-width="2"/>
<ellipse rx="6.77171" ry="6.77412" transform="matrix(-1 0 0 1 1250.97 183.563)" fill="#11B4D4"/>
<ellipse rx="6.77172" ry="6.7741" transform="matrix(-1 0 0 1 953.37 206.464)" fill="#11B4D4"/>
<ellipse rx="6.77174" ry="6.77409" transform="matrix(-1 0 0 1 650.491 128.956)" fill="#11B4D4"/>
<ellipse rx="6.7717" ry="6.77409" transform="matrix(-1 0 0 1 867.085 345.625)" fill="#11B4D4"/>
<ellipse rx="6.77174" ry="6.7741" transform="matrix(-1 0 0 1 638.165 303.348)" fill="#11B4D4"/>
<ellipse rx="6.77172" ry="6.77409" transform="matrix(-1 0 0 1 898.781 562.295)" fill="#11B4D4"/>
<ellipse rx="6.77172" ry="6.77412" transform="matrix(-1 0 0 1 722.689 963.927)" fill="#11B4D4"/>
<ellipse rx="6.77172" ry="6.77412" transform="matrix(-1 0 0 1 754.386 893.465)" fill="#11B4D4"/>
<ellipse rx="6.77174" ry="6.77409" transform="matrix(-1 0 0 1 680.426 645.088)" fill="#11B4D4"/>
<ellipse rx="6.77174" ry="6.77409" transform="matrix(-1 0 0 1 425.093 726.118)" fill="#11B4D4"/>
<ellipse rx="6.77172" ry="6.7741" transform="matrix(-1 0 0 1 71.1472 470.695)" fill="#11B4D4"/>
<ellipse rx="6.77167" ry="6.77409" transform="matrix(-1 0 0 1 9.51544 380.856)" fill="#11B4D4"/>
<ellipse rx="6.77172" ry="6.77412" transform="matrix(-1 0 0 1 215.437 368.722)" fill="#11B4D4"/>
<ellipse rx="6.77172" ry="6.7741" transform="matrix(-1 0 0 1 347.612 187.087)" fill="#11B4D4"/>
<ellipse rx="6.77172" ry="6.7741" transform="matrix(-1 0 0 1 315.916 23.2629)" fill="#11B4D4"/>
<ellipse rx="6.77172" ry="6.7741" transform="matrix(-1 0 0 1 55.2996 9.17058)" fill="#11B4D4"/>
</g>
</svg>
