<svg width="1440" height="120" viewBox="0 0 1440 120" fill="none" xmlns="http://www.w3.org/2000/svg">
<g opacity="0.12">
<path d="M2074.41 -274.046L1860.86 -311.226L1635.95 -293.361L1382.23 -142.587M1382.23 -142.587L1243.79 72.3643L1088.67 -7.92506L1269.31 -233.31L1382.23 -142.587Z" stroke="#11B4D4" stroke-width="2"/>
<circle cx="1243.89" cy="70.5419" r="5.04679" transform="rotate(150 1243.89 70.5419)" fill="#11B4D4"/>
</g>
<g opacity="0.12">
<path d="M-510.025 292.768L-376.765 206.104L-276.327 197.983L-151.101 183.271M-151.101 183.271L68.4455 82.1806M-151.101 183.271L-65.3442 274.324M68.4455 82.1806L304.874 -42.5295M68.4455 82.1806L101.71 211.582M304.874 -42.5295L499.513 -89.1072L302.928 85.106M304.874 -42.5295L302.928 85.106M302.928 85.106L101.71 211.582M302.928 85.106L426.515 203.448M101.71 211.582L-65.3442 274.324M-65.3442 274.324L-58.9929 443.551M-58.9929 443.551L129.312 721.121M-58.9929 443.551L115.641 474.539C195.73 484.465 240.633 490.029 320.722 499.954M426.515 203.448L551.351 261.344M426.515 203.448L583.875 184.908" stroke="#11B4D4" stroke-width="2"/>
<ellipse rx="5.1752" ry="5.17699" transform="matrix(0.983656 -0.180058 0.180061 0.983655 67.2992 82.6722)" fill="#11B4D4"/>
<ellipse rx="5.17517" ry="5.17698" transform="matrix(0.983656 -0.180058 0.180062 0.983655 302.985 84.6932)" fill="#11B4D4"/>
</g>
</svg>
