<svg width="360" height="56" viewBox="0 0 360 56" fill="none" xmlns="http://www.w3.org/2000/svg">
<g opacity="0.12">
<path d="M-296.389 83.5397L-199.591 20.5879L-126.634 14.689L-35.6722 4.00305M-35.6722 4.00305L123.803 -69.4277M-35.6722 4.00305L26.6204 70.1421M123.803 -69.4277L295.541 -160.015M123.803 -69.4277L147.966 24.5677M295.541 -160.015L436.924 -193.848L294.128 -67.3027M295.541 -160.015L294.128 -67.3027M294.128 -67.3027L147.966 24.5677M294.128 -67.3027L383.9 18.6593M147.966 24.5677L26.6204 70.1421M26.6204 70.1421L31.2339 193.066M31.2339 193.066L168.016 394.689M31.2339 193.066L158.086 215.576C216.261 222.785 248.878 226.827 307.053 234.037M383.9 18.6593L474.578 60.7139M383.9 18.6593L498.203 5.19183" stroke="#11B4D4" stroke-width="2"/>
<ellipse rx="3.75915" ry="3.76047" transform="matrix(0.983655 -0.180061 0.180059 0.983656 147.133 24.9245)" fill="#11B4D4"/>
</g>
</svg>
