<svg xmlns="http://www.w3.org/2000/svg" viewBox="0 0 1440.72 968.3">
<g style="opacity:0.11999999731779099"><path d="M1444.08,263.35,1252.14,183.2l-131.19,13.21L956.3,207m0,0L649.9,128.59M956.3,207l-88.93,137.4M649.9,128.59,316.2,23.78M649.9,128.59,637.57,303M316.2,23.78,54.71,9.69,348.78,187.6M316.2,23.78,348.78,187.6m0,0L637.57,303M348.78,187.6,217.59,369m420-66.06,229.8,41.4m0,0,31.7,219.31m0,0-177,401.63m177-401.63-217.47,81-258,81M217.59,369,70.56,473M217.59,369,10.69,382.26" transform="translate(-3.74 -2.4)" style="fill:none;stroke:#11b4d4;stroke-width:2px"/><circle cx="950.63" cy="204.07" r="6.77" style="fill:#11b4d4"/><circle cx="647.75" cy="126.56" r="6.77" style="fill:#11b4d4"/><circle cx="864.34" cy="343.23" r="6.77" style="fill:#11b4d4"/><circle cx="635.42" cy="300.95" r="6.77" style="fill:#11b4d4"/><circle cx="896.04" cy="559.9" r="6.77" style="fill:#11b4d4"/><circle cx="719.95" cy="961.53" r="6.77" style="fill:#11b4d4"/><circle cx="751.64" cy="891.07" r="6.77" style="fill:#11b4d4"/><circle cx="677.68" cy="642.69" r="6.77" style="fill:#11b4d4"/><circle cx="422.35" cy="723.72" r="6.77" style="fill:#11b4d4"/><circle cx="68.4" cy="468.3" r="6.77" style="fill:#11b4d4"/><circle cx="6.77" cy="378.46" r="6.77" style="fill:#11b4d4"/><circle cx="212.69" cy="366.33" r="6.77" style="fill:#11b4d4"/><circle cx="344.87" cy="184.69" r="6.77" style="fill:#11b4d4"/><circle cx="313.17" cy="20.87" r="6.77" style="fill:#11b4d4"/><circle cx="52.56" cy="6.77" r="6.77" style="fill:#11b4d4"/></g></svg>
