<svg width="26" height="23" viewBox="0 0 26 23" fill="none" xmlns="http://www.w3.org/2000/svg">
<path d="M6.32422 12.3201L9.17162 20.2013C9.17162 20.2013 9.52762 20.9387 9.90882 20.9387C10.29 20.9387 15.9598 15.0403 15.9598 15.0403L22.2648 2.8623L6.42582 10.2857L6.32422 12.3201Z" fill="#C8DAEA"/>
<path d="M10.0991 14.3408L9.55254 20.15C9.55254 20.15 9.32374 21.93 11.1033 20.15C12.8829 18.37 14.5863 16.9974 14.5863 16.9974" fill="#A9C6D8"/>
<path d="M6.37652 12.601L0.519318 10.6926C0.519318 10.6926 -0.180682 10.4086 0.0447183 9.76461C0.0911182 9.63181 0.184718 9.51881 0.464718 9.32461C1.76252 8.42001 24.4859 0.252613 24.4859 0.252613C24.4859 0.252613 25.1275 0.0364127 25.5059 0.180213C25.5995 0.20919 25.6838 0.262514 25.75 0.334728C25.8162 0.406942 25.8621 0.495454 25.8829 0.591213C25.9238 0.760346 25.9409 0.934355 25.9337 1.10821C25.9319 1.25861 25.9137 1.39801 25.8999 1.61661C25.7615 3.84961 21.6199 20.5152 21.6199 20.5152C21.6199 20.5152 21.3721 21.4904 20.4843 21.5238C20.2661 21.5309 20.0488 21.4939 19.8452 21.4151C19.6416 21.3364 19.456 21.2174 19.2993 21.0654C17.5571 19.5668 11.5355 15.52 10.2049 14.63C10.1749 14.6096 10.1496 14.5829 10.1308 14.5519C10.112 14.5208 10.1 14.4861 10.0957 14.45C10.0771 14.3562 10.1791 14.24 10.1791 14.24C10.1791 14.24 20.6643 4.92001 20.9433 3.94161C20.9649 3.86581 20.8833 3.82841 20.7737 3.86161C20.0773 4.11781 8.00492 11.7416 6.67252 12.583C6.57661 12.612 6.47524 12.6182 6.37652 12.601V12.601Z" fill="white"/>
</svg>
