<svg width="129" height="38" viewBox="0 0 129 38" fill="none" xmlns="http://www.w3.org/2000/svg">
<path d="M23.3954 19.2221C24.8694 20.4291 25.3014 22.1497 25.7588 23.8703C25.9367 24.5893 26.0638 25.3084 26.0892 26.0531C26.0892 26.1558 26.0638 26.2842 26.1654 26.3356C26.3179 26.4126 26.3687 26.2585 26.4704 26.1815C27.2328 25.5908 27.4361 25.6422 28.173 26.2585C29.2658 27.183 29.6216 28.3386 29.4437 29.7254C29.4437 29.8024 29.3929 29.9051 29.4437 29.9822C30.0536 31.3176 29.3929 32.4989 29.0879 33.7315C28.9862 34.1681 28.7829 34.5533 28.6559 34.9642C28.1984 36.4793 27.1057 37.2497 25.6572 37.5836C23.0905 38.1742 20.5492 38.1486 18.0333 37.4295C17.6775 37.3268 17.4742 37.2497 17.7283 36.8389C17.9825 36.4537 17.6013 36.4793 17.4234 36.4793C16.661 36.3766 15.8986 36.505 15.1362 36.6077C13.0523 36.9159 10.9939 37.4038 8.88462 37.3011C3.9291 37.07 0.85414 33.2179 0.193404 29.5456C-0.314855 26.9262 0.24423 24.3839 1.10827 21.8672C1.28616 21.3279 1.48946 20.7886 1.74359 20.275C1.92148 19.8898 1.89607 19.4789 1.92148 19.0937C2.09937 16.3459 2.98883 13.8035 4.28488 11.4153C4.79314 10.4651 5.25058 9.51491 5.63177 8.51337C6.24168 6.97255 7.15655 5.63717 8.57967 4.71267C9.16417 4.35315 9.79949 4.09634 10.4602 3.91658C10.5873 3.8909 10.7652 3.91658 10.7652 3.71113C10.7652 3.09481 11.248 2.99208 11.68 2.9664C12.7474 2.88936 13.6623 2.42711 14.5009 1.83647C14.8821 1.57966 15.2633 1.32286 15.3141 0.757888C15.3395 0.424043 15.6445 0.24428 15.9748 0.141559C16.7626 -0.115245 17.4996 -0.0382041 18.1349 0.501084C18.3891 0.706528 18.6178 0.809249 18.9227 0.809249C20.3713 0.809249 21.7182 1.2715 23.0396 1.83647C23.3954 1.99055 23.6241 2.19599 23.5987 2.63256C23.5733 2.9664 23.7766 3.12049 24.0307 3.22321C24.2849 3.32593 24.5644 3.42865 24.8185 3.45433C25.9113 3.53137 26.7753 4.1477 27.7156 4.60995C28.1984 4.84107 28.1984 5.25196 28.0206 5.68853C27.8681 6.02237 27.7918 6.33054 27.741 6.69006C27.6902 7.04959 27.6394 7.40911 27.2073 7.51183C27.1819 7.51183 27.1565 7.51184 27.1565 7.53752C26.7499 8.56473 25.6572 8.48769 24.9202 8.94994C24.1578 9.43787 23.37 9.87443 22.506 10.2083C22.0739 10.388 21.5911 10.4394 21.1337 10.4394C20.7016 10.4394 20.727 10.7732 20.727 11.0301C20.7016 11.3639 21.0066 11.2098 21.1591 11.2098C23.1921 11.1841 24.9964 10.4137 26.6991 9.3865C27.9443 8.61609 28.1476 8.66745 29.1133 9.77171C29.2404 9.90011 29.342 10.0028 29.5199 9.92579C29.9774 9.72035 30.3331 9.97715 30.6635 10.2083C31.3751 10.6962 32.0612 11.2612 32.849 11.6207C33.0523 11.7234 33.3064 11.9289 33.4843 11.7748C33.6876 11.6207 33.4589 11.3639 33.4081 11.1585C33.2556 10.4651 32.7982 10.0028 32.2391 9.61763C31.5784 9.15538 30.8668 8.79585 30.1807 8.35929C29.4183 7.84568 28.8846 7.22935 28.8846 6.15077C28.8846 5.56012 28.9862 5.329 29.4945 4.99516C30.384 4.45587 31.3496 4.32746 32.3153 4.09634C32.5441 4.04498 32.8236 4.04498 33.0015 3.86522C34.2213 2.5812 35.7207 2.7096 37.22 3.06912C37.6775 3.17185 38.1095 3.17185 38.5415 3.09481C39.2785 2.9664 39.9392 3.32593 40.1679 4.07066C40.2696 4.35315 40.4475 4.50723 40.6762 4.63563C41.7944 5.35468 42.7346 6.30486 43.5479 7.38343C43.929 7.89704 44.3611 8.41065 44.2594 9.1297C44.234 9.23242 44.3102 9.28378 44.3611 9.36082C46.4703 11.4409 46.9786 13.9576 46.5466 16.8081C46.3433 18.2462 46.4449 19.6843 47.1819 21.0197C47.6393 21.8672 47.7156 22.843 47.6139 23.7932C47.5631 24.3068 47.5631 24.7947 47.6393 25.3084C47.6902 25.7192 47.6902 26.1558 47.5885 26.5667C47.4614 27.0289 47.2327 27.3885 46.6991 27.3628C46.4703 27.3628 46.3687 27.4655 46.2924 27.6966C45.8604 29.1091 45.5809 30.5215 45.8858 32.0109C46.0637 32.7814 45.8096 33.3977 45.2251 33.7572C44.1324 34.3992 43.5479 35.4264 42.8617 36.3766C41.6927 37.9945 39.558 38.2513 38.0587 36.9159C37.8808 36.7618 37.7029 36.6848 37.4488 36.6591C36.6101 36.5821 36.0256 36.1712 35.6953 35.3751C35.5936 35.0926 35.5428 34.7844 35.6953 34.5019C36.2289 33.6031 36.0765 32.7043 35.619 31.8569C35.1616 30.958 34.9583 29.9822 34.9329 29.0063C34.9329 27.748 34.5517 26.6181 34.1197 25.4881C33.5606 24.05 33.4843 22.5606 33.6114 21.0197C33.6368 20.7116 33.7131 20.4804 33.2302 20.352C32.7982 20.2493 32.5695 19.6843 32.4424 19.2478C32.2391 18.6058 31.8071 18.3233 31.248 18.2206C30.1044 17.9894 29.0625 17.5272 28.2493 16.6541C28.1222 16.5257 28.046 16.5 27.9189 16.6541C27.0803 17.6813 25.8859 18.1692 24.6915 18.6315C24.1832 18.7342 23.7512 18.8883 23.3954 19.2221Z" fill="#0F2D57"/>
<path d="M13.6369 12.9558C13.0778 13.2126 12.5695 13.5207 12.0358 14.0087C12.3916 13.983 12.5949 13.8289 12.7982 13.7262C14.1451 12.8274 15.6699 12.5449 17.2455 12.3651C19.4056 12.1083 21.5403 11.8002 23.7004 11.492C24.6915 11.3379 25.5809 10.8757 26.445 10.3877C26.8008 10.1823 27.1565 9.95116 27.5377 9.79708C28.1476 9.54028 28.5797 9.74572 28.6813 10.4134C28.8084 11.5177 28.7067 12.5962 28.1476 13.5721C27.8173 14.1628 27.4107 14.6764 26.8516 15.0616C24.539 16.6794 22.5822 18.7082 20.7779 20.891C20.0917 21.7128 19.3294 22.5089 18.5415 23.2536C18.2874 23.4847 18.0841 23.5361 17.7283 23.4077C15.5682 22.7143 13.4336 22.7657 11.3751 23.8443C11.3243 23.9213 11.2226 23.9727 11.1464 24.024C11.0702 24.024 11.1464 23.947 11.121 24.024C11.121 24.0497 11.1464 24.0497 11.1718 24.024C11.248 23.9983 11.3243 23.9727 11.4005 23.9727C12.6966 23.5104 14.018 23.3307 15.3903 23.2793C17.0168 23.2279 18.4145 23.7672 19.6343 24.8458C21.3878 26.3866 22.7601 28.2613 24.0816 30.213C24.3611 30.6239 24.6152 31.0605 24.9456 31.4713C24.7169 30.8293 25.1743 30.5725 25.5301 30.2644C25.9875 29.8792 26.4704 29.4683 27.0295 29.2115C27.6394 28.929 27.9952 29.0317 28.478 29.494C29.2658 30.2644 29.3166 31.1632 29.0879 32.1647C28.8338 33.1919 28.478 34.1678 28.046 35.1436C27.614 36.1195 26.8262 36.6331 25.8605 36.9669C23.4971 37.8144 21.1337 37.7887 18.7194 37.2751C18.4653 37.2238 18.2874 37.121 18.4653 36.8385C18.7449 36.3763 18.4399 36.3249 18.1095 36.2479C16.7372 35.9911 15.3649 36.1709 14.0181 36.3763C12.722 36.5817 11.4513 36.8642 10.1553 36.9413C8.09684 37.0183 6.29252 36.2993 4.56444 35.2207C1.84526 33.5258 0.803327 30.9577 0.650849 27.9018C0.549197 25.7703 0.955804 23.7159 1.76902 21.7385C1.97232 21.2249 2.30269 20.7883 2.53141 20.3004C2.76012 19.8381 2.40434 19.2988 2.48058 18.7595C2.88719 16.1658 3.42086 13.6491 5.12352 11.5433C5.276 11.3636 5.40307 11.1838 5.55554 11.0297C5.75885 10.7729 6.21628 10.5932 5.78426 10.1566C5.6572 10.0282 5.73343 9.74572 5.83509 9.54028C6.62289 7.51153 7.74106 5.73958 9.82492 4.81508C10.384 4.55828 10.9685 4.37852 11.5784 4.37852C11.4513 3.68514 11.5022 3.53106 12.1629 3.45402C13.4081 3.3513 14.4247 2.78633 15.2887 1.93888C15.5174 1.73343 15.5937 1.78479 15.7207 2.0416C15.8478 2.32408 16.0257 2.60657 16.3306 2.76065C16.2036 2.37544 16.0003 2.0416 15.924 1.65639C15.7715 0.783259 16.2544 0.346692 17.093 0.552135C17.4996 0.654857 17.8554 0.808939 18.1095 1.14278C18.3128 1.42527 18.567 1.45095 18.8465 1.37391C20.2442 1.06574 21.464 1.63071 22.7093 2.17C22.9634 2.27272 23.1159 2.50385 23.1159 2.78633C23.0905 3.27426 23.3954 3.53106 23.802 3.63378C24.1578 3.73651 24.539 3.83923 24.9202 3.89059C25.5301 3.96763 26.0892 4.19875 26.6483 4.45556C26.9532 4.60964 27.3344 4.73804 27.1057 5.22597C27.0549 5.30301 27.0803 5.40573 27.1565 5.45709C27.6648 5.8423 27.5123 6.35591 27.3598 6.81815C27.2582 7.12632 26.877 7.04928 26.6483 7.20336C26.5466 7.2804 26.4196 7.35744 26.2925 7.4088C26.4196 7.4088 26.5466 7.25472 26.6483 7.4088C26.6737 7.66561 26.5466 7.81969 26.3433 7.89673C25.0727 8.35898 23.9291 9.05235 22.7093 9.61732C21.9469 9.97684 21.1337 10.0282 20.3205 9.8998C20.1934 9.87412 20.0409 9.82276 19.8884 9.92548C19.9647 10.1309 20.4983 10.1052 20.2188 10.4905C19.9138 10.9013 20.1934 11.6974 19.2785 11.7745C17.9825 11.8772 16.7118 12.1597 15.4158 12.3908C15.0854 12.4422 15.0092 12.3651 14.9329 12.057C14.755 11.1581 14.5009 10.285 14.1959 9.41188C14.1451 9.36051 14.0943 9.30915 14.0435 9.28347C14.0943 9.3862 14.0181 9.5146 14.0943 9.61732C14.2468 10.4134 14.3992 11.2095 14.5771 11.9799C14.6788 12.3651 14.5771 12.4678 14.1959 12.4935C12.9253 12.5962 11.7055 12.9044 10.6127 13.5978C11.6038 13.341 12.5441 12.9301 13.5606 12.853C13.6369 12.8017 13.6623 12.853 13.6369 12.9558Z" fill="white"/>
<path d="M29.8504 7.15227C29.088 6.63867 29.1643 5.61145 30.0029 5.1492C30.5366 4.86672 31.0956 4.73832 31.6801 4.60991C32.3663 4.45583 33.1033 4.43015 33.6369 3.94222C34.4501 3.19749 35.3396 3.19749 36.3307 3.37725C36.9152 3.47998 37.4997 3.5827 38.0842 3.68542C38.1859 3.7111 38.2875 3.73678 38.3892 3.7111C39.4819 3.55702 39.9139 3.99358 39.6598 5.17488C39.8377 4.84104 39.9902 4.91808 40.1681 5.0208C41.3625 5.66281 42.3536 6.51026 43.1414 7.61452C43.4463 8.05109 43.7259 8.48765 43.6496 9.05262C43.6242 9.23239 43.7005 9.36079 43.8529 9.48919C45.1236 10.6962 45.8606 12.2113 46.0639 13.9576C46.2418 15.4727 46.013 16.9879 46.0384 18.4773C46.0384 19.2991 46.2163 20.0438 46.6738 20.7115C47.055 21.2508 47.1566 21.9185 47.182 22.5605C47.2074 23.5364 47.2074 24.4865 47.182 25.4624C47.182 25.7962 47.1566 26.1301 46.9025 26.3869C46.8008 26.4896 46.6992 26.5667 46.5721 26.4896C46.3942 26.4126 46.5467 26.2842 46.5721 26.1815C46.7246 25.5394 46.8771 24.9231 46.75 24.127C46.318 26.541 45.2761 28.7238 45.3523 31.1121C45.3523 31.3689 45.4031 31.6257 45.4031 31.9082C45.4285 32.4988 45.1998 32.9611 44.7424 33.3206C43.9546 33.9369 43.243 34.6046 42.6839 35.4521C42.074 36.4023 41.2608 37.1213 40.0156 36.9672C39.8377 36.9415 39.6344 36.9159 39.4565 36.8388C38.1096 36.4023 37.9063 35.8373 38.6433 34.656C39.0499 34.014 39.0499 34.014 39.4057 34.0397C37.9571 32.242 37.2202 30.1106 36.7373 27.8764C36.6103 27.7223 36.5848 27.5425 36.6103 27.3628C36.5594 27.183 36.4832 27.0289 36.4832 26.8235C36.4324 26.7721 36.4069 26.8748 36.4578 26.8235C36.534 27.0032 36.5086 27.183 36.5848 27.3628C36.5848 27.4912 36.6103 27.6196 36.6103 27.7736C36.5594 27.8507 36.6102 28.0304 36.4324 27.9791C35.6191 27.26 35.1109 26.3099 34.7551 25.3083C34.0181 23.2282 33.9927 21.1224 34.628 19.0166C34.7551 18.6057 34.933 18.5287 35.2888 18.6057C35.9495 18.7341 36.6357 18.8112 37.2964 18.9139C37.5759 18.9653 37.703 18.8882 37.7284 18.5801C37.7792 17.9894 38.0588 17.4501 38.3383 16.9108C38.3637 16.8595 38.3892 16.7824 38.3637 16.7567C38.3383 16.7311 38.2875 16.7824 38.2367 16.8081C37.8555 17.219 37.6522 17.7069 37.4997 18.2462C37.4235 18.5287 37.2964 18.6314 36.9914 18.6057C34.2977 18.4003 31.8326 17.6556 29.9521 15.5498C29.4946 15.2673 29.2151 14.8564 29.0372 14.3685C28.6306 13.8292 28.5035 13.2642 28.7831 12.5965C28.961 12.1343 28.9864 11.5693 29.0118 11.03C29.0372 10.7219 29.0626 10.4907 29.3676 10.3623C29.6725 10.2339 29.9521 10.2082 30.2316 10.4394C31.2735 11.2355 32.4171 11.8775 33.6624 12.2884C33.8402 12.3397 34.0435 12.3654 34.2214 12.3911C35.0855 12.4424 35.9749 12.5965 36.839 12.3911C37.0677 12.3397 37.2964 12.2627 37.5251 12.1856C36.5086 12.5195 35.4921 12.6479 34.4247 12.2884C34.1198 11.9031 34.1452 11.3895 34.0181 10.953C33.9165 10.6448 33.8657 10.3366 33.7386 10.0542C33.5861 9.746 33.3574 9.56623 33.027 9.43783C31.9343 9.02694 30.994 8.30789 29.9775 7.74292C29.7996 7.6402 29.8504 7.48612 29.8504 7.33204C30.4349 7.30636 30.994 7.5118 31.5785 7.48612C31.6801 7.48612 31.7564 7.46044 31.8326 7.48612C31.1719 7.43476 30.4349 7.6402 29.8504 7.15227Z" fill="white"/>
<path d="M25.5559 28.3645C25.8862 27.8509 26.1658 27.3116 26.547 26.8237C26.9536 26.2844 27.2585 26.2844 27.7922 26.6696C28.8595 27.4144 29.3678 28.4159 29.0374 29.8026C28.8341 29.5458 28.6816 29.289 28.4783 29.0579C28.0717 28.57 27.7922 28.4929 27.2077 28.7497C26.3691 29.1093 25.6321 29.6486 25.0222 30.3419C24.7935 30.5987 24.6664 30.6244 24.4631 30.2906C24.0057 29.5715 23.5228 28.8781 23.0146 28.2361C22.7096 27.8252 22.735 27.3373 22.6588 26.8751C22.3284 25.0774 21.6677 23.4339 20.4225 22.0985C20.27 21.9188 20.27 21.816 20.4225 21.6619C20.9561 21.0199 21.5152 20.3779 22.0489 19.7359C22.2268 19.5305 22.4047 19.5048 22.6334 19.6075C23.1416 19.8386 23.5482 20.1982 23.8278 20.6604C24.641 21.9188 24.9968 23.3312 25.2255 24.8206C25.3017 25.2829 25.3526 25.7708 25.4796 26.2074C25.6829 26.9521 25.6575 27.6712 25.4288 28.3902C25.4542 28.4416 25.4034 28.4929 25.4288 28.5443C25.4796 28.4673 25.505 28.4159 25.5559 28.3645Z" fill="#C9D4EB"/>
<path d="M35.4666 27.748C35.8732 27.9792 36.2035 28.1846 36.5339 28.3644C36.7118 28.4671 36.7118 28.6469 36.7372 28.8266C36.9659 30.1106 37.2709 31.3947 37.8808 32.576C38.0078 32.8328 38.1349 33.0896 38.3382 33.2693C38.7702 33.6289 38.7448 33.937 38.4145 34.3736C38.1095 34.7845 37.8045 35.2467 37.8554 35.8117C37.8808 36.0171 37.7537 35.9915 37.6267 35.9658C37.22 35.8887 36.8134 35.7603 36.4577 35.5292C36.1527 35.3238 36.0002 35.0413 36.1781 34.6818C36.3814 34.3222 36.2798 33.7573 36.8389 33.6032C36.9913 33.5775 36.8389 33.3977 36.788 33.295C36.1019 32.1137 35.7715 30.804 35.5174 29.4686C35.4411 28.9293 35.492 28.3901 35.4666 27.748Z" fill="#C9D4EB"/>
<path d="M18.4653 23.6646C18.9228 23.1766 19.3802 22.7401 19.8122 22.2778C20.0409 22.021 20.168 22.0467 20.3713 22.2778C21.4895 23.6132 22.1756 25.1283 22.4297 26.8746C22.4552 27.0544 22.4552 27.2341 22.506 27.568C21.3116 26.0015 20.0155 24.6918 18.4653 23.6646Z" fill="#FEFEFE"/>
<path d="M29.8248 15.7038C30.8668 17.0135 32.1628 17.8866 33.7639 18.2975C34.1705 18.4002 34.3229 18.5286 34.1451 18.9395C34.0942 19.0422 34.1196 19.1963 34.0688 19.299C33.9926 19.4531 34.0688 19.6842 33.8147 19.7099C33.586 19.7356 33.3827 19.6842 33.3064 19.4531C32.8236 18.2975 31.8579 17.8353 30.7651 17.4757C29.8248 17.1676 28.8846 16.808 28.3001 15.9092C28.2492 15.8322 28.1984 15.7551 28.1476 15.6781C27.5885 14.5738 27.6139 14.7536 28.4271 13.8291C28.5796 14.0602 28.7321 14.2913 28.8846 14.5225C29.2912 14.8563 29.5961 15.2672 29.8248 15.7038Z" fill="#C9D3EA"/>
<path d="M23.2429 18.5539C24.4627 17.1415 25.835 15.9345 27.4107 14.9844C27.6648 15.5493 27.614 16.0116 27.1565 16.4482C26.3941 17.1672 25.5301 17.7579 24.539 18.1174C24.1324 18.2458 23.7004 18.3999 23.2429 18.5539Z" fill="#C9D3EA"/>
<path d="M34.4245 12.3399C35.6189 12.494 36.8133 12.494 37.9823 11.9033C37.5249 12.6224 35.4918 12.8792 34.2212 12.4426C34.2974 12.3912 34.3483 12.3656 34.4245 12.3399Z" fill="#0F2D57"/>
<path d="M29.8503 7.15234C30.0282 7.2037 30.2315 7.25506 30.4603 7.28074C30.689 7.30642 30.9177 7.30642 31.1718 7.3321C31.6038 7.4605 32.6712 7.15234 32.8491 7.17802C32.6712 7.25506 33.1795 7.35778 32.9507 7.38346C32.722 7.40914 31.426 7.69162 31.1718 7.56322C30.9177 7.56322 30.689 7.53754 30.4603 7.51186C30.2315 7.48618 30.0282 7.43482 29.8503 7.38346C29.8503 7.35778 29.8503 7.35778 29.8503 7.3321C29.8503 7.30642 29.8503 7.30642 29.8503 7.28074C29.8503 7.25506 29.8503 7.25506 29.8503 7.22938C29.8503 7.2037 29.8503 7.17802 29.8503 7.15234Z" fill="#0F2D57"/>
<path d="M29.8251 15.704C29.4438 15.3701 29.1897 14.9335 28.9102 14.5226C28.9356 14.497 28.9864 14.4456 29.0118 14.4199C29.3168 14.8051 29.6217 15.216 29.9267 15.6012C29.9013 15.6526 29.8505 15.6783 29.8251 15.704Z" fill="#0F2D57"/>
<path d="M26.5973 7.35779C26.3686 7.33211 26.1653 7.58892 25.8604 7.48619C26.0891 7.28075 26.3432 7.20371 26.5973 7.15234C26.5973 7.22939 26.5973 7.30643 26.5973 7.35779Z" fill="#0F2D57"/>
<path d="M14.0688 9.5922C13.9163 9.41244 13.9671 9.207 13.8401 8.9502C14.1196 9.05292 14.0942 9.25836 14.1704 9.38676C14.1196 9.43812 14.0942 9.51516 14.0688 9.5922Z" fill="#8AA7D5"/>
<path d="M25.5559 28.3643C25.5305 28.544 25.4542 28.7238 25.2764 28.8779C25.2764 28.6467 25.3272 28.4927 25.4542 28.3643C25.4797 28.3643 25.5305 28.3643 25.5559 28.3643Z" fill="#0F2D57"/>
<path d="M38.2112 16.8592C38.2874 16.7052 38.3637 16.6024 38.6432 16.5254C38.5161 16.7052 38.4145 16.8336 38.3382 16.962C38.262 16.9363 38.2366 16.9106 38.2112 16.8592Z" fill="#7B9CD0"/>
<path d="M13.6371 12.9559C13.6116 12.9303 13.5608 12.8789 13.5354 12.8532C13.6625 12.7248 13.8149 12.7505 14.0183 12.8018C13.8658 12.8532 13.7641 12.9046 13.6371 12.9559Z" fill="#A3B7DE"/>
<path d="M36.534 27.8257C36.534 27.6973 36.5085 27.5432 36.5085 27.4148C36.534 27.3891 36.5848 27.3891 36.6102 27.4148C36.6356 27.5945 36.661 27.7743 36.7118 27.9284H36.6864H36.661C36.5594 27.9541 36.5594 27.877 36.534 27.8257Z" fill="#0F2D57"/>
<path d="M36.5338 27.8252C36.5592 27.8766 36.61 27.9022 36.6354 27.9536C36.61 28.0306 36.6354 28.159 36.5846 28.1847C36.5084 28.2361 36.4321 28.159 36.4067 28.0563C36.5084 28.005 36.5084 27.9022 36.5338 27.8252Z" fill="#0F2D57"/>
<path d="M11.3495 23.9468C11.2733 23.9724 11.2225 24.0238 11.1462 24.0495C11.0446 24.1008 11.0192 24.0495 11.0446 23.9468C11.1462 23.8954 11.2479 23.8697 11.3495 23.8184C11.3495 23.8697 11.3495 23.8954 11.3495 23.9468Z" fill="#0F2D57"/>
<path d="M6.75001 18.4513C7.35992 19.1447 7.919 19.8894 8.42726 20.6598C8.85928 21.3275 8.83387 21.9439 8.40185 22.6116C7.84276 23.4333 7.86818 23.459 8.73222 23.9469C9.06259 24.1267 9.41837 24.2808 9.77415 24.4349C9.90121 24.4862 10.0791 24.5119 10.2824 24.5376C9.8758 24.9228 9.54543 25.3594 9.24048 25.8216C8.93552 26.2839 8.65598 26.7461 8.3002 27.1827C8.57974 26.2582 9.11341 25.5134 9.77415 24.8201C9.24048 24.666 8.78304 24.5889 8.32561 24.3835C7.99524 24.2294 7.66487 24.0497 7.41075 23.7672C6.97873 23.3563 7.00414 23.2536 7.5124 22.9711C8.3002 22.5345 8.55433 21.7898 8.12231 20.9167C7.84276 20.3517 7.46157 19.8124 7.10579 19.2731C6.95331 19.042 6.80083 18.8109 6.64836 18.5797C6.59753 18.4513 6.64836 18.4257 6.75001 18.4513Z" fill="#0F2D57"/>
<path d="M26.0382 7.5115C24.8692 7.97375 23.3191 7.89671 22.2009 7.3831C22.0484 7.30606 22.0992 7.22902 22.1246 7.1263C22.1501 7.02358 22.2263 6.89518 22.3534 7.02358C23.2428 7.89671 25.0217 7.66559 26.0637 7.33174C26.1399 7.33174 25.962 7.5115 26.0382 7.5115Z" fill="#0F2D57"/>
<path d="M17.271 1.24609C17.1185 1.57994 16.9914 1.86242 16.9914 2.22195C16.534 1.68266 16.5848 1.52858 17.271 1.24609Z" fill="#0F2D57"/>
<path d="M21.7693 3.73699C21.9726 3.53154 22.1759 3.30042 22.5063 3.40314C22.5317 3.40314 22.5825 3.55722 22.5571 3.5829C22.3284 3.76267 22.0488 3.76267 21.7693 3.73699Z" fill="#0F2D57"/>
<path d="M34.9328 4.84099C34.7549 4.60986 34.6024 4.35305 34.2466 4.37873C34.2212 4.37873 34.145 4.53282 34.1704 4.5585C34.5262 4.63554 34.6533 4.8153 34.9328 4.84099Z" fill="#0F2D57"/>
<path d="M6.75029 18.452C6.72488 18.4777 6.67405 18.529 6.64864 18.5547C6.52157 18.452 6.41992 18.3236 6.41992 18.1182C6.62323 18.1438 6.67405 18.2979 6.75029 18.452Z" fill="#0F2D57"/>
<path d="M11.0447 23.9473C11.0701 23.9729 11.1209 23.9986 11.1463 24.05C11.0447 24.1527 10.943 24.2041 10.7905 24.2298C10.7651 23.9986 10.943 23.9986 11.0447 23.9473Z" fill="#0F2D57"/>
<path d="M8.22381 27.7742C8.09675 27.543 8.12216 27.466 8.17299 27.3633C8.17299 27.3633 8.24923 27.3633 8.24923 27.389C8.32546 27.4917 8.22381 27.543 8.22381 27.7742Z" fill="#0F2D57"/>
<path d="M42.4046 11.3634C42.125 10.8498 41.8709 10.3362 41.261 10.1051C41.9471 9.8483 42.3538 10.2592 42.5062 11.235C42.5317 11.3634 42.4808 11.3891 42.4046 11.3634Z" fill="#0F2D57"/>
<path d="M32.6206 7.04984C32.646 6.87008 32.9764 6.9728 33.2559 7.56346C32.951 7.46073 32.7731 7.28097 32.6206 7.04984Z" fill="#0F2D57"/>
<path d="M22.4046 7.04984C22.3792 6.87008 22.0488 6.9728 21.7693 7.56345C22.0742 7.46073 22.2521 7.28097 22.4046 7.04984Z" fill="#0F2D57"/>
<path d="M38.7451 4.89253C38.7451 4.66141 38.5672 4.53301 38.6688 4.35324C38.6688 4.32756 38.7705 4.32756 38.7959 4.35324C38.9738 4.48165 38.9484 4.63573 38.7451 4.89253Z" fill="#0F2D57"/>
<path d="M36.6104 27.4146C36.585 27.4146 36.5342 27.4146 36.5088 27.4146C36.3563 27.2605 36.4325 27.0551 36.4834 26.8496C36.5342 27.0551 36.585 27.2348 36.6104 27.4146Z" fill="#0F2D57"/>
<path d="M39.6853 34.2704C39.8124 34.2447 39.914 34.2704 40.0157 34.3474C39.8886 34.3988 39.7615 34.4244 39.6853 34.2704Z" fill="#0F2D57"/>
<path d="M42.4043 11.3638C42.4297 11.3124 42.4805 11.2867 42.5059 11.2354C42.5822 11.3381 42.633 11.4665 42.5568 11.6206C42.4297 11.5692 42.4297 11.4665 42.4043 11.3638Z" fill="#0F2D57"/>
<path d="M25.022 29.417C24.9966 29.5711 24.9458 29.7252 24.717 29.8022C24.7933 29.5968 24.8187 29.4427 25.022 29.417Z" fill="#0F2D57"/>
<path d="M25.0474 29.4174C25.0474 29.289 24.9711 29.1093 25.1999 29.0322C25.2253 29.212 25.149 29.3147 25.0474 29.4174C25.0219 29.4174 25.0474 29.4174 25.0474 29.4174Z" fill="#0F2D57"/>
<path d="M57.748 28.7531C58.1157 27.2809 58.5447 25.87 58.9124 24.3978C59.0963 23.6617 59.2189 22.8643 60.322 23.0483C61.4252 23.2323 61.1188 24.0298 61.1188 24.7045C60.9962 27.5876 61.0575 30.4706 61.2414 33.415C61.3026 34.2125 61.5478 35.4393 60.5672 35.562C59.464 35.6234 59.893 34.3965 59.7705 33.6604C59.6479 32.7403 59.5866 31.7588 59.464 30.7774C58.5447 31.2681 59.1576 32.9857 57.5641 32.8016C56.2158 32.6789 56.5223 31.4521 56.1545 30.7774C55.6642 30.9 55.8481 31.2681 55.8481 31.5135C55.7868 32.3722 55.8481 33.2924 55.7868 34.1512C55.7255 34.7032 55.7255 35.4393 54.9288 35.5007C54.0708 35.5007 54.3159 34.7646 54.1934 34.2738C53.8869 33.047 54.3159 31.8815 54.3159 30.6547C54.3159 28.6304 54.3159 26.5448 54.3159 24.5205C54.1934 23.6617 54.3772 23.1096 55.1127 23.0483C55.8481 22.987 56.0933 23.6004 56.1545 24.2138C56.3384 25.8087 56.89 27.2809 57.3803 28.7531C57.5641 28.8144 57.6254 28.8144 57.748 28.7531Z" fill="white"/>
<path d="M107.697 28.9981C108.248 27.7099 108.8 26.4218 109.351 25.0722C109.535 24.7042 109.719 24.3361 109.903 23.9681C110.087 23.6614 110.393 23.4774 110.761 23.5387C111.251 23.6 111.129 24.0294 111.129 24.3361C111.251 27.6486 111.313 30.9611 111.435 34.2735C111.435 34.9483 111.251 35.5617 110.577 35.5617C109.719 35.5617 109.842 34.8256 109.842 34.2122C109.842 32.74 109.964 31.3291 109.474 29.6115C108.616 31.0837 108.493 32.6173 107.819 33.9668C107.758 34.1508 107.697 34.3349 107.635 34.5802C107.513 35.1323 107.206 35.5617 106.655 35.5004C105.981 35.5004 105.674 34.8869 105.674 34.3962C106.042 31.0837 105.123 27.7099 105.858 24.3975C105.981 23.9681 105.981 23.416 106.655 23.4774C107.268 23.5387 107.329 24.0294 107.329 24.5202C107.329 25.9924 107.329 27.5259 107.329 28.9981C107.452 28.9981 107.574 28.9981 107.697 28.9981Z" fill="white"/>
<path d="M119.035 27.4034C119.157 29.1823 118.728 31.1453 119.157 33.1082C119.28 33.7216 119.096 34.2737 119.77 34.7644C120.26 35.1325 120.015 35.8686 119.893 36.4207C119.831 36.7274 119.28 36.7887 119.157 36.6047C117.87 34.8258 115.909 36.4207 114.377 35.6846C113.887 35.4392 113.641 35.3779 113.641 34.8258C113.58 31.6973 113.458 28.5076 113.519 25.3791C113.519 24.7044 113.274 23.4775 114.438 23.5389C115.419 23.6002 115.174 24.643 115.235 25.3791C115.235 28.0168 115.235 30.5932 115.235 33.2309C115.235 33.8443 115.48 34.0897 116.093 33.967C117.012 33.783 117.809 33.8443 117.625 32.2494C117.257 29.6731 117.502 27.0354 117.441 24.459C117.441 23.9069 117.625 23.4775 118.299 23.4775C118.973 23.4775 119.096 23.9683 119.096 24.5204C119.035 25.5018 119.035 26.3606 119.035 27.4034Z" fill="white"/>
<path d="M88.3916 30.225C88.3916 28.3234 88.3916 26.4832 88.3916 24.5816C88.3916 23.6001 88.9432 23.048 89.9238 23.2934C90.7818 23.4774 91.7011 22.9253 92.4365 23.6614C92.6204 23.8455 92.9881 23.8455 92.8042 24.2135C92.7429 24.3975 92.4978 24.4589 92.3139 24.5202C92.1914 24.5816 92.0688 24.5816 91.9462 24.5816C89.9851 24.8269 89.9851 24.8269 89.8625 26.7285C89.8012 28.3848 89.9238 28.5074 91.6398 28.6301C92.1914 28.6301 92.6817 28.7528 92.6817 29.3662C92.6817 30.041 92.2527 30.225 91.6398 30.3477C91.0882 30.4704 90.1689 29.9796 89.9851 30.7771C89.8012 31.7586 89.9238 32.8627 90.0463 33.9055C90.0463 34.2122 90.4753 34.1509 90.7818 34.1509C91.3946 34.1509 92.0075 34.0895 92.6817 34.0895C93.1719 34.0895 93.4784 34.3349 93.4784 34.887C93.4784 35.3164 93.2332 35.6231 92.8042 35.6231C91.5785 35.6844 90.3528 35.6844 89.1883 35.6844C88.5142 35.6844 88.3916 35.1324 88.3916 34.6416C88.3303 33.9055 88.269 33.1694 88.269 32.372C88.269 31.6359 88.269 30.9611 88.269 30.225C88.3303 30.225 88.3916 30.225 88.3916 30.225Z" fill="white"/>
<path d="M63.5089 27.465C63.5089 26.3609 63.4477 25.5021 63.5089 24.7047C63.5702 23.7232 63.9992 23.0484 65.1024 23.2938C65.8991 23.4165 66.7571 23.0484 67.4313 23.5392C67.6151 23.6618 68.0442 23.7845 67.9829 24.1526C67.9216 24.5206 67.6151 24.5206 67.3087 24.582C67.2474 24.582 67.1249 24.582 67.0636 24.582C65.0411 24.8273 65.0411 24.8273 65.0411 26.913C65.0411 28.5079 65.1024 28.5692 66.7571 28.5692C67.37 28.5692 67.8603 28.6305 67.8603 29.428C67.8603 30.0414 67.4313 30.2254 66.8797 30.3481C65.1024 30.5935 65.1024 30.5935 65.2863 32.3724C65.2863 32.5564 65.2863 32.8018 65.225 32.9858C64.9798 33.9673 65.3475 34.274 66.3281 34.1513C66.8797 34.09 67.4313 34.09 67.9829 34.1513C68.4119 34.1513 68.7183 34.458 68.7796 34.8261C68.7796 35.2555 68.5344 35.6235 68.0441 35.6848C66.8184 35.7462 65.5927 35.7462 64.4282 35.7462C63.5702 35.6848 63.6315 35.0101 63.6315 34.3967C63.5089 32.0043 63.2638 29.612 63.5089 27.465Z" fill="white"/>
<path fill-rule="evenodd" clip-rule="evenodd" d="M102.286 30.6889C102.223 29.3151 102.158 27.9073 102.365 26.4216C102.303 26.3603 102.303 26.0536 102.426 25.8082L102.423 25.7851C102.12 23.4155 102.112 23.3553 99.7294 23.5999C98.3198 23.7226 97.4618 24.52 97.2779 26.0536C97.037 27.701 96.8488 29.3747 96.6614 31.0403C96.5627 31.9175 96.4643 32.7924 96.3586 33.66C96.3492 33.7542 96.3441 33.8471 96.3392 33.9378C96.3118 34.4373 96.288 34.8726 95.5619 35.1322C95.0103 35.3162 94.949 36.1136 95.1942 36.6657C95.378 37.0951 96.1135 37.0338 96.2973 36.7884C96.8737 36.0541 97.5846 36.1271 98.3149 36.202C98.4387 36.2147 98.5631 36.2274 98.6875 36.2363C99.0017 36.2521 99.3239 36.2315 99.6479 36.2108C100.588 36.1509 101.544 36.0899 102.365 36.9111C102.549 37.1565 103.223 37.0951 103.407 36.6044C103.59 36.1136 103.652 35.3162 103.039 35.1935C102.172 34.9622 102.231 34.4585 102.292 33.9391C102.296 33.9074 102.3 33.8757 102.303 33.844C102.384 32.7991 102.335 31.7542 102.286 30.6889ZM100.512 31.7628C100.519 31.3539 100.526 30.9426 100.526 30.5314H100.587C100.587 30.1201 100.594 29.7158 100.601 29.3137C100.615 28.5163 100.628 27.7278 100.587 26.9122C100.577 26.8144 100.572 26.7119 100.567 26.6084C100.54 26.0632 100.512 25.4916 99.7905 25.44C99.1432 25.3902 99.0218 25.8668 98.9004 26.3434C98.8724 26.4533 98.8444 26.5633 98.8099 26.6669C98.3736 28.0107 98.3601 29.4097 98.3465 30.8135C98.3352 31.9729 98.324 33.1356 98.0745 34.2732C97.945 35.0076 98.4842 34.951 99.0071 34.8962C99.2268 34.8731 99.4435 34.8504 99.6067 34.8866C100.097 35.0093 100.587 34.948 100.526 34.1505C100.485 33.3757 100.499 32.5738 100.512 31.7628Z" fill="white"/>
<path fill-rule="evenodd" clip-rule="evenodd" d="M77.3746 30.4812C77.31 29.0006 77.2472 27.56 77.421 26.2379C77.3252 24.7034 77.2793 23.9686 76.893 23.6602C76.5381 23.3768 75.8957 23.4533 74.6632 23.6002C73.4987 23.7228 72.5794 24.5816 72.3956 25.7471C72.0279 28.4461 71.7214 31.1451 71.415 33.8441L71.415 33.8442C71.411 33.8802 71.4073 33.9157 71.4036 33.9506C71.3509 34.4515 71.3098 34.8417 70.6796 35.0711C70.128 35.2551 70.0054 36.0526 70.3119 36.6046C70.6183 37.0954 71.1086 36.9727 71.5376 36.7273C72.8246 35.9299 76.0115 35.9299 77.1759 36.7273C77.6662 37.034 78.2177 37.0954 78.5242 36.6046C78.8306 36.0526 78.8306 35.3165 78.1565 35.1324C77.3597 34.8871 77.3597 34.4577 77.421 33.9056C77.4741 32.764 77.4238 31.611 77.3746 30.4812ZM75.6439 34.1512C75.6439 32.127 75.6439 30.164 75.8277 28.1398C75.8632 27.749 75.8165 27.3789 75.7709 27.0174C75.7378 26.7546 75.7052 26.4964 75.7052 26.2382C75.6439 25.8088 75.5826 25.4407 75.0311 25.3794C74.5408 25.318 74.2956 25.6247 74.1731 25.9928L74.1731 25.9928C73.9279 26.7289 73.6828 27.465 73.6215 28.2624C73.5825 28.8679 73.587 29.4672 73.5914 30.0622C73.6009 31.336 73.6102 32.5902 73.1925 33.8445C73.0087 34.5806 73.2538 34.9487 73.9892 34.826C74.1599 34.8089 74.3638 34.8584 74.5692 34.9083C75.1015 35.0375 75.6439 35.1692 75.6439 34.1512Z" fill="white"/>
<path fill-rule="evenodd" clip-rule="evenodd" d="M83.1821 35.6848C80.9758 35.6848 80.8532 35.6848 80.8532 33.4765C80.8532 32.4973 80.8193 31.5113 80.7854 30.523C80.7172 28.5396 80.6487 26.5471 80.8532 24.5819C80.9758 23.2937 81.2822 22.987 82.5693 23.0484H82.6918C86.1239 23.2937 86.3078 23.6004 86.0626 27.0356C85.9706 28.4637 85.9822 29.9264 85.9937 31.3717V31.3717C85.9975 31.8509 86.0013 32.3282 86.0013 32.8017C85.94 35.3167 85.6336 35.6234 83.1821 35.6848ZM84.4076 32.188C84.357 32.3231 84.3714 32.5138 84.3869 32.7195C84.4277 33.2611 84.4763 33.9056 83.3657 33.9056C82.397 33.9056 82.4463 33.2687 82.4902 32.7014C82.4991 32.5869 82.5077 32.4751 82.5077 32.3721C82.5077 32.2529 82.4997 32.124 82.4914 31.9915C82.4487 31.3057 82.3998 30.5219 83.427 30.4705C84.5302 30.3478 84.4689 31.2679 84.4076 32.188ZM84.45 27.1487C84.4454 26.9142 84.4404 26.6664 84.4692 26.422V25.6859C84.4692 25.1951 84.1627 25.0724 83.7337 25.0724C83.654 25.0857 83.5657 25.0904 83.4757 25.0951C83.15 25.1123 82.8011 25.1307 82.753 25.5632C82.6917 26.422 82.6917 27.2807 82.753 28.1395C82.753 28.4462 83.0595 28.4462 83.3046 28.4462C84.4778 28.5402 84.4653 27.915 84.45 27.1487Z" fill="white"/>
<path fill-rule="evenodd" clip-rule="evenodd" d="M121.639 33.9045C121.588 34.1107 121.537 34.3158 121.486 34.5192C121.425 35.0713 121.609 35.5006 122.161 35.562C122.651 35.6847 123.019 35.378 123.202 35.0099C123.386 34.7032 123.448 34.3351 123.509 33.9671C123.57 32.9856 124.183 32.6176 125.102 32.5562C126.267 32.5562 126.941 32.9856 127.063 34.2738C127.125 34.8259 127.247 35.8687 128.289 35.562C129.147 35.3166 129.086 34.6419 128.841 33.8444C128.412 32.2802 128.029 30.716 127.646 29.1518C127.263 27.5876 126.88 26.0233 126.451 24.4591C126.437 24.4082 126.423 24.3565 126.41 24.3046C126.243 23.6689 126.065 22.9915 125.102 23.0483C124.122 23.1096 123.877 23.723 123.693 24.5205C123.484 25.4078 123.342 26.3062 123.2 27.2016C123.009 28.4107 122.819 29.6143 122.467 30.7773C122.16 31.8008 121.896 32.8669 121.639 33.9045ZM125.615 29.006C125.47 28.569 125.317 28.1089 125.163 27.5875C125.082 27.8303 125.006 28.0561 124.934 28.2693C124.732 28.8638 124.563 29.3605 124.428 29.8572C124.305 30.2252 124.428 30.5319 124.734 30.7159C125.041 30.9 125.408 30.9 125.715 30.8386C126.083 30.7773 126.083 30.5319 126.021 30.2865C125.899 29.8572 125.761 29.4431 125.615 29.006Z" fill="white"/>
<path d="M70.8509 10.3218C70.1155 12.2234 69.8704 13.8183 69.5639 15.3519C69.4413 16.0266 69.3801 17.1308 68.3995 16.8854C67.4189 16.6401 67.7253 15.5359 67.9092 14.7998C68.6446 11.9781 69.0123 9.03367 69.5639 6.21194C69.6865 5.53718 69.5639 4.73973 70.6058 4.67839C71.6477 4.61705 71.7702 5.35315 71.8928 6.08925C72.3218 9.21769 73.1185 12.2848 73.6088 15.4746C73.6701 16.0266 73.9153 16.7627 73.0573 16.8854C72.138 17.0081 72.1992 16.272 72.0767 15.6586C71.709 13.941 71.2799 12.2848 70.8509 10.3218Z" fill="white"/>
<path d="M61.4739 10.6282C61.4739 9.03328 61.4739 7.4384 61.4739 5.84351C61.4739 4.49399 61.9029 4.0646 63.2512 4.24862C63.9866 4.30996 64.8447 3.94191 65.5188 4.55533C65.7027 4.67801 66.0091 4.8007 65.9478 5.10741C65.8865 5.41412 65.6414 5.47546 65.3962 5.47546C65.2124 5.47546 65.0898 5.5368 64.9059 5.5368C63.0673 5.72083 63.0673 5.72083 63.0673 7.49974C63.0673 9.40133 63.0673 9.46268 64.9672 9.52402C65.5188 9.52402 65.8865 9.70804 65.9478 10.2601C66.0091 10.8122 65.6414 11.1802 65.0285 11.2416C64.7834 11.2416 64.5382 11.3029 64.2931 11.3029C63.1286 11.1802 62.8835 11.855 63.1899 12.7751C63.4963 13.5112 62.7609 14.554 63.4963 14.9834C64.0479 15.2901 64.9672 15.0448 65.7027 15.0448C66.2543 15.0448 66.6833 15.2288 66.6833 15.7809C66.6833 16.3943 66.2543 16.6397 65.6414 16.6397C65.0898 16.6397 64.5382 16.6397 63.9866 16.6397C61.4126 16.701 61.4739 17.0077 61.4126 14.186C61.4739 13.0205 61.4739 11.855 61.4739 10.6282Z" fill="white"/>
<path fill-rule="evenodd" clip-rule="evenodd" d="M75.3667 13.7618C75.2157 14.3088 75.0726 14.8268 74.9568 15.2902C74.8343 16.0263 75.0794 16.333 75.5084 16.4557C75.9987 16.7011 76.3051 16.333 76.5503 16.0263C76.7954 15.7196 76.918 15.3516 76.918 14.9835C76.9793 13.8794 77.7147 13.5113 78.6953 13.5113C79.7985 13.5113 80.3501 13.8794 80.4726 15.1062C80.4726 15.7196 80.6565 16.8238 81.7596 16.5171C82.6048 16.2754 82.4391 15.5576 82.2582 14.774C82.2555 14.7621 82.2527 14.7501 82.2499 14.7382C81.9844 13.6953 81.7256 12.6525 81.4668 11.6097C80.9493 9.52409 80.4318 7.43847 79.8598 5.35286C79.8507 5.32267 79.8417 5.29205 79.8325 5.2611C79.6559 4.66304 79.4438 3.94501 78.5115 4.00334C77.4696 4.06468 77.2857 4.73944 77.1632 5.47554C77.0307 6.1384 76.9041 6.79541 76.7779 7.45018C76.4954 8.91619 76.2151 10.371 75.8761 11.8551C75.7144 12.5027 75.5356 13.1503 75.3667 13.7618ZM78.9201 9.51425C78.809 9.21508 78.691 8.89704 78.5729 8.54258C78.4797 8.8225 78.3922 9.07404 78.3103 9.30928C78.123 9.84729 77.9654 10.3001 77.8375 10.8122C77.7149 11.1803 77.8375 11.5483 78.2052 11.7324C78.5729 11.9164 79.002 11.9777 79.3084 11.7937C79.6329 11.6081 79.5366 11.3524 79.444 11.106C79.4141 11.0267 79.3846 10.9483 79.3697 10.8736C79.2566 10.421 79.0973 9.99168 78.9201 9.51425Z" fill="white"/>
<path fill-rule="evenodd" clip-rule="evenodd" d="M56.1945 16.6269C56.3032 16.6336 56.4097 16.6401 56.5097 16.6401C56.6323 16.6095 56.7548 16.6095 56.8851 16.6095C57.0153 16.6095 57.1532 16.6095 57.3064 16.5788C59.2676 16.5175 59.574 16.2107 59.5127 14.1865C59.4833 13.6562 59.4397 13.1259 59.3956 12.5888C59.3478 12.0076 59.2994 11.4184 59.2676 10.8127C59.2063 9.58582 58.5321 8.91106 57.3677 8.9724C56.0194 9.09508 55.8968 8.48166 55.8968 7.37751C55.8968 6.15067 56.142 5.47591 57.5516 5.72128C57.6763 5.76288 57.8291 5.74805 57.972 5.7342C58.0397 5.72763 58.1053 5.72128 58.1644 5.72128C58.7773 5.72128 58.7773 5.29188 58.7773 4.86249C58.8386 4.31041 58.5934 4.06505 58.0419 4.12639C57.6741 4.15093 57.3064 4.15583 56.9387 4.16074C56.3871 4.1681 55.8355 4.17546 55.284 4.24907C54.3647 4.37176 53.8131 4.86249 54.0582 5.9053C54.1195 6.15067 54.1808 6.39604 54.1808 6.64141C54.1808 7.6898 54.1484 8.73818 54.116 9.78657C54.0593 11.6213 54.0025 13.4559 54.1195 15.2906C54.1808 16.3334 54.4872 16.7628 55.5291 16.6401C55.7356 16.5988 55.9699 16.6132 56.1945 16.6269ZM55.7612 12.5831C55.7678 12.6919 55.7743 12.7985 55.7743 12.8986C55.7437 13.1133 55.7437 13.328 55.7437 13.5427C55.7437 13.7574 55.7437 13.9721 55.7131 14.1867C55.6518 14.8615 55.9582 15.0455 56.5711 15.0455C57.4904 15.1069 57.9194 14.6775 57.8581 13.8187C57.853 13.7621 57.8478 13.7059 57.8427 13.6501C57.787 13.041 57.7355 12.479 57.7355 11.9171C57.7355 11.0034 57.045 10.9403 56.4551 10.8865C56.4114 10.8825 56.3682 10.8785 56.3259 10.8743C55.6521 10.7844 55.7027 11.1559 55.7536 11.5298C55.7721 11.666 55.7907 11.8025 55.7743 11.9171C55.7331 12.1238 55.7474 12.3583 55.7612 12.5831Z" fill="white"/>
<path fill-rule="evenodd" clip-rule="evenodd" d="M89.2981 15.5963V10.8116V10.8116C89.2981 9.40073 89.2981 7.98989 89.2368 6.57905C89.2368 4.73879 88.9303 4.43209 87.0305 4.49343C86.6627 4.49343 86.2337 4.49343 85.8047 4.55477C85.1919 4.67745 84.579 4.98416 84.5177 5.72026C84.4801 6.09643 84.422 6.47516 84.3639 6.85436C84.1376 8.33024 83.9102 9.8132 84.8854 11.1797C85.0435 11.4434 84.975 11.7526 84.9138 12.029C84.9038 12.074 84.894 12.1182 84.8854 12.1612C84.8214 12.4494 84.7616 12.7419 84.7016 13.0353C84.5317 13.8655 84.3604 14.7031 84.0887 15.4736C83.8435 16.2097 84.0274 16.7005 84.7628 16.8845C85.4858 17.0654 85.6165 16.4756 85.7372 15.9311C85.7393 15.9217 85.7414 15.9124 85.7434 15.903L85.7434 15.903C85.9886 14.6762 86.2337 13.4493 86.5402 12.2225C86.6627 11.7931 86.9079 11.241 87.4595 11.3637C87.926 11.4675 87.9102 11.8346 87.8943 12.2052C87.8914 12.2727 87.8885 12.3404 87.8885 12.4065C87.8578 12.9279 87.8425 13.4493 87.8272 13.9707C87.8119 14.4921 87.7965 15.0136 87.7659 15.535C87.7046 16.1484 87.7659 16.8231 88.5626 16.8231C89.2981 16.8231 89.2981 16.1484 89.2981 15.5963ZM85.6918 7.45886C85.6921 7.63221 85.6924 7.81114 85.6819 7.99006V8.72616C85.8045 9.52361 86.8463 10.1984 87.3366 9.70763C87.9463 9.13811 87.8012 8.46067 87.6522 7.76477C87.5765 7.41133 87.4998 7.05313 87.5205 6.70189C87.5205 6.27249 87.3979 6.02713 86.9076 5.96578C85.6891 5.91497 85.6903 6.62191 85.6918 7.45886Z" fill="white"/>
</svg>
