<svg width="1100" height="1166" viewBox="0 0 1100 1166" fill="none" xmlns="http://www.w3.org/2000/svg">
<g opacity="0.12">
<path d="M1528.1 462.386L1349.19 356.303L1217.43 351.128L1052.92 338.68M1052.92 338.68L760.411 218.412M1052.92 338.68L945.736 462.367M760.411 218.412L444.551 68.1788M760.411 218.412L723.934 389.392M444.551 68.1788L187.56 17.8303L454.011 234.942M444.551 68.1788L454.011 234.942M454.011 234.942L723.934 389.392M454.011 234.942L298.848 396.357M723.934 389.392L945.736 462.367M945.736 462.367L946.602 683.956M946.602 683.956L715.455 1057.05M946.602 683.956L719.967 733.932C615.798 751.248 557.395 760.956 453.226 778.271M298.848 396.357L138.777 478.813M298.848 396.357L92.1141 380.644" stroke="#11B4D4" stroke-width="2"/>
<ellipse rx="6.77172" ry="6.7741" transform="matrix(-0.990268 -0.139173 -0.139173 0.990268 1051.08 337.899)" fill="#11B4D4"/>
<ellipse rx="6.77174" ry="6.77409" transform="matrix(-0.990268 -0.139173 -0.139173 0.990268 761.933 218.993)" fill="#11B4D4"/>
<ellipse rx="6.7717" ry="6.77409" transform="matrix(-0.990268 -0.139173 -0.139173 0.990268 946.265 463.698)" fill="#11B4D4"/>
<ellipse rx="6.77174" ry="6.7741" transform="matrix(-0.990268 -0.139173 -0.139173 0.990268 725.457 389.973)" fill="#11B4D4"/>
<ellipse rx="6.77172" ry="6.77409" transform="matrix(-0.990268 -0.139173 -0.139173 0.990268 947.5 682.671)" fill="#11B4D4"/>
<ellipse rx="6.77172" ry="6.77412" transform="matrix(-0.990268 -0.139173 -0.139173 0.990268 717.223 1055.89)" fill="#11B4D4"/>
<ellipse rx="6.77172" ry="6.77412" transform="matrix(-0.990268 -0.139173 -0.139173 0.990268 758.418 990.522)" fill="#11B4D4"/>
<ellipse rx="6.77174" ry="6.77409" transform="matrix(-0.990268 -0.139173 -0.139173 0.990268 719.746 734.268)" fill="#11B4D4"/>
<ellipse rx="6.77174" ry="6.77409" transform="matrix(-0.990268 -0.139173 -0.139173 0.990268 455.621 778.975)" fill="#11B4D4"/>
<ellipse rx="6.77172" ry="6.7741" transform="matrix(-0.990268 -0.139173 -0.139173 0.990268 140.668 476.777)" fill="#11B4D4"/>
<ellipse rx="6.77167" ry="6.77409" transform="matrix(-0.990268 -0.139173 -0.139173 0.990268 92.1366 379.235)" fill="#11B4D4"/>
<ellipse rx="6.77172" ry="6.77412" transform="matrix(-0.990268 -0.139173 -0.139173 0.990268 297.746 395.879)" fill="#11B4D4"/>
<ellipse rx="6.77172" ry="6.7741" transform="matrix(-0.990268 -0.139173 -0.139173 0.990268 453.914 234.405)" fill="#11B4D4"/>
<ellipse rx="6.77172" ry="6.7741" transform="matrix(-0.990268 -0.139173 -0.139173 0.990268 445.324 67.7648)" fill="#11B4D4"/>
<ellipse rx="6.77172" ry="6.7741" transform="matrix(-0.990268 -0.139173 -0.139173 0.990268 189.207 17.5387)" fill="#11B4D4"/>
</g>
</svg>
