<svg width="1087" height="1984" viewBox="0 0 1087 1984" fill="none" xmlns="http://www.w3.org/2000/svg">
<g opacity="0.12">
<path d="M-369.472 1574.42L-178.828 1490.88L-47.3386 1501.81L117.581 1509.5M117.581 1509.5L422.776 1425.72M117.581 1509.5L208.954 1645.43M422.776 1425.72L754.82 1315.03M422.776 1425.72L438.155 1599.99M754.82 1315.03L1016.21 1296.36L725.086 1479.51M754.82 1315.03L725.086 1479.51M725.086 1479.51L438.155 1599.99M725.086 1479.51L859.514 1658.75M438.155 1599.99L208.954 1645.43M208.954 1645.43L181.071 1865.41M181.071 1865.41L365.153 2264.17M181.071 1865.41L400.077 1942.69C501.429 1972.59 558.253 1989.35 659.606 2019.25M859.514 1658.75L1008.45 1760.17M859.514 1658.75L1066.76 1668.36" stroke="#11B4D4" stroke-width="2"/>
<ellipse cx="119.504" cy="1508.95" rx="6.77638" ry="6.77876" transform="rotate(-1 119.504 1508.95)" fill="#11B4D4"/>
<ellipse cx="421.192" cy="1426.11" rx="6.77639" ry="6.77876" transform="rotate(-1 421.192 1426.11)" fill="#11B4D4"/>
<ellipse cx="208.266" cy="1646.68" rx="6.77637" ry="6.77875" transform="rotate(-1 208.266 1646.68)" fill="#11B4D4"/>
<ellipse cx="436.57" cy="1600.39" rx="6.77639" ry="6.77877" transform="rotate(-1 436.57 1600.39)" fill="#11B4D4"/>
<ellipse cx="180.336" cy="1864.02" rx="6.77639" ry="6.77876" transform="rotate(-1 180.336 1864.02)" fill="#11B4D4"/>
<ellipse cx="400.253" cy="1943.05" rx="6.77639" ry="6.77876" transform="rotate(-1 400.253 1943.05)" fill="#11B4D4"/>
<ellipse cx="1006.81" cy="1757.92" rx="6.77637" ry="6.77877" transform="rotate(-1 1006.81 1757.92)" fill="#11B4D4"/>
<ellipse cx="1066.91" cy="1666.96" rx="6.77637" ry="6.77876" transform="rotate(-1 1066.91 1666.96)" fill="#11B4D4"/>
<ellipse cx="860.666" cy="1658.41" rx="6.77637" ry="6.77877" transform="rotate(-1 860.666 1658.41)" fill="#11B4D4"/>
<ellipse cx="725.248" cy="1478.99" rx="6.77641" ry="6.77877" transform="rotate(-1 725.248 1478.99)" fill="#11B4D4"/>
<ellipse cx="754.101" cy="1314.52" rx="6.77641" ry="6.77877" transform="rotate(-1 754.101 1314.52)" fill="#11B4D4"/>
<ellipse cx="1014.61" cy="1295.87" rx="6.77637" ry="6.77877" transform="rotate(-1 1014.61 1295.87)" fill="#11B4D4"/>
</g>
<g opacity="0.12">
<path d="M765.054 -127.746L764.586 89.017L707.938 307.401L515.397 531.088M515.397 531.088L279.671 630.1L331.803 796.809L585.132 658.05L515.397 531.088Z" stroke="#11B4D4" stroke-width="2"/>
<circle r="5.04679" transform="matrix(-0.642788 0.766044 0.766044 0.642788 765.245 87.363)" fill="#11B4D4"/>
<circle r="5.04679" transform="matrix(-0.642788 0.766044 0.766044 0.642788 709.365 306.998)" fill="#11B4D4"/>
<circle r="5.04679" transform="matrix(-0.642788 0.766044 0.766044 0.642788 515.99 531.504)" fill="#11B4D4"/>
<circle r="5.04679" transform="matrix(-0.642788 0.766044 0.766044 0.642788 281.481 630.321)" fill="#11B4D4"/>
<circle r="5.04679" transform="matrix(-0.642788 0.766044 0.766044 0.642788 584.928 657.916)" fill="#11B4D4"/>
<circle r="5.04679" transform="matrix(-0.642788 0.766044 0.766044 0.642788 334.003 795.718)" fill="#11B4D4"/>
</g>
</svg>
