<svg width="1421" height="1316" viewBox="0 0 1421 1316" fill="none" xmlns="http://www.w3.org/2000/svg">
<g opacity="0.12">
<path d="M-157.936 628.305L6.83346 501.12L137.061 479.913L298.944 447.486M298.944 447.486L574.806 292.359M298.944 447.486L420.486 557.264M574.806 292.359L870.206 104.623M574.806 292.359L631.888 457.733M870.206 104.623L1119.32 23.2745L881.148 271.411M870.206 104.623L881.148 271.411M881.148 271.411L631.888 457.733M881.148 271.411L1054.95 412.811M631.888 457.733L420.486 557.264M420.486 557.264L446.65 777.459M446.65 777.459L721.732 1119.84M446.65 777.459L677.845 799.458C783.421 803.952 842.613 806.472 948.188 810.967M1054.95 412.811L1223.99 475.187M1054.95 412.811L1258.36 371.992" stroke="#11B4D4" stroke-width="2"/>
<ellipse cx="7.09097" cy="501.427" rx="6.77637" ry="6.77879" transform="rotate(-15 7.09097 501.427)" fill="#11B4D4"/>
<ellipse cx="300.676" cy="446.485" rx="6.77638" ry="6.77876" transform="rotate(-15 300.676 446.485)" fill="#11B4D4"/>
<ellipse cx="573.362" cy="293.122" rx="6.77639" ry="6.77876" transform="rotate(-15 573.362 293.122)" fill="#11B4D4"/>
<ellipse cx="420.121" cy="558.65" rx="6.77637" ry="6.77875" transform="rotate(-15 420.121 558.65)" fill="#11B4D4"/>
<ellipse cx="630.444" cy="458.496" rx="6.77639" ry="6.77877" transform="rotate(-15 630.444 458.496)" fill="#11B4D4"/>
<ellipse cx="445.6" cy="776.291" rx="6.77639" ry="6.77876" transform="rotate(-15 445.6 776.291)" fill="#11B4D4"/>
<ellipse cx="719.831" cy="1118.9" rx="6.77639" ry="6.77879" transform="rotate(-15 719.831 1118.9)" fill="#11B4D4"/>
<ellipse cx="670.944" cy="1059" rx="6.77639" ry="6.77876" transform="rotate(-15 670.944 1059)" fill="#11B4D4"/>
<ellipse cx="678.103" cy="799.764" rx="6.77639" ry="6.77876" transform="rotate(-15 678.103 799.764)" fill="#11B4D4"/>
<ellipse cx="945.893" cy="811.957" rx="6.77641" ry="6.77876" transform="rotate(-15 945.893 811.957)" fill="#11B4D4"/>
<ellipse cx="1221.86" cy="473.396" rx="6.77637" ry="6.77877" transform="rotate(-15 1221.86 473.396)" fill="#11B4D4"/>
<ellipse cx="1258.17" cy="370.596" rx="6.77637" ry="6.77876" transform="rotate(-15 1258.17 370.596)" fill="#11B4D4"/>
<ellipse cx="1055.98" cy="412.2" rx="6.77637" ry="6.77877" transform="rotate(-15 1055.98 412.2)" fill="#11B4D4"/>
<ellipse cx="881.177" cy="270.866" rx="6.77641" ry="6.77877" transform="rotate(-15 881.177 270.866)" fill="#11B4D4"/>
<ellipse cx="869.385" cy="104.307" rx="6.77641" ry="6.77877" transform="rotate(-15 869.385 104.307)" fill="#11B4D4"/>
<ellipse cx="1117.64" cy="23.1855" rx="6.77637" ry="6.77877" transform="rotate(-15 1117.64 23.1855)" fill="#11B4D4"/>
</g>
</svg>
