<svg width="28" height="17" viewBox="0 0 28 17" fill="none" xmlns="http://www.w3.org/2000/svg">
<path fill-rule="evenodd" clip-rule="evenodd" d="M13.6978 16.4861H15.3726C15.3726 16.4861 15.8769 16.43 16.1384 16.1498C16.375 15.8946 16.3688 15.4152 16.3688 15.4152C16.3688 15.4152 16.3315 13.1675 17.3774 12.8375C18.4048 12.5138 19.7247 15.0105 21.1194 15.9693C22.1778 16.6977 22.981 16.5359 22.981 16.5359L26.7229 16.4861C26.7229 16.4861 28.6779 16.3615 27.7502 14.8237C27.6755 14.6992 27.2085 13.6905 24.9671 11.611C22.6261 9.43182 22.9374 9.78671 25.7641 6.0199C27.4825 3.72867 28.1674 2.32779 27.9557 1.73008C27.7502 1.15728 26.4863 1.3067 26.4863 1.3067L22.2774 1.33783C22.2774 1.33783 21.9599 1.29425 21.7295 1.43123C21.5054 1.5682 21.3622 1.88573 21.3622 1.88573C21.3622 1.88573 20.696 3.65396 19.8056 5.16691C17.9316 8.34847 17.1844 8.51658 16.8731 8.31734C16.1634 7.85661 16.3439 6.46818 16.3439 5.48445C16.3439 2.39628 16.8109 1.10747 15.4287 0.777481C14.9742 0.66541 14.6317 0.590696 13.4612 0.58447C11.9607 0.565792 10.6906 0.58447 9.97456 0.93936C9.49515 1.17595 9.12158 1.69272 9.34572 1.72385C9.6259 1.76744 10.2547 1.89819 10.5909 2.3527C11.0206 2.93795 11.0081 4.2579 11.0081 4.2579C11.0081 4.2579 11.2571 7.88774 10.4291 8.33602C9.86249 8.64733 9.08422 8.01849 7.40939 5.12956C6.55641 3.64773 5.90889 2.01648 5.90889 2.01648C5.90889 2.01648 5.78436 1.70518 5.56022 1.5433C5.2925 1.35029 4.9127 1.2818 4.9127 1.2818L0.915517 1.3067C0.915517 1.3067 0.311581 1.32538 0.0936659 1.58688C-0.105571 1.81725 0.0749875 2.30289 0.0749875 2.30289C0.0749875 2.30289 3.20674 9.62483 6.75564 13.3232C10.0057 16.704 13.6978 16.4861 13.6978 16.4861Z" fill="white"/>
</svg>
