<svg width="936" height="1012" viewBox="0 0 936 1012" fill="none" xmlns="http://www.w3.org/2000/svg">
<g opacity="0.12">
<path d="M924.196 765.399L710.808 727.298L505.578 633.589L318.724 405.13M318.724 405.13L262.15 155.792L88.9208 178.184L181.581 451.759L318.724 405.13Z" stroke="#11B4D4" stroke-width="2"/>
<circle r="5.04679" transform="matrix(-0.642788 -0.766044 -0.766044 0.642788 926.335 766.72)" fill="#11B4D4"/>
<circle r="5.04679" transform="matrix(-0.642788 -0.766044 -0.766044 0.642788 712.322 728.234)" fill="#11B4D4"/>
<circle r="5.04679" transform="matrix(-0.642788 -0.766044 -0.766044 0.642788 505.727 635.064)" fill="#11B4D4"/>
<circle r="5.04679" transform="matrix(-0.642788 -0.766044 -0.766044 0.642788 318.211 405.643)" fill="#11B4D4"/>
<circle r="5.04679" transform="matrix(-0.642788 -0.766044 -0.766044 0.642788 261.616 157.537)" fill="#11B4D4"/>
<circle r="5.04679" transform="matrix(-0.642788 -0.766044 -0.766044 0.642788 181.748 451.581)" fill="#11B4D4"/>
<circle r="5.04679" transform="matrix(-0.642788 -0.766044 -0.766044 0.642788 89.6126 180.539)" fill="#11B4D4"/>
</g>
</svg>
