<svg width="69" height="55" viewBox="0 0 69 55" fill="none" xmlns="http://www.w3.org/2000/svg">
<path d="M33.8618 27.8215C35.9951 29.5684 36.6204 32.0587 37.2825 34.549C37.54 35.5898 37.7239 36.6305 37.7607 37.7084C37.7607 37.8571 37.7239 38.0429 37.871 38.1173C38.0917 38.2288 38.1652 38.0058 38.3124 37.8943C39.4158 37.0394 39.7101 37.1137 40.7768 38.0058C42.3584 39.3439 42.8733 41.0165 42.6159 43.0236C42.6159 43.1351 42.5423 43.2838 42.6159 43.3953C43.4986 45.3281 42.5423 47.0378 42.1009 48.8219C41.9538 49.4538 41.6595 50.0114 41.4756 50.6061C40.8135 52.799 39.2319 53.9141 37.1354 54.3973C33.4204 55.2522 29.7422 55.215 26.1008 54.1743C25.5859 54.0256 25.2916 53.9141 25.6594 53.3194C26.0272 52.7619 25.4755 52.799 25.218 52.799C24.1146 52.6504 23.0111 52.8362 21.9077 52.9849C18.8916 53.4309 15.9122 54.1371 12.8593 53.9884C5.68686 53.6539 1.23626 48.0786 0.279927 42.7634C-0.455711 38.9722 0.353491 35.2924 1.60407 31.6499C1.86155 30.8693 2.1558 30.0888 2.52362 29.3454C2.78109 28.7879 2.74431 28.1931 2.78109 27.6356C3.03857 23.6585 4.32593 19.9788 6.20181 16.5221C6.93745 15.1468 7.59952 13.7716 8.15125 12.322C9.03401 10.0918 10.3582 8.15905 12.4179 6.82097C13.2639 6.3006 14.1835 5.92891 15.1398 5.66873C15.3237 5.63156 15.5812 5.66873 15.5812 5.37138C15.5812 4.47932 16.28 4.33065 16.9053 4.29348C18.4502 4.18197 19.7743 3.51293 20.9881 2.65804C21.5398 2.28635 22.0916 1.91466 22.1651 1.09694C22.2019 0.613747 22.6433 0.353564 23.1215 0.204888C24.2617 -0.166803 25.3284 -0.0552954 26.2479 0.725254C26.6157 1.02261 26.9468 1.17128 27.3882 1.17128C29.4847 1.17128 31.4342 1.84032 33.3468 2.65804C33.8618 2.88106 34.1928 3.17841 34.156 3.81028C34.1192 4.29348 34.4135 4.51649 34.7813 4.66517C35.1491 4.81384 35.5537 4.96252 35.9216 4.99969C37.5032 5.1112 38.7538 6.00325 40.1147 6.6723C40.8135 7.00682 40.8135 7.60152 40.5561 8.23339C40.3354 8.71659 40.225 9.16262 40.1515 9.68298C40.0779 10.2034 40.0043 10.7237 39.3791 10.8724C39.3423 10.8724 39.3055 10.8724 39.3055 10.9096C38.717 12.3963 37.1354 12.2848 36.0687 12.9539C34.9652 13.6601 33.825 14.2919 32.5744 14.7751C31.9491 15.0353 31.2503 15.1097 30.5882 15.1097C29.9629 15.1097 29.9997 15.5929 29.9997 15.9645C29.9629 16.4477 30.4043 16.2247 30.625 16.2247C33.5675 16.1876 36.179 15.0725 38.6434 13.5857C40.4457 12.4707 40.74 12.545 42.1377 14.1433C42.3216 14.3291 42.4687 14.4778 42.7262 14.3663C43.3883 14.0689 43.9032 14.4406 44.3814 14.7751C45.4113 15.4813 46.4044 16.2991 47.5446 16.8194C47.8389 16.9681 48.2067 17.2655 48.4642 17.0424C48.7584 16.8194 48.4274 16.4477 48.3538 16.1504C48.1331 15.1468 47.4711 14.4778 46.6619 13.9203C45.7055 13.2512 44.6756 12.7308 43.6825 12.099C42.5791 11.3556 41.8067 10.4635 41.8067 8.90244C41.8067 8.04755 41.9538 7.71303 42.6894 7.22983C43.9768 6.44928 45.3745 6.26344 46.7722 5.92891C47.1032 5.85458 47.5078 5.85458 47.7653 5.59439C49.5308 3.73594 51.701 3.92179 53.8711 4.44215C54.5332 4.59083 55.1585 4.59083 55.7838 4.47932C56.8504 4.29348 57.8068 4.81384 58.1378 5.89175C58.2849 6.3006 58.5424 6.52362 58.8734 6.70946C60.4918 7.7502 61.8528 9.12545 63.0298 10.6865C63.5815 11.4299 64.2068 12.1733 64.0597 13.214C64.0229 13.3627 64.1333 13.4371 64.2068 13.5486C67.2597 16.5592 67.9953 20.2018 67.3701 24.3276C67.0758 26.409 67.2229 28.4905 68.2896 30.4233C68.9517 31.6499 69.062 33.0623 68.9149 34.4375C68.8413 35.1809 68.8413 35.8871 68.9517 36.6305C69.0252 37.2252 69.0252 37.8571 68.8781 38.4518C68.6942 39.1208 68.3632 39.6412 67.5907 39.604C67.2597 39.604 67.1126 39.7527 67.0022 40.0872C66.3769 42.1315 65.9723 44.1758 66.4137 46.3316C66.6712 47.4467 66.3034 48.3388 65.4574 48.8591C63.8758 49.7883 63.0298 51.2751 62.0367 52.6504C60.3447 54.992 57.255 55.3637 55.0849 53.4309C54.8274 53.2079 54.57 53.0964 54.2021 53.0592C52.9883 52.9477 52.1424 52.353 51.6642 51.2008C51.5171 50.7919 51.4435 50.3459 51.6642 49.937C52.4366 48.6361 52.2159 47.3352 51.5538 46.1086C50.8918 44.8077 50.5975 43.3953 50.5607 41.9829C50.5607 40.1616 50.009 38.5261 49.3837 36.8907C48.5745 34.8092 48.4642 32.6534 48.6481 30.4233C48.6849 29.9773 48.7952 29.6427 48.0964 29.4569C47.4711 29.3082 47.14 28.4905 46.9561 27.8586C46.6619 26.9294 46.0366 26.5205 45.2274 26.3719C43.5722 26.0373 42.0641 25.3683 40.8871 24.1046C40.7032 23.9187 40.5929 23.8815 40.4089 24.1046C39.1951 25.5913 37.4664 26.2975 35.7376 26.9666C35.002 27.1152 34.3767 27.3383 33.8618 27.8215Z" fill="#0F428A"/>
<path d="M19.7374 18.7523C18.9282 19.124 18.1926 19.57 17.4202 20.2762C17.9351 20.2391 18.2294 20.0161 18.5236 19.8674C20.4731 18.5665 22.68 18.1576 24.9605 17.8974C28.0869 17.5257 31.1766 17.0797 34.3031 16.6337C35.7375 16.4107 37.0249 15.7416 38.2755 15.0354C38.7904 14.7381 39.3054 14.4035 39.8571 14.1805C40.7399 13.8088 41.3652 14.1062 41.5123 15.0726C41.6962 16.6708 41.5491 18.2319 40.7399 19.6444C40.2617 20.4993 39.6732 21.2426 38.864 21.8002C35.5169 24.1418 32.6847 27.0782 30.0731 30.2375C29.08 31.4269 27.9766 32.5792 26.8363 33.6571C26.4685 33.9916 26.1743 34.0659 25.6593 33.8801C22.5329 32.8765 19.4432 32.9509 16.4638 34.512C16.3903 34.6235 16.2432 34.6978 16.1328 34.7722C16.0225 34.7722 16.1328 34.6606 16.096 34.7722C16.096 34.8093 16.1328 34.8093 16.1696 34.7722C16.2799 34.735 16.3903 34.6978 16.5006 34.6978C18.3765 34.0288 20.2892 33.7686 22.2754 33.6943C24.6294 33.6199 26.6524 34.4005 28.418 35.9616C30.9559 38.1917 32.9421 40.905 34.8548 43.7299C35.2594 44.3246 35.6272 44.9565 36.1054 45.5512C35.7743 44.6219 36.4364 44.2503 36.9513 43.8042C37.6134 43.2467 38.3123 42.652 39.1215 42.2803C40.0042 41.8714 40.5192 42.0201 41.218 42.6892C42.3583 43.8042 42.4318 45.1051 42.1008 46.5547C41.733 48.0415 41.218 49.4539 40.5928 50.8663C39.9675 52.2788 38.8272 53.0221 37.4295 53.5053C34.0088 54.7319 30.5881 54.6947 27.0938 53.9514C26.726 53.877 26.4685 53.7283 26.726 53.3195C27.1306 52.6504 26.6892 52.5761 26.211 52.4646C24.2248 52.0929 22.2386 52.3531 20.2892 52.6504C18.4133 52.9478 16.5742 53.3567 14.6983 53.4682C11.719 53.5797 9.10747 52.5389 6.6063 50.9778C2.67064 48.5247 1.16259 44.8078 0.941896 40.3847C0.794769 37.2996 1.38328 34.3261 2.5603 31.4641C2.85455 30.7207 3.33272 30.0889 3.66375 29.3826C3.99479 28.7136 3.47985 27.9331 3.59019 27.1525C4.1787 23.3984 4.95112 19.7559 7.41551 16.708C7.6362 16.4478 7.82011 16.1877 8.0408 15.9646C8.33505 15.5929 8.99713 15.3328 8.37183 14.7009C8.18792 14.515 8.29827 14.1062 8.4454 13.8088C9.58564 10.8725 11.204 8.30782 14.2202 6.96974C15.0294 6.59805 15.8753 6.33786 16.7581 6.33786C16.5742 5.3343 16.6478 5.11129 17.6041 4.99978C19.4064 4.8511 20.8777 4.03339 22.1283 2.80681C22.4593 2.50946 22.5696 2.58379 22.7535 2.95548C22.9375 3.36434 23.1949 3.7732 23.6363 3.99622C23.4524 3.43868 23.1581 2.95548 23.0478 2.39795C22.8271 1.1342 23.526 0.50233 24.7398 0.799683C25.3283 0.948359 25.8432 1.17137 26.211 1.65457C26.5053 2.06343 26.8731 2.1006 27.2777 1.98909C29.3007 1.54306 31.0662 2.36078 32.8686 3.14133C33.2364 3.29001 33.4571 3.62453 33.4571 4.03339C33.4203 4.7396 33.8617 5.11129 34.4502 5.25996C34.9651 5.40864 35.5169 5.55732 36.0686 5.63165C36.9513 5.74316 37.7605 6.07768 38.5698 6.44937C39.0111 6.67239 39.5629 6.85823 39.2318 7.56444C39.1583 7.67595 39.195 7.82462 39.3054 7.89896C40.041 8.4565 39.8203 9.19988 39.5996 9.86892C39.4525 10.3149 38.9008 10.2034 38.5698 10.4265C38.4226 10.538 38.2387 10.6495 38.0548 10.7238C38.2387 10.7238 38.4226 10.5008 38.5698 10.7238C38.6065 11.0955 38.4226 11.3185 38.1284 11.43C36.2893 12.0991 34.6341 13.1026 32.8686 13.9203C31.7651 14.4407 30.5881 14.515 29.4111 14.3292C29.2272 14.292 29.0065 14.2177 28.7858 14.3664C28.8961 14.6637 29.6685 14.6266 29.2639 15.1841C28.8226 15.7788 29.2272 16.931 27.903 17.0425C26.0271 17.1912 24.188 17.6001 22.3122 17.9346C21.834 18.0089 21.7237 17.8974 21.6133 17.4514C21.3558 16.1505 20.988 14.8867 20.5466 13.623C20.4731 13.5487 20.3995 13.4743 20.3259 13.4371C20.3995 13.5858 20.2892 13.7717 20.3995 13.9203C20.6202 15.0726 20.8409 16.2248 21.0984 17.3399C21.2455 17.8974 21.0984 18.0461 20.5466 18.0833C18.7075 18.2319 16.942 18.678 15.3604 19.6815C16.7949 19.3098 18.1558 18.7151 19.6271 18.6036C19.7374 18.5293 19.7742 18.6036 19.7374 18.7523Z" fill="white"/>
<path d="M43.2045 10.3522C42.101 9.60878 42.2114 8.12201 43.4252 7.45297C44.1976 7.04411 45.0068 6.85827 45.8528 6.67242C46.8459 6.44941 47.9126 6.41224 48.685 5.70603C49.862 4.62813 51.1494 4.62813 52.5839 4.88831C53.4298 5.03699 54.2758 5.18566 55.1218 5.33434C55.2689 5.37151 55.4161 5.40868 55.5632 5.37151C57.1448 5.14849 57.7701 5.78037 57.4023 7.49014C57.6598 7.00694 57.8804 7.11845 58.1379 7.26713C59.8667 8.19635 61.3012 9.42293 62.4414 11.0212C62.8828 11.6531 63.2874 12.2849 63.177 13.1027C63.1403 13.3628 63.2506 13.5487 63.4713 13.7345C65.3104 15.4815 66.3771 17.6744 66.6713 20.2019C66.9288 22.3949 66.5977 24.5879 66.6345 26.7437C66.6345 27.9331 66.892 29.011 67.5541 29.9774C68.1058 30.7579 68.2529 31.7243 68.2897 32.6536C68.3265 34.066 68.3265 35.4412 68.2897 36.8537C68.2897 37.3369 68.2529 37.8201 67.8851 38.1917C67.738 38.3404 67.5909 38.4519 67.407 38.3404C67.1495 38.2289 67.3702 38.0431 67.407 37.8944C67.6276 36.9652 67.8483 36.0731 67.6644 34.9209C67.0391 38.4148 65.5311 41.5741 65.6414 45.0308C65.6414 45.4025 65.715 45.7742 65.715 46.1831C65.7518 47.038 65.4207 47.707 64.7587 48.2274C63.6184 49.1194 62.5885 50.0858 61.7793 51.3124C60.8966 52.6877 59.7195 53.7284 57.9172 53.5054C57.6598 53.4682 57.3655 53.431 57.108 53.3195C55.1586 52.6877 54.8643 51.8699 55.931 50.1602C56.5195 49.2309 56.5195 49.2309 57.0345 49.2681C54.9379 46.6663 53.8712 43.5812 53.1724 40.3475C52.9885 40.1245 52.9517 39.8643 52.9885 39.6042C52.9149 39.344 52.8045 39.121 52.8045 38.8236C52.731 38.7493 52.6942 38.898 52.7678 38.8236C52.8781 39.0838 52.8413 39.344 52.9517 39.6042C52.9517 39.79 52.9885 39.9759 52.9885 40.1989C52.9149 40.3104 52.9885 40.5706 52.731 40.4962C51.554 39.4555 50.8183 38.0802 50.3034 36.6306C49.2367 33.62 49.1999 30.5721 50.1195 27.5242C50.3034 26.9295 50.5609 26.818 51.0758 26.9295C52.0321 27.1154 53.0252 27.2269 53.9816 27.3756C54.3862 27.4499 54.5701 27.3384 54.6069 26.8924C54.6804 26.0375 55.085 25.2569 55.4896 24.4764C55.5264 24.402 55.5632 24.2905 55.5264 24.2534C55.4896 24.2162 55.4161 24.2905 55.3425 24.3277C54.7908 24.9224 54.4965 25.6286 54.2758 26.4092C54.1655 26.818 53.9816 26.9667 53.5402 26.9295C49.6413 26.6322 46.0735 25.5543 43.3516 22.5064C42.6895 22.0976 42.2849 21.5029 42.0275 20.7966C41.4389 20.0161 41.255 19.1984 41.6596 18.232C41.9171 17.5629 41.9539 16.7452 41.9907 15.9647C42.0275 15.5186 42.0642 15.1841 42.5056 14.9983C42.947 14.8124 43.3516 14.7753 43.7562 15.1098C45.2643 16.262 46.9194 17.1913 48.7218 17.786C48.9792 17.8603 49.2735 17.8975 49.531 17.9346C50.7815 18.009 52.0689 18.232 53.3195 17.9346C53.6505 17.8603 53.9816 17.7488 54.3126 17.6373C52.8413 18.1205 51.3701 18.3063 49.8252 17.786C49.3838 17.2284 49.4206 16.485 49.2367 15.8532C49.0896 15.4071 49.016 14.9611 48.8321 14.5523C48.6114 14.1062 48.2804 13.846 47.8022 13.6602C46.2206 13.0655 44.8597 12.0248 43.3884 11.207C43.1309 11.0584 43.2045 10.8354 43.2045 10.6123C44.0505 10.5752 44.8597 10.8725 45.7056 10.8354C45.8528 10.8354 45.9631 10.7982 46.0735 10.8354C45.1171 10.761 44.0505 11.0584 43.2045 10.3522Z" fill="white"/>
<path d="M36.9887 41.0535C37.4669 40.3101 37.8715 39.5296 38.4232 38.8234C39.0117 38.0428 39.4531 38.0428 40.2255 38.6004C41.7704 39.6783 42.506 41.1279 42.0279 43.135C41.7336 42.7633 41.5129 42.3916 41.2187 42.0571C40.6301 41.3509 40.2255 41.2394 39.3796 41.6111C38.1658 42.1314 37.0991 42.912 36.2163 43.9155C35.8853 44.2872 35.7014 44.3244 35.4071 43.8412C34.7451 42.8005 34.0462 41.7969 33.3106 40.8677C32.8692 40.273 32.906 39.5668 32.7956 38.8977C32.3175 36.2959 31.3611 33.9171 29.5588 31.9843C29.3381 31.7241 29.3381 31.5754 29.5588 31.3524C30.3312 30.4232 31.1404 29.494 31.9129 28.5647C32.1703 28.2674 32.4278 28.2302 32.7588 28.3789C33.4945 28.7134 34.083 29.2338 34.4876 29.9028C35.6646 31.7241 36.1796 33.7684 36.5106 35.9242C36.6209 36.5932 36.6945 37.2994 36.8784 37.9313C37.1727 39.0092 37.1359 40.05 36.8048 41.0907C36.8416 41.165 36.7681 41.2394 36.8048 41.3137C36.8784 41.2022 36.9152 41.1279 36.9887 41.0535Z" fill="#C9D4EB"/>
<path d="M51.3333 40.1616C51.9218 40.4961 52.3999 40.7935 52.8781 41.0537C53.1356 41.2024 53.1356 41.4625 53.1723 41.7227C53.5034 43.5812 53.9448 45.4396 54.8275 47.1494C55.0114 47.5211 55.1953 47.8928 55.4896 48.153C56.1149 48.6733 56.0781 49.1194 55.5999 49.7512C55.1586 50.3459 54.7172 51.015 54.7907 51.8327C54.8275 52.1301 54.6436 52.0929 54.4597 52.0557C53.8712 51.9442 53.2827 51.7584 52.7677 51.4238C52.3264 51.1265 52.1057 50.7176 52.3631 50.1973C52.6574 49.6769 52.5103 48.8592 53.3195 48.6362C53.5402 48.599 53.3195 48.3388 53.2459 48.1901C52.2528 46.4804 51.7746 44.5847 51.4068 42.6519C51.2965 41.8714 51.37 41.0908 51.3333 40.1616Z" fill="#C9D4EB"/>
<path d="M26.7263 34.2516C27.3884 33.5454 28.0505 32.9135 28.6758 32.2445C29.0068 31.8728 29.1907 31.91 29.485 32.2445C31.1033 34.1773 32.0965 36.3703 32.4643 38.8977C32.5011 39.1579 32.5011 39.4181 32.5746 39.9013C30.8459 37.634 28.97 35.7384 26.7263 34.2516Z" fill="#FEFEFE"/>
<path d="M43.1674 22.729C44.6754 24.6246 46.5513 25.8883 48.8686 26.483C49.4571 26.6317 49.6778 26.8176 49.4203 27.4123C49.3467 27.5609 49.3835 27.784 49.31 27.9326C49.1996 28.1557 49.31 28.4902 48.9421 28.5273C48.6111 28.5645 48.3169 28.4902 48.2065 28.1557C47.5077 26.483 46.1099 25.814 44.5283 25.2936C43.1674 24.8476 41.8064 24.3272 40.9605 23.0263C40.8869 22.9148 40.8133 22.8033 40.7398 22.6918C39.9306 21.0935 39.9673 21.3537 41.1444 20.0156C41.3651 20.3501 41.5858 20.6847 41.8064 21.0192C42.395 21.5024 42.8363 22.0971 43.1674 22.729Z" fill="#C9D3EA"/>
<path d="M33.6409 26.855C35.4064 24.8107 37.3926 23.0637 39.6731 21.6885C40.0409 22.5062 39.9674 23.1752 39.3053 23.8071C38.2018 24.8478 36.9512 25.7027 35.5168 26.2231C34.9282 26.4089 34.3029 26.6319 33.6409 26.855Z" fill="#C9D3EA"/>
<path d="M49.825 17.8604C51.5538 18.0834 53.2825 18.0834 54.9744 17.2285C54.3124 18.2692 51.3698 18.6409 49.5308 18.0091C49.6411 17.9347 49.7147 17.8976 49.825 17.8604Z" fill="#0F428A"/>
<path d="M43.2043 10.3521C43.4618 10.4264 43.7561 10.5007 44.0871 10.5379C44.4182 10.5751 44.7492 10.5751 45.117 10.6122C45.7423 10.7981 47.2872 10.3521 47.5446 10.3892C47.2872 10.5007 48.0228 10.6494 47.6918 10.6866C47.3607 10.7237 45.4848 11.1326 45.117 10.9467C44.7492 10.9467 44.4182 10.9096 44.0871 10.8724C43.7561 10.8352 43.4618 10.7609 43.2043 10.6866C43.2043 10.6494 43.2043 10.6494 43.2043 10.6122C43.2043 10.5751 43.2043 10.5751 43.2043 10.5379C43.2043 10.5007 43.2043 10.5007 43.2043 10.4636C43.2043 10.4264 43.2043 10.3892 43.2043 10.3521Z" fill="#0F428A"/>
<path d="M43.1679 22.7291C42.6162 22.2459 42.2484 21.614 41.8438 21.0193C41.8805 20.9821 41.9541 20.9078 41.9909 20.8706C42.4323 21.4281 42.8737 22.0229 43.3151 22.5804C43.2783 22.6547 43.2047 22.6919 43.1679 22.7291Z" fill="#0F428A"/>
<path d="M38.4961 10.6494C38.1651 10.6122 37.8708 10.9839 37.4294 10.8353C37.7605 10.5379 38.1283 10.4264 38.4961 10.3521C38.4961 10.4636 38.4961 10.5751 38.4961 10.6494Z" fill="#0F428A"/>
<path d="M20.3628 13.8833C20.1421 13.6231 20.2156 13.3258 20.0317 12.9541C20.4363 13.1028 20.3995 13.4001 20.5099 13.586C20.4363 13.6603 20.3995 13.7718 20.3628 13.8833Z" fill="#8AA7D5"/>
<path d="M36.9886 41.0537C36.9518 41.3139 36.8414 41.5741 36.584 41.7971C36.584 41.4626 36.6575 41.2396 36.8414 41.0537C36.8782 41.0537 36.9518 41.0537 36.9886 41.0537Z" fill="#0F428A"/>
<path d="M55.3057 24.4017C55.416 24.1786 55.5264 24.03 55.9309 23.9185C55.747 24.1786 55.5999 24.3645 55.4896 24.5503C55.3792 24.5132 55.3424 24.476 55.3057 24.4017Z" fill="#7B9CD0"/>
<path d="M19.7377 18.7522C19.7009 18.715 19.6274 18.6407 19.5906 18.6035C19.7745 18.4177 19.9952 18.4548 20.2894 18.5292C20.0687 18.6035 19.9216 18.6778 19.7377 18.7522Z" fill="#A3B7DE"/>
<path d="M52.8781 40.2735C52.8781 40.0876 52.8413 39.8646 52.8413 39.6788C52.8781 39.6416 52.9517 39.6416 52.9884 39.6788C53.0252 39.9389 53.062 40.1991 53.1356 40.4222H53.0988H53.062C52.9149 40.4593 52.9149 40.3478 52.8781 40.2735Z" fill="#0F428A"/>
<path d="M52.8777 40.2734C52.9145 40.3478 52.9881 40.3849 53.0249 40.4593C52.9881 40.5708 53.0249 40.7566 52.9513 40.7938C52.841 40.8681 52.7306 40.7566 52.6938 40.608C52.841 40.5336 52.841 40.3849 52.8777 40.2734Z" fill="#0F428A"/>
<path d="M16.4268 34.6604C16.3165 34.6976 16.2429 34.7719 16.1326 34.8091C15.9854 34.8834 15.9487 34.8091 15.9854 34.6604C16.1326 34.5861 16.2797 34.5489 16.4268 34.4746C16.4268 34.5489 16.4268 34.5861 16.4268 34.6604Z" fill="#0F428A"/>
<path d="M9.76974 26.7058C10.6525 27.7094 11.4617 28.7873 12.1973 29.9024C12.8226 30.8688 12.7858 31.7608 12.1606 32.7272C11.3514 33.9166 11.3881 33.9538 12.6387 34.66C13.1169 34.9202 13.6318 35.1432 14.1468 35.3662C14.3307 35.4405 14.5882 35.4777 14.8824 35.5149C14.2939 36.0724 13.8157 36.7043 13.3744 37.3733C12.933 38.0424 12.5284 38.7114 12.0134 39.3433C12.418 38.0052 13.1905 36.9273 14.1468 35.9237C13.3744 35.7007 12.7123 35.5892 12.0502 35.2919C11.572 35.0689 11.0939 34.8087 10.7261 34.3998C10.1008 33.8051 10.1376 33.6564 10.8732 33.2476C12.0134 32.6157 12.3812 31.5378 11.756 30.274C11.3514 29.4563 10.7996 28.6758 10.2847 27.8952C10.064 27.5607 9.8433 27.2262 9.62261 26.8917C9.54905 26.7058 9.62261 26.6687 9.76974 26.7058Z" fill="#0F428A"/>
<path d="M37.687 10.8725C35.995 11.5416 33.7514 11.4301 32.1329 10.6867C31.9123 10.5752 31.9858 10.4637 32.0226 10.315C32.0594 10.1663 32.1697 9.98048 32.3536 10.1663C33.641 11.4301 36.2157 11.0955 37.7238 10.6123C37.8341 10.6123 37.5767 10.8725 37.687 10.8725Z" fill="#0F428A"/>
<path d="M24.9974 1.80322C24.7767 2.28642 24.5928 2.69528 24.5928 3.21564C23.9307 2.43509 24.0043 2.21208 24.9974 1.80322Z" fill="#0F428A"/>
<path d="M31.5081 5.40885C31.8023 5.11149 32.0966 4.77697 32.5747 4.92565C32.6115 4.92565 32.6851 5.14866 32.6483 5.18583C32.3173 5.44602 31.9127 5.44602 31.5081 5.40885Z" fill="#0F428A"/>
<path d="M50.5606 7.00659C50.3031 6.67206 50.0824 6.30037 49.5675 6.33754C49.5307 6.33754 49.4203 6.56055 49.4571 6.59772C49.9721 6.70923 50.156 6.96942 50.5606 7.00659Z" fill="#0F428A"/>
<path d="M9.77016 26.7063C9.73338 26.7435 9.65981 26.8178 9.62303 26.855C9.43912 26.7063 9.29199 26.5205 9.29199 26.2231C9.58625 26.2603 9.65981 26.4833 9.77016 26.7063Z" fill="#0F428A"/>
<path d="M15.9859 34.6606C16.0227 34.6978 16.0962 34.735 16.133 34.8093C15.9859 34.958 15.8387 35.0323 15.6181 35.0695C15.5813 34.735 15.8387 34.735 15.9859 34.6606Z" fill="#0F428A"/>
<path d="M11.9029 40.1992C11.719 39.8647 11.7558 39.7532 11.8293 39.6045C11.8293 39.6045 11.9397 39.6045 11.9397 39.6417C12.05 39.7903 11.9029 39.8647 11.9029 40.1992Z" fill="#0F428A"/>
<path d="M61.3749 16.4476C60.9703 15.7043 60.6025 14.9609 59.7197 14.6264C60.7129 14.2547 61.3014 14.8494 61.5221 16.2618C61.5589 16.4476 61.4853 16.4848 61.3749 16.4476Z" fill="#0F428A"/>
<path d="M47.2139 10.2034C47.2506 9.94318 47.7288 10.0919 48.1334 10.9467C47.692 10.7981 47.4346 10.5379 47.2139 10.2034Z" fill="#0F428A"/>
<path d="M32.4276 10.2034C32.3908 9.94318 31.9127 10.0919 31.5081 10.9467C31.9494 10.7981 32.2069 10.5379 32.4276 10.2034Z" fill="#0F428A"/>
<path d="M56.0786 7.08137C56.0786 6.74685 55.8211 6.56101 55.9683 6.30083C55.9683 6.26366 56.1154 6.26366 56.1522 6.30083C56.4097 6.48667 56.3729 6.70968 56.0786 7.08137Z" fill="#0F428A"/>
<path d="M52.9887 39.6786C52.9519 39.6786 52.8783 39.6786 52.8415 39.6786C52.6209 39.4555 52.7312 39.1582 52.8048 38.8608C52.8783 39.1582 52.9519 39.4184 52.9887 39.6786Z" fill="#0F428A"/>
<path d="M57.4392 49.6023C57.6231 49.5652 57.7702 49.6023 57.9174 49.7138C57.7335 49.7881 57.5496 49.8253 57.4392 49.6023Z" fill="#0F428A"/>
<path d="M61.3748 16.4476C61.4115 16.3732 61.4851 16.3361 61.5219 16.2617C61.6322 16.4104 61.7058 16.5962 61.5954 16.8193C61.4115 16.7449 61.4115 16.5962 61.3748 16.4476Z" fill="#0F428A"/>
<path d="M36.216 42.5771C36.1793 42.8002 36.1057 43.0232 35.7747 43.1347C35.885 42.8373 35.9218 42.6143 36.216 42.5771Z" fill="#0F428A"/>
<path d="M36.253 42.5775C36.253 42.3917 36.1426 42.1315 36.4737 42.02C36.5105 42.2802 36.4002 42.4289 36.253 42.5775C36.2162 42.5775 36.253 42.5775 36.253 42.5775Z" fill="#0F428A"/>
</svg>
